<?xml version="1.0" encoding="UTF-8"?>
<!DOCTYPE svg PUBLIC "-//W3C//DTD SVG 1.1//EN" "http://www.w3.org/Graphics/SVG/1.1/DTD/svg11.dtd">
<!-- Creator: CorelDRAW X7 -->
<svg xmlns="http://www.w3.org/2000/svg" xml:space="preserve" width="42.583mm" height="11.9051mm" version="1.1" style="shape-rendering:geometricPrecision; text-rendering:geometricPrecision; image-rendering:optimizeQuality; fill-rule:evenodd; clip-rule:evenodd"
viewBox="0 0 8510 2379"
 xmlns:xlink="http://www.w3.org/1999/xlink">
 <defs>
  <style type="text/css">
   <![CDATA[
    .fil0 {fill:#FEFEFE;fill-rule:nonzero}
   ]]>
  </style>
 </defs>
 <g id="Capa_x0020_1">
  <metadata id="CorelCorpID_0Corel-Layer"/>
  <g id="_2239887098848">
   <path class="fil0" d="M3630 990c0,251 -148,463 -414,463 -266,0 -414,-212 -414,-463 0,-251 148,-463 414,-463 266,0 414,212 414,463zm-721 0l0 0c0,185 103,373 307,373 203,0 307,-188 307,-373 0,-185 -104,-373 -307,-373 -204,0 -307,188 -307,373z"/>
   <path class="fil0" d="M3764 552l98 0 0 167 3 0c50,-121 170,-192 312,-192 267,0 394,214 394,463 0,249 -127,463 -394,463 -128,0 -257,-65 -303,-192l-3 0 0 490 -107 0 0 -1199zm413 65l0 0c-237,0 -306,174 -306,373 0,181 81,373 306,373 204,0 287,-192 287,-373 0,-182 -83,-373 -287,-373z"/>
   <path class="fil0" d="M4881 552l178 0 0 90 -178 0 0 590c0,70 10,110 87,116 30,0 61,-2 91,-6l0 92c-32,0 -63,3 -95,3 -142,0 -191,-47 -190,-196l0 -599 -152 0 0 -90 152 0 0 -262 107 0 0 262z"/>
   <path class="fil0" d="M5190 217l107 0 0 171 -107 0 0 -171zm0 335l0 0 107 0 0 875 -107 0 0 -875z"/>
   <path class="fil0" d="M5466 820c12,-205 153,-293 355,-293 154,0 322,46 322,281l0 465c0,42 20,64 62,64 12,0 22,-1 34,-6l0 89c-25,5 -40,7 -69,7 -109,0 -126,-63 -126,-152l-3 0c-76,113 -149,178 -319,178 -163,0 -293,-80 -293,-256 0,-244 239,-255 470,-282 88,-8 137,-24 137,-118 0,-145 -102,-180 -229,-180 -134,0 -229,61 -234,203l-107 0zm570 129l0 0 -4 0c-13,26 -61,34 -89,39 -182,32 -407,32 -407,202 0,107 93,173 195,173 164,0 305,-104 305,-275l0 -139z"/>
   <path class="fil0" d="M7070 1356c0,263 -105,420 -388,420 -175,0 -349,-79 -363,-264l107 0c22,129 139,175 256,175 198,0 281,-116 281,-331l0 -119 -3 0c-49,109 -151,180 -278,180 -280,0 -395,-198 -395,-449 0,-241 142,-441 395,-441 129,0 236,80 278,176l3 0 0 -151 107 0 0 804zm-107 -376l0 0c0,-172 -78,-363 -281,-363 -203,0 -288,181 -288,363 0,176 90,347 288,347 185,0 281,-171 281,-347z"/>
   <path class="fil0" d="M7248 552l99 0 0 206 3 0c54,-143 173,-224 331,-217l0 106c-193,-8 -326,131 -326,314l0 466 -107 0 0 -875z"/>
   <path class="fil0" d="M8510 990c0,251 -148,463 -414,463 -266,0 -413,-212 -413,-463 0,-251 147,-463 413,-463 266,0 414,212 414,463zm-721 0l0 0c0,185 104,373 307,373 204,0 307,-188 307,-373 0,-185 -103,-373 -307,-373 -203,0 -307,188 -307,373z"/>
  </g>
  <g id="_2239888033760">
   <path class="fil0" d="M991 1123c-80,0 -145,-65 -145,-145 0,-80 65,-145 145,-145 80,0 145,65 145,145 0,80 -65,145 -145,145z"/>
  </g>
  <g id="_2239887024048">
   <g>
    <path class="fil0" d="M1394 1379l-140 -139c-67,67 -160,109 -263,109 -102,0 -195,-42 -262,-109l-140 139c103,104 245,168 402,168 157,0 300,-65 403,-168zm450 447l0 0c-218,220 -520,356 -853,356 -332,0 -633,-136 -851,-354l-140 139c254,254 604,412 991,412 388,0 739,-158 993,-413l-140 -140zm-154 -153l0 0 -140 -139c-143,144 -341,233 -559,233 -218,0 -415,-89 -558,-232l-140 139c179,180 426,291 698,291 273,0 520,-112 699,-292z"/>
   </g>
  </g>
  <path class="fil0" d="M991 0c-543,0 -985,442 -985,985 0,203 62,392 167,548l141 -140c-72,-119 -114,-259 -114,-408 0,-436 355,-792 791,-792 437,0 792,356 792,792 0,149 -42,289 -114,408l141 139c105,-156 166,-345 166,-547 0,-543 -442,-985 -985,-985z"/>
 </g>
</svg>
