<?xml version="1.0" encoding="UTF-8"?>
<!DOCTYPE svg PUBLIC "-//W3C//DTD SVG 1.1//EN" "http://www.w3.org/Graphics/SVG/1.1/DTD/svg11.dtd">
<!-- Creator: CorelDRAW X7 -->
<svg xmlns="http://www.w3.org/2000/svg" xml:space="preserve" width="243.84mm" height="455.507mm" version="1.1" style="shape-rendering:geometricPrecision; text-rendering:geometricPrecision; image-rendering:optimizeQuality; fill-rule:evenodd; clip-rule:evenodd"
viewBox="0 0 243840 455507"
 xmlns:xlink="http://www.w3.org/1999/xlink">
 <defs>
  <style type="text/css">
   <![CDATA[
    .fil0 {fill:#00AFEF}
    .fil1 {fill:#FEFEFE;fill-rule:nonzero}
   ]]>
  </style>
 </defs>
 <g id="Capa_x0020_1">
  <metadata id="CorelCorpID_0Corel-Layer"/>
  <g id="_2299453051008">
   <rect class="fil0" width="243840" height="455507"/>
   <g>
    <path class="fil1" d="M84650 272336c0,4614 -2712,8511 -7607,8511 -4895,0 -7609,-3897 -7609,-8511 0,-4615 2714,-8513 7609,-8513 4895,0 7607,3898 7607,8513zm-13250 0l0 0c0,3399 1902,6859 5643,6859 3742,0 5643,-3460 5643,-6859 0,-3399 -1901,-6860 -5643,-6860 -3741,0 -5643,3461 -5643,6860z"/>
    <path class="fil1" d="M87118 264292l1808 0 0 3055 62 0c904,-2214 3119,-3524 5738,-3524 4894,0 7233,3929 7233,8513 0,4584 -2339,8511 -7233,8511 -2370,0 -4740,-1183 -5582,-3522l-62 0 0 9010 -1964 0 0 -22043zm7608 1184l0 0c-4365,0 -5644,3212 -5644,6860 0,3336 1497,6859 5644,6859 3741,0 5269,-3523 5269,-6859 0,-3337 -1528,-6860 -5269,-6860z"/>
    <path class="fil1" d="M107668 264292l3275 0 0 1652 -3275 0 0 10850c0,1279 188,2028 1591,2121 561,0 1123,-32 1684,-93l0 1682c-593,0 -1154,64 -1746,64 -2620,0 -3524,-874 -3492,-3618l0 -11006 -2806 0 0 -1652 2806 0 0 -4833 1963 0 0 4833z"/>
    <path class="fil1" d="M113345 258118l1965 0 0 3149 -1965 0 0 -3149zm0 6174l0 0 1965 0 0 16088 -1965 0 0 -16088z"/>
    <path class="fil1" d="M118429 269217c217,-3772 2805,-5394 6517,-5394 2836,0 5923,842 5923,5176l0 8543c0,780 375,1186 1153,1186 219,0 407,-32 625,-126l0 1654c-468,92 -748,124 -1279,124 -1996,0 -2307,-1153 -2307,-2806l-62 0c-1403,2090 -2744,3273 -5862,3273 -2994,0 -5395,-1465 -5395,-4707 0,-4490 4397,-4678 8637,-5177 1622,-155 2526,-436 2526,-2181 0,-2652 -1871,-3306 -4209,-3306 -2464,0 -4210,1123 -4304,3741l-1963 0zm10476 2371l0 0 -62 0c-249,467 -1123,623 -1652,716 -3337,593 -7484,593 -7484,3710 0,1965 1715,3181 3585,3181 3025,0 5613,-1902 5613,-5051l0 -2556z"/>
    <path class="fil1" d="M147929 279071c0,4833 -1934,7733 -7140,7733 -3212,0 -6424,-1467 -6673,-4865l1965 0c405,2370 2556,3212 4708,3212 3647,0 5176,-2121 5176,-6080l0 -2183 -63 0c-905,1995 -2775,3305 -5113,3305 -5145,0 -7266,-3648 -7266,-8262 0,-4428 2620,-8108 7266,-8108 2370,0 4334,1467 5113,3243l63 0 0 -2774 1964 0 0 14779zm-1964 -6922l0 0c0,-3150 -1435,-6673 -5176,-6673 -3742,0 -5301,3336 -5301,6673 0,3242 1652,6391 5301,6391 3398,0 5176,-3149 5176,-6391z"/>
    <path class="fil1" d="M151207 264292l1808 0 0 3772 62 0c998,-2619 3180,-4115 6080,-3991l0 1964c-3554,-156 -5987,2402 -5987,5769l0 8574 -1963 0 0 -16088z"/>
    <path class="fil1" d="M174406 272336c0,4614 -2712,8511 -7609,8511 -4895,0 -7607,-3897 -7607,-8511 0,-4615 2712,-8513 7607,-8513 4897,0 7609,3898 7609,8513zm-13252 0l0 0c0,3399 1902,6859 5643,6859 3742,0 5645,-3460 5645,-6859 0,-3399 -1903,-6860 -5645,-6860 -3741,0 -5643,3461 -5643,6860z"/>
   </g>
   <g>
    <path class="fil1" d="M121900 190995c-2522,0 -4565,-2043 -4565,-4564 0,-2520 2043,-4564 4565,-4564 2520,0 4564,2044 4564,4564 0,2521 -2044,4564 -4564,4564z"/>
   </g>
   <g>
    <g>
     <path class="fil1" d="M134556 199033l-4398 -4373c-2113,2124 -5033,3442 -8258,3442 -3219,0 -6137,-1313 -8248,-3429l-4392 4379c3235,3244 7706,5255 12640,5255 4942,0 9420,-2019 12656,-5274zm14159 14079l0 0c-6857,6896 -16345,11175 -26815,11175 -10452,0 -19926,-4261 -26781,-11135l-4391 4379c7978,8001 19006,12961 31172,12961 12188,0 23231,-4980 31213,-13007l-4398 -4373zm-4843 -4815l0 0 -4397 -4372c-4494,4520 -10712,7324 -17575,7324 -6850,0 -13060,-2793 -17552,-7298l-4393 4379c5617,5632 13380,9124 21945,9124 8579,0 16354,-3506 21972,-9157z"/>
    </g>
   </g>
   <path class="fil1" d="M121900 155674c-17083,0 -30980,13897 -30980,30979 0,6379 1941,12312 5259,17245l4427 -4415c-2270,-3753 -3601,-8134 -3601,-12830 0,-13727 11167,-24895 24895,-24895 13726,0 24894,11168 24894,24895 0,4687 -1305,9073 -3566,12820l4406 4383c3305,-4925 5245,-10839 5245,-17203 0,-17082 -13898,-30979 -30979,-30979z"/>
  </g>
 </g>
</svg>
