<?xml version="1.0" encoding="UTF-8"?>
<!DOCTYPE svg PUBLIC "-//W3C//DTD SVG 1.1//EN" "http://www.w3.org/Graphics/SVG/1.1/DTD/svg11.dtd">
<!-- Creator: CorelDRAW X7 -->
<svg xmlns="http://www.w3.org/2000/svg" xml:space="preserve" width="170.995mm" height="47.8058mm" version="1.1" style="shape-rendering:geometricPrecision; text-rendering:geometricPrecision; image-rendering:optimizeQuality; fill-rule:evenodd; clip-rule:evenodd"
viewBox="0 0 171878 48053"
 xmlns:xlink="http://www.w3.org/1999/xlink">
 <defs>
  <style type="text/css">
   <![CDATA[
    .fil0 {fill:#FEFEFE;fill-rule:nonzero}
   ]]>
  </style>
 </defs>
 <g id="Capa_x0020_1">
  <metadata id="CorelCorpID_0Corel-Layer"/>
  <g id="_2911729850160">
   <g>
    <path class="fil0" d="M73308 19992c0,5067 -2979,9347 -8355,9347 -5376,0 -8356,-4280 -8356,-9347 0,-5069 2980,-9349 8356,-9349 5376,0 8355,4280 8355,9349zm-14552 0l0 0c0,3732 2088,7532 6197,7532 4109,0 6198,-3800 6198,-7532 0,-3733 -2089,-7534 -6198,-7534 -4109,0 -6197,3801 -6197,7534z"/>
    <path class="fil0" d="M76018 11157l1986 0 0 3356 68 0c992,-2432 3425,-3870 6301,-3870 5375,0 7943,4315 7943,9349 0,5033 -2568,9347 -7943,9347 -2602,0 -5206,-1300 -6130,-3868l-68 0 0 9895 -2157 0 0 -24209zm8355 1301l0 0c-4794,0 -6198,3528 -6198,7534 0,3664 1643,7532 6198,7532 4108,0 5787,-3868 5787,-7532 0,-3664 -1679,-7534 -5787,-7534z"/>
    <path class="fil0" d="M98586 11157l3596 0 0 1815 -3596 0 0 11916c0,1404 206,2226 1747,2329 616,0 1233,-35 1849,-103l0 1848c-650,0 -1266,70 -1917,70 -2877,0 -3870,-960 -3835,-3973l0 -12087 -3082 0 0 -1815 3082 0 0 -5307 2156 0 0 5307z"/>
    <path class="fil0" d="M104820 4377l2159 0 0 3459 -2159 0 0 -3459zm0 6780l0 0 2159 0 0 17669 -2159 0 0 -17669z"/>
    <path class="fil0" d="M110403 16567c239,-4143 3082,-5924 7158,-5924 3114,0 6505,925 6505,5685l0 9382c0,856 411,1301 1266,1301 241,0 447,-34 686,-137l0 1816c-514,101 -822,136 -1405,136 -2191,0 -2533,-1267 -2533,-3082l-69 0c-1540,2295 -3013,3595 -6437,3595 -3288,0 -5925,-1609 -5925,-5170 0,-4931 4829,-5137 9486,-5685 1781,-170 2773,-479 2773,-2395 0,-2912 -2054,-3631 -4621,-3631 -2706,0 -4624,1233 -4727,4109l-2157 0zm11505 2603l0 0 -67 0c-274,513 -1234,684 -1815,787 -3664,651 -8218,651 -8218,4074 0,2159 1883,3493 3936,3493 3323,0 6164,-2088 6164,-5546l0 -2808z"/>
    <path class="fil0" d="M142800 27388c0,5308 -2123,8492 -7841,8492 -3526,0 -7054,-1610 -7328,-5342l2158 0c445,2603 2808,3528 5170,3528 4006,0 5684,-2330 5684,-6678l0 -2397 -68 0c-994,2191 -3048,3629 -5616,3629 -5650,0 -7979,-4006 -7979,-9073 0,-4863 2877,-8904 7979,-8904 2603,0 4760,1610 5616,3562l68 0 0 -3048 2157 0 0 16231zm-2157 -7602l0 0c0,-3458 -1575,-7328 -5684,-7328 -4109,0 -5821,3664 -5821,7328 0,3561 1815,7019 5821,7019 3732,0 5684,-3458 5684,-7019z"/>
    <path class="fil0" d="M146400 11157l1986 0 0 4143 68 0c1096,-2876 3493,-4519 6677,-4383l0 2157c-3903,-171 -6574,2638 -6574,6335l0 9417 -2157 0 0 -17669z"/>
    <path class="fil0" d="M171878 19992c0,5067 -2978,9347 -8356,9347 -5376,0 -8354,-4280 -8354,-9347 0,-5069 2978,-9349 8354,-9349 5378,0 8356,4280 8356,9349zm-14553 0l0 0c0,3732 2088,7532 6197,7532 4109,0 6199,-3800 6199,-7532 0,-3733 -2090,-7534 -6199,-7534 -4109,0 -6197,3801 -6197,7534z"/>
   </g>
   <g>
    <path class="fil0" d="M20020 22686c-1619,0 -2931,-1313 -2931,-2932 0,-1618 1312,-2931 2931,-2931 1619,0 2932,1313 2932,2931 0,1619 -1313,2932 -2932,2932z"/>
   </g>
   <g>
    <g>
     <path class="fil0" d="M28149 27848l-2825 -2809c-1356,1364 -3232,2211 -5303,2211 -2068,0 -3942,-843 -5298,-2203l-2821 2813c2078,2084 4950,3375 8119,3375 3174,0 6049,-1297 8128,-3387zm9094 9042l0 0c-4404,4429 -10498,7177 -17222,7177 -6713,0 -12798,-2736 -17200,-7151l-2821 2812c5125,5139 12207,8325 20021,8325 7827,0 14920,-3199 20046,-8354l-2824 -2809zm-3110 -3092l0 0 -2825 -2808c-2886,2902 -6879,4703 -11287,4703 -4400,0 -8388,-1793 -11273,-4687l-2821 2813c3607,3617 8593,5859 14094,5859 5510,0 10503,-2251 14112,-5880z"/>
    </g>
   </g>
   <path class="fil0" d="M20020 0c-10971,0 -19896,8925 -19896,19897 0,4096 1246,7907 3377,11075l2844 -2835c-1458,-2410 -2313,-5224 -2313,-8240 0,-8817 7172,-15989 15988,-15989 8817,0 15989,7172 15989,15989 0,3010 -838,5827 -2291,8233l2831 2815c2122,-3163 3368,-6961 3368,-11048 0,-10972 -8926,-19897 -19897,-19897z"/>
  </g>
 </g>
</svg>
