<svg xmlns="http://www.w3.org/2000/svg" viewBox="0 0 403.87 331.56"><defs><style>.cls-1{isolation:isolate;}.cls-2{fill:#2a1000;opacity:0.05;}.cls-2,.cls-21{mix-blend-mode:multiply;}.cls-10,.cls-3,.cls-4,.cls-5,.cls-6,.cls-8,.cls-9{fill:none;}.cls-3,.cls-4,.cls-5,.cls-6{stroke:#fff;stroke-miterlimit:10;}.cls-4{stroke-dasharray:4.6 4.6;}.cls-5{stroke-dasharray:4.06 4.06;}.cls-6{stroke-dasharray:4.03 4.03;}.cls-7{fill:#fff;}.cls-10,.cls-8,.cls-9{stroke:#f0f0f1;stroke-linecap:round;stroke-linejoin:round;}.cls-8{stroke-width:5px;}.cls-9{stroke-width:2.5px;}.cls-10{stroke-width:3px;}.cls-11{fill:#d15036;}.cls-12{fill:#f8f9fd;}.cls-13{fill:#fafafa;}.cls-14,.cls-21{fill:#404040;}.cls-15{fill:#eae6e2;}.cls-16{fill:#579ae2;}.cls-17{fill:#6bb181;}.cls-18{fill:#4c87cd;}.cls-19{fill:#d6cfc6;}.cls-20{fill:#616161;}.cls-21{opacity:0.2;}.cls-22{fill:#d05451;}.cls-23{fill:#c63c38;}</style></defs><title>Asset 20</title><g class="cls-1"><g id="Layer_2" data-name="Layer 2"><g id="Layer_1-2" data-name="Layer 1"><circle class="cls-2" cx="197.94" cy="164.53" r="160.49"/><line class="cls-3" x1="327.11" y1="175.63" x2="329.18" y2="175.63"/><line class="cls-4" x1="333.77" y1="175.63" x2="349.86" y2="175.63"/><polyline class="cls-3" points="352.16 175.63 354.22 175.63 354.22 173.56"/><line class="cls-5" x1="354.22" y1="169.5" x2="354.22" y2="8.94"/><polyline class="cls-3" points="354.22 6.91 354.22 4.84 352.16 4.84"/><line class="cls-6" x1="348.13" y1="4.84" x2="197.13" y2="4.84"/><line class="cls-3" x1="195.12" y1="4.84" x2="193.05" y2="4.84"/><circle class="cls-7" cx="326.35" cy="175.79" r="4.84"/><circle class="cls-7" cx="188.21" cy="4.84" r="4.84"/><line class="cls-8" x1="254.48" y1="329.06" x2="128.35" y2="329.06"/><line class="cls-8" x1="249.43" y1="42.26" x2="171.71" y2="42.26"/><circle class="cls-9" cx="68.63" cy="297.55" r="3.71"/><circle class="cls-10" cx="253.42" cy="24.92" r="4.54"/><polygon class="cls-11" points="275.54 202.14 322.38 219.3 309.85 233.46 275.54 202.14"/><polygon class="cls-11" points="267.99 202.65 279.29 224.62 267.99 226.19 267.99 202.65"/><polygon class="cls-12" points="62.85 251.24 34.07 277.08 26.14 267.09 62.85 251.24"/><polygon class="cls-12" points="60.47 245.3 32.66 252.07 31.3 240 60.47 245.3"/><path class="cls-13" d="M127.1,124.35a5.11,5.11,0,0,1,5.11,5.11H122A5.11,5.11,0,0,1,127.1,124.35Z"/><path class="cls-13" d="M141.58,120.1a9.37,9.37,0,0,1,9.37,9.37H132.21A9.37,9.37,0,0,1,141.58,120.1Z"/><path class="cls-13" d="M248.1,171.5a5.11,5.11,0,0,1,5.11,5.11H243A5.11,5.11,0,0,1,248.1,171.5Z"/><path class="cls-13" d="M262.58,167.24a9.37,9.37,0,0,1,9.37,9.37H253.22A9.37,9.37,0,0,1,262.58,167.24Z"/><path class="cls-13" d="M298.08,156.7a5.11,5.11,0,0,1,5.11,5.11H293A5.11,5.11,0,0,1,298.08,156.7Z"/><path class="cls-13" d="M312.57,152.45a9.37,9.37,0,0,1,9.37,9.37H303.2A9.37,9.37,0,0,1,312.57,152.45Z"/><path class="cls-14" d="M403.86,278.26V266.63h-8L358.83,217.5c-2.1-2.78-10.07-5-17.85-5H62.89c-7.78,0-15.75,2.2-17.85,5L8,266.63H0v12.16H0c.26,3.26,5.44,5.62,13.61,5.62H390.25C398.86,284.41,404.15,281.78,403.86,278.26Z"/><path class="cls-14" d="M45,205.26l-44,58.27c-3.55,4.71,2,8.64,12.56,8.64H390.25c10.54,0,16.11-3.94,12.56-8.64l-44-58.27c-2.1-2.78-10.07-5-17.85-5H62.89C55.11,200.28,47.15,202.48,45,205.26Z"/><polygon class="cls-13" points="362.68 268.59 41.2 268.59 80.5 202.28 323.38 202.28 362.68 268.59"/><path class="cls-15" d="M122.19,220.82l-4.76,13.33h51.82l2.26-16.39h-40.2C130.06,219.3,126.41,220.53,122.19,220.82Z"/><path class="cls-15" d="M173.66,202.28H128.81l-4,11.16c3.89.28,6.66,1.44,6.94,2.94h39.94Z"/><path class="cls-16" d="M128,217.07c.44-1.3-2-2.34-5.48-2.34s-6.68,1-7.19,2.34,1.93,2.39,5.46,2.39S127.57,218.38,128,217.07Z"/><path class="cls-17" d="M143.78,211.23c.24-.87-1.52-1.58-3.91-1.58s-4.56.71-4.84,1.58,1.47,1.6,3.9,1.6S143.54,212.12,143.78,211.23Z"/><polygon class="cls-15" points="112.82 235.78 60.65 235.78 55.87 243.83 109.81 243.83 112.82 235.78"/><polygon class="cls-15" points="175.42 216.38 231.22 216.38 229.34 202.28 177.12 202.28 175.42 216.38"/><polygon class="cls-17" points="233.82 235.78 116.86 235.78 108.32 259.7 237.02 259.7 233.82 235.78"/><polygon class="cls-16" points="303.65 202.28 267.61 202.28 277.82 234.15 319.47 234.15 303.65 202.28"/><path class="cls-15" d="M71.32,217.77l-9.71,16.39h51.82l5-13.33c-4-.29-6.76-1.52-6.9-3.06Z"/><path class="cls-15" d="M125.34,202.28H80.5l-8.35,14.09h39.94c1.37-1.5,5-2.66,9.09-2.94Z"/><polygon class="cls-15" points="231.41 217.77 175.25 217.77 173.26 234.15 233.6 234.15 231.41 217.77"/><polygon class="cls-15" points="107.61 261.7 105.15 268.59 238.21 268.59 237.29 261.7 107.61 261.7"/><polygon class="cls-15" points="237.85 235.78 242.79 268.59 284.27 268.59 274.31 235.78 237.85 235.78"/><polygon class="cls-15" points="54.83 245.59 41.2 268.59 100.56 268.59 109.16 245.59 54.83 245.59"/><polygon class="cls-16" points="278.34 235.78 288.86 268.59 336.56 268.59 320.27 235.78 278.34 235.78"/><polygon class="cls-15" points="341.15 268.59 362.68 268.59 355.43 256.37 334.88 256.37 341.15 268.59"/><polygon class="cls-15" points="333.89 254.45 354.3 254.45 343.23 235.78 324.31 235.78 333.89 254.45"/><polygon class="cls-15" points="323.47 234.15 342.27 234.15 323.38 202.28 307.12 202.28 323.47 234.15"/><polygon class="cls-15" points="268.42 216.38 264.14 202.28 232.81 202.28 234.93 216.38 268.42 216.38"/><polygon class="cls-15" points="268.84 217.77 235.14 217.77 237.61 234.15 273.82 234.15 268.84 217.77"/><polygon class="cls-18" points="322.51 240.28 279.78 240.28 278.34 235.78 320.27 235.78 322.51 240.28"/><path class="cls-17" d="M72.53,224.94a3.08,3.08,0,0,0-2.29.73c-.23.4.42.73,1.46.73a3.06,3.06,0,0,0,2.29-.73C74.22,225.26,73.57,224.94,72.53,224.94Z"/><path class="cls-17" d="M80.31,224.94a3,3,0,0,0-2.26.73c-.22.4.45.73,1.49.73a3,3,0,0,0,2.27-.73C82,225.26,81.34,224.94,80.31,224.94Z"/><path class="cls-17" d="M88.08,224.94c-1,0-2,.32-2.24.73s.47.73,1.51.73,2-.33,2.24-.73S89.12,224.94,88.08,224.94Z"/><path class="cls-17" d="M95.86,224.94c-1,0-2,.32-2.22.73s.5.73,1.54.73,2-.33,2.22-.73S96.89,224.94,95.86,224.94Z"/><path class="cls-17" d="M103.64,224.94c-1,0-2,.32-2.19.73s.52.73,1.56.73,2-.33,2.19-.73S104.67,224.94,103.64,224.94Z"/><path class="cls-17" d="M111.41,224.94c-1,0-2,.32-2.17.73s.55.73,1.59.73,2-.33,2.17-.73S112.45,224.94,111.41,224.94Z"/><polygon class="cls-17" points="323.47 234.15 342.27 234.15 333.56 219.46 315.93 219.46 323.47 234.15"/><polygon class="cls-19" points="60.7 242.21 63.52 237.32 108.46 237.32 106.56 242.21 60.7 242.21"/><polygon class="cls-19" points="204.46 215.09 204.32 203.42 226.24 203.42 227.62 215.09 204.46 215.09"/><polygon class="cls-19" points="177.16 232.66 178.59 219.08 194.71 219.08 194.27 232.66 177.16 232.66"/><polygon class="cls-19" points="148.77 232.66 151.84 219.08 167.84 219.08 165.75 232.66 148.77 232.66"/><polygon class="cls-19" points="246.75 266.63 243.73 248.46 274.19 248.46 279.42 266.63 246.75 266.63"/><polygon class="cls-19" points="242.96 243.83 242.08 238.55 271.34 238.55 272.86 243.83 242.96 243.83"/><polygon class="cls-19" points="46.61 266.63 57.79 247.26 104.59 247.26 97.04 266.63 46.61 266.63"/><polygon class="cls-19" points="344.39 266.63 339.92 258.19 352.39 258.19 357.26 266.63 344.39 266.63"/><polygon class="cls-19" points="337.02 252.69 328.88 237.32 340.35 237.32 349.22 252.69 337.02 252.69"/><polygon class="cls-19" points="317.42 215.64 310.95 203.42 320.8 203.42 327.85 215.64 317.42 215.64"/><polygon class="cls-19" points="238.17 215.09 237.18 209.09 262.87 209.09 264.59 215.09 238.17 215.09"/><polygon class="cls-19" points="241.1 232.66 239.37 222.28 266.66 222.28 269.65 232.66 241.1 232.66"/><polygon class="cls-19" points="66.21 232.66 110.28 232.66 112.1 227.97 68.91 227.97 66.21 232.66"/><polygon class="cls-19" points="105.01 219.08 74.04 219.08 71.55 223.41 103.12 223.41 105.01 219.08"/><polygon class="cls-19" points="136.67 219.08 124.84 223.41 123.82 226.4 143.99 226.4 145.84 219.08 136.67 219.08"/><polygon class="cls-19" points="99.28 211.63 103.22 203.42 121.67 203.42 118.47 211.63 99.28 211.63"/><polygon class="cls-19" points="94.48 203.42 83.08 203.42 76.34 215.09 88.39 215.09 94.48 203.42"/><polygon class="cls-19" points="131.66 203.42 130.28 207.45 150.91 207.45 149.06 215.09 168.45 215.09 170.25 203.42 131.66 203.42"/><polygon class="cls-19" points="121.69 232.66 123.28 227.97 143.59 227.97 142.41 232.66 121.69 232.66"/><path class="cls-20" d="M356.22,226.4c6.15,0,12.54,2,14.32,4.42s-1.86,4.6-8.25,4.6-12.87-2.08-14.44-4.6S350.08,226.4,356.22,226.4Z"/><path class="cls-20" d="M45.31,223.84l-10,14.41c-.68,1,.71,1.78,3.12,1.78s4.88-.8,5.52-1.78l9.45-14.41c.56-.86-.79-1.56-3-1.56S45.91,223,45.31,223.84Z"/><ellipse class="cls-21" cx="94.48" cy="234.22" rx="16.69" ry="4.4"/><path class="cls-22" d="M94.48,168.19a26.37,26.37,0,0,0-26.37,26.37c0,14.57,26.37,39.65,26.37,39.65s26.37-25.08,26.37-39.65A26.37,26.37,0,0,0,94.48,168.19Zm0,41.17a14.8,14.8,0,1,1,14.8-14.8A14.8,14.8,0,0,1,94.48,209.37Z"/><path class="cls-23" d="M94.48,176.89a17.67,17.67,0,1,0,17.67,17.67A17.67,17.67,0,0,0,94.48,176.89Zm0,29.59a11.91,11.91,0,1,1,11.91-11.91A11.91,11.91,0,0,1,94.48,206.48Z"/><ellipse class="cls-21" cx="284.27" cy="266.22" rx="11.94" ry="3.15"/><path class="cls-22" d="M284.27,219a18.87,18.87,0,0,0-18.87,18.87c0,10.42,18.87,28.37,18.87,28.37s18.87-17.95,18.87-28.37A18.87,18.87,0,0,0,284.27,219Zm0,29.46a10.59,10.59,0,1,1,10.59-10.59A10.59,10.59,0,0,1,284.27,248.44Z"/><path class="cls-23" d="M284.27,225.2a12.64,12.64,0,1,0,12.64,12.64A12.64,12.64,0,0,0,284.27,225.2Zm0,21.17a8.52,8.52,0,1,1,8.52-8.52A8.52,8.52,0,0,1,284.27,246.37Z"/><ellipse class="cls-21" cx="195.44" cy="213.45" rx="33.89" ry="8.93"/><path class="cls-22" d="M195.44,79.39a53.55,53.55,0,0,0-53.55,53.55c0,29.57,53.55,80.51,53.55,80.51S249,162.52,249,132.94A53.55,53.55,0,0,0,195.44,79.39Zm0,83.6a30,30,0,1,1,30-30A30,30,0,0,1,195.44,163Z"/><path class="cls-23" d="M195.44,97.06a35.88,35.88,0,1,0,35.88,35.88A35.88,35.88,0,0,0,195.44,97.06Zm0,60.08a24.19,24.19,0,1,1,24.19-24.19A24.19,24.19,0,0,1,195.44,157.13Z"/><path class="cls-13" d="M252.92,129.9a13,13,0,0,0-13,13H266A13,13,0,0,0,252.92,129.9Z"/><path class="cls-13" d="M192.75,134.86a8.08,8.08,0,0,0-8.08,8.08h16.16A8.08,8.08,0,0,0,192.75,134.86Z"/><path class="cls-13" d="M220.35,123.41a19.52,19.52,0,0,0-19.52,19.52h39A19.52,19.52,0,0,0,220.35,123.41Z"/><path class="cls-13" d="M96.23,139.35A5.69,5.69,0,0,0,90.54,145h11.38A5.69,5.69,0,0,0,96.23,139.35Z"/><path class="cls-13" d="M80.12,134.62A10.42,10.42,0,0,0,69.69,145H90.54A10.42,10.42,0,0,0,80.12,134.62Z"/><path class="cls-13" d="M132.11,101.79a5.69,5.69,0,0,0-5.69,5.69H137.8A5.69,5.69,0,0,0,132.11,101.79Z"/><path class="cls-13" d="M116,97.06a10.42,10.42,0,0,0-10.42,10.42h20.85A10.42,10.42,0,0,0,116,97.06Z"/><path class="cls-13" d="M264.9,84.13a5.69,5.69,0,0,0-5.69,5.69h11.38A5.69,5.69,0,0,0,264.9,84.13Z"/><path class="cls-13" d="M248.78,79.39a10.42,10.42,0,0,0-10.42,10.42h20.85A10.42,10.42,0,0,0,248.78,79.39Z"/><path class="cls-13" d="M135.14,160.48a4.39,4.39,0,0,0-4.39,4.39h8.79A4.39,4.39,0,0,0,135.14,160.48Z"/><path class="cls-13" d="M122.71,156.83a8,8,0,0,0-8,8h16.09A8,8,0,0,0,122.71,156.83Z"/><path class="cls-13" d="M306.08,122.39a5.69,5.69,0,0,0-5.69,5.69h11.38A5.69,5.69,0,0,0,306.08,122.39Z"/><path class="cls-13" d="M290,117.66a10.42,10.42,0,0,0-10.42,10.42h20.85A10.42,10.42,0,0,0,290,117.66Z"/><path class="cls-13" d="M123.82,144.69h-.75v-.75a.36.36,0,0,0-.36-.36h0a.36.36,0,0,0-.36.36v.75h-.75a.36.36,0,1,0,0,.71h.75v.75a.36.36,0,0,0,.36.36h0a.36.36,0,0,0,.36-.36v-.75h.75a.36.36,0,0,0,0-.71Z"/><path class="cls-13" d="M142.12,153.62h-.75v-.75a.36.36,0,0,0-.36-.36h0a.36.36,0,0,0-.36.36v.75h-.75a.36.36,0,1,0,0,.71h.75v.75a.36.36,0,0,0,.36.36h0a.36.36,0,0,0,.36-.36v-.75h.75a.36.36,0,1,0,0-.71Z"/><path class="cls-13" d="M185.78,121.21H185v-.75a.36.36,0,0,0-.36-.36h0a.36.36,0,0,0-.36.36v.75h-.75a.36.36,0,0,0,0,.71h.75v.75a.36.36,0,0,0,.36.36h0a.36.36,0,0,0,.36-.36v-.75h.75a.36.36,0,0,0,0-.71Z"/><path class="cls-13" d="M203,125.08h-.75v-.75a.36.36,0,0,0-.36-.36h0a.36.36,0,0,0-.36.36v.75h-.75a.36.36,0,0,0,0,.71h.75v.75a.36.36,0,0,0,.36.36h0a.36.36,0,0,0,.36-.36v-.75H203a.36.36,0,0,0,0-.71Z"/><path class="cls-13" d="M258.58,119.74h-.75V119a.36.36,0,0,0-.36-.36h0a.36.36,0,0,0-.36.36v.75h-.75a.36.36,0,1,0,0,.71h.75v.75a.36.36,0,0,0,.36.36h0a.36.36,0,0,0,.36-.36v-.75h.75a.36.36,0,0,0,0-.71Z"/><path class="cls-13" d="M276.86,112.92h-.75v-.75a.36.36,0,0,0-.36-.36h0a.36.36,0,0,0-.36.36v.75h-.75a.36.36,0,0,0,0,.71h.75v.75a.36.36,0,0,0,.36.36h0a.36.36,0,0,0,.36-.36v-.75h.75a.36.36,0,1,0,0-.71Z"/><path class="cls-13" d="M246.31,98.17h-.75v-.75a.36.36,0,0,0-.36-.36h0a.36.36,0,0,0-.36.36v.75h-.75a.36.36,0,0,0,0,.71h.75v.75a.36.36,0,0,0,.36.36h0a.36.36,0,0,0,.36-.36v-.75h.75a.36.36,0,0,0,0-.71Z"/><path class="cls-13" d="M262.69,106.26h-.75v-.75a.36.36,0,0,0-.36-.36h0a.36.36,0,0,0-.36.36v.75h-.75a.36.36,0,0,0,0,.71h.75v.75a.36.36,0,0,0,.36.36h0a.36.36,0,0,0,.36-.36V107h.75a.36.36,0,1,0,0-.71Z"/><path class="cls-13" d="M299.2,104.79h-.75V104a.36.36,0,0,0-.36-.36h0a.36.36,0,0,0-.36.36v.75H297a.36.36,0,0,0,0,.71h.75v.75a.36.36,0,0,0,.36.36h0a.36.36,0,0,0,.36-.36v-.75h.75a.36.36,0,0,0,0-.71Z"/><path class="cls-13" d="M255.62,156.78h-.75V156a.36.36,0,0,0-.36-.36h0a.36.36,0,0,0-.36.36v.75h-.75a.36.36,0,1,0,0,.71h.75v.75a.36.36,0,0,0,.36.36h0a.36.36,0,0,0,.36-.36v-.75h.75a.36.36,0,0,0,0-.71Z"/><path class="cls-13" d="M272.74,152.15H272v-.75a.36.36,0,0,0-.36-.36h0a.36.36,0,0,0-.36.36v.75h-.75a.36.36,0,1,0,0,.71h.75v.75a.36.36,0,0,0,.36.36h0a.36.36,0,0,0,.36-.36v-.75h.75a.36.36,0,1,0,0-.71Z"/><path class="cls-13" d="M234.71,182.3H234v-.75a.36.36,0,0,0-.36-.36h0a.36.36,0,0,0-.36.36v.75h-.75a.36.36,0,0,0,0,.71h.75v.75a.36.36,0,0,0,.36.36h0a.36.36,0,0,0,.36-.36V183h.75a.36.36,0,0,0,0-.71Z"/><path class="cls-13" d="M283.91,171.14h-.75v-.75a.36.36,0,0,0-.36-.36h0a.36.36,0,0,0-.36.36v.75h-.75a.36.36,0,0,0,0,.71h.75v.75a.36.36,0,0,0,.36.36h0a.36.36,0,0,0,.36-.36v-.75h.75a.36.36,0,0,0,0-.71Z"/><path class="cls-13" d="M289.6,142.58h-.75v-.75a.36.36,0,0,0-.36-.36h0a.36.36,0,0,0-.36.36v.75h-.75a.36.36,0,0,0,0,.71h.75V144a.36.36,0,0,0,.36.36h0a.36.36,0,0,0,.36-.36v-.75h.75a.36.36,0,1,0,0-.71Z"/><path class="cls-13" d="M114.13,126.55h-.75v-.75a.36.36,0,0,0-.36-.36h0a.36.36,0,0,0-.36.36v.75h-.75a.36.36,0,1,0,0,.71h.75V128a.36.36,0,0,0,.36.36h0a.36.36,0,0,0,.36-.36v-.75h.75a.36.36,0,1,0,0-.71Z"/><path class="cls-13" d="M140.65,95.23h-.75v-.75a.36.36,0,0,0-.36-.36h0a.36.36,0,0,0-.36.36v.75h-.75a.36.36,0,0,0,0,.71h.75v.75a.36.36,0,0,0,.36.36h0a.36.36,0,0,0,.36-.36v-.75h.75a.36.36,0,0,0,0-.71Z"/><path class="cls-13" d="M91.12,117.31h-.75v-.75a.36.36,0,0,0-.36-.36h0a.36.36,0,0,0-.36.36v.75H88.9a.36.36,0,0,0,0,.71h.75v.75a.36.36,0,0,0,.36.36h0a.36.36,0,0,0,.36-.36V118h.75a.36.36,0,0,0,0-.71Z"/><path class="cls-13" d="M104,152.09h-.75v-.75a.36.36,0,0,0-.36-.36h0a.36.36,0,0,0-.36.36v.75h-.75a.36.36,0,0,0,0,.71h.75v.75a.36.36,0,0,0,.36.36h0a.36.36,0,0,0,.36-.36v-.75H104a.36.36,0,1,0,0-.71Z"/><path class="cls-13" d="M83.68,158.9h-.75v-.75a.36.36,0,0,0-.36-.36h0a.36.36,0,0,0-.36.36v.75h-.75a.36.36,0,1,0,0,.71h.75v.75a.36.36,0,0,0,.36.36h0a.36.36,0,0,0,.36-.36v-.75h.75a.36.36,0,0,0,0-.71Z"/><path class="cls-13" d="M135.94,176.54h-.75v-.75a.36.36,0,0,0-.36-.36h0a.36.36,0,0,0-.36.36v.75h-.75a.36.36,0,0,0,0,.71h.75V178a.36.36,0,0,0,.36.36h0a.36.36,0,0,0,.36-.36v-.75h.75a.36.36,0,1,0,0-.71Z"/></g></g></g></svg>