<svg xmlns="http://www.w3.org/2000/svg" xmlns:xlink="http://www.w3.org/1999/xlink" viewBox="0 0 17.27 20.32"><defs><style>.cls-1{fill:url(#New_Gradient_Swatch_copy_3);}</style><linearGradient id="New_Gradient_Swatch_copy_3" y1="10.16" x2="17.27" y2="10.16" gradientUnits="userSpaceOnUse"><stop offset="0" stop-color="#72b9a5"/><stop offset="1" stop-color="#259fd5"/></linearGradient></defs><title>Asset 64</title><g id="Layer_2" data-name="Layer 2"><g id="Layer_1-2" data-name="Layer 1"><g id="notifications-on"><path class="cls-1" d="M15.24,8.64a6.54,6.54,0,0,0-5.08-6.4V1.52a1.52,1.52,0,0,0-3,0v.71A6.54,6.54,0,0,0,2,8.64v5.59l-2,2v1H17.27v-1l-2-2ZM8.64,20.32H9a1.77,1.77,0,0,0,1.42-1.22,1.91,1.91,0,0,0,.2-.81H6.6A2,2,0,0,0,8.64,20.32Z"/></g></g></g></svg>