<svg xmlns="http://www.w3.org/2000/svg" viewBox="0 0 107.93 107.92"><defs><style>.cls-1{fill:#2a1000;}</style></defs><title>Asset 45</title><g id="Layer_2" data-name="Layer 2"><g id="Layer_1-2" data-name="Layer 1"><path class="cls-1" d="M24.53,29.43A4.9,4.9,0,1,0,21.06,28a4.93,4.93,0,0,0,3.47,1.44Z"/><path class="cls-1" d="M39.25,39.24H9.81V9.81H39.25V39.24ZM44.15,0H4.91A4.91,4.91,0,0,0,0,4.9V44.15a4.91,4.91,0,0,0,4.91,4.91H44.15a4.91,4.91,0,0,0,4.9-4.91V4.9A4.91,4.91,0,0,0,44.15,0Z"/><path class="cls-1" d="M83.4,29.43A4.91,4.91,0,1,0,79.93,28a4.94,4.94,0,0,0,3.47,1.44Z"/><path class="cls-1" d="M98.12,39.24H68.68V9.81H98.12V39.24ZM103,0H63.78a4.91,4.91,0,0,0-4.9,4.9V44.15a4.91,4.91,0,0,0,4.9,4.91H103a4.91,4.91,0,0,0,4.91-4.91V4.9A4.9,4.9,0,0,0,103,0Z"/><path class="cls-1" d="M24.53,88.3a4.89,4.89,0,1,0-3.47-1.43,5,5,0,0,0,3.47,1.43Z"/><path class="cls-1" d="M39.25,98.11H9.81V68.68H39.25V98.11Zm4.9-39.25H4.91A4.91,4.91,0,0,0,0,63.78V103a4.91,4.91,0,0,0,4.91,4.9H44.15a4.91,4.91,0,0,0,4.9-4.9V63.78a4.91,4.91,0,0,0-4.9-4.91Z"/><path class="cls-1" d="M86.67,88.3a4.9,4.9,0,1,0,0-9.81H83.4a4.9,4.9,0,1,0,0,9.81Z"/><path class="cls-1" d="M103,88.3a4.91,4.91,0,0,0-4.9,4.9v4.91H86.67a4.9,4.9,0,0,0,0,9.81H103a4.9,4.9,0,0,0,4.91-4.9V93.2A4.9,4.9,0,0,0,103,88.3Z"/><path class="cls-1" d="M63.78,78.49a4.9,4.9,0,0,0-4.9,4.9v6.54a4.9,4.9,0,1,0,9.8,0V83.39a4.9,4.9,0,0,0-4.9-4.9Z"/><path class="cls-1" d="M91.58,63.78a4.91,4.91,0,0,0-4.91-4.91H76.86a4.91,4.91,0,0,0,0,9.82h9.81a4.91,4.91,0,0,0,4.91-4.9Z"/></g></g></svg>