<svg xmlns="http://www.w3.org/2000/svg" viewBox="0 0 16.9 16.9"><defs><style>.cls-1{fill:#72b9a5;}</style></defs><title>Asset 33</title><g id="Layer_2" data-name="Layer 2"><g id="Layer_1-2" data-name="Layer 1"><path class="cls-1" d="M14.43,2.48a8.45,8.45,0,0,0-12,12,8.45,8.45,0,0,0,12-12Zm-6,12.29a6.32,6.32,0,1,1,6.32-6.32A6.33,6.33,0,0,1,8.45,14.77Z"/><path class="cls-1" d="M11.26,12.53a.75.75,0,0,1-1.06-.13L7.38,8.81a.75.75,0,0,1-.16-.46v-3a.75.75,0,0,1,1.51,0V8.08l2.66,3.39A.75.75,0,0,1,11.26,12.53Z"/></g></g></svg>