<svg xmlns="http://www.w3.org/2000/svg" xmlns:xlink="http://www.w3.org/1999/xlink" viewBox="0 0 25.88 25.88"><defs><style>.cls-1{fill:url(#New_Gradient_Swatch_copy_3);}.cls-2{fill:#5f5e5f;stroke-miterlimit:10;stroke-width:3px;stroke:url(#New_Gradient_Swatch_copy_3-2);}</style><linearGradient id="New_Gradient_Swatch_copy_3" x1="4.71" y1="12.9" x2="21.99" y2="12.9" gradientUnits="userSpaceOnUse"><stop offset="0" stop-color="#72b9a5"/><stop offset="1" stop-color="#259fd5"/></linearGradient><linearGradient id="New_Gradient_Swatch_copy_3-2" x1="0" y1="12.94" x2="25.88" y2="12.94" xlink:href="#New_Gradient_Swatch_copy_3"/></defs><title>Asset 61</title><g id="Layer_2" data-name="Layer 2"><g id="Layer_1-2" data-name="Layer 1"><g id="notifications-on"><path class="cls-1" d="M20,11.37A6.54,6.54,0,0,0,14.87,5V4.26a1.52,1.52,0,0,0-3,0V5a6.54,6.54,0,0,0-5.08,6.4V17l-2,2v1H22V19l-2-2Zm-6.6,11.68h.41a1.77,1.77,0,0,0,1.42-1.22,1.91,1.91,0,0,0,.2-.81H11.32A2,2,0,0,0,13.35,23.06Z"/></g><path class="cls-2" d="M1.06,24.82,24.82,1.06"/></g></g></svg>