<svg xmlns="http://www.w3.org/2000/svg" xmlns:xlink="http://www.w3.org/1999/xlink" viewBox="0 0 26.19 20"><defs><style>.cls-1{fill:url(#New_Gradient_Swatch_copy_3);}</style><linearGradient id="New_Gradient_Swatch_copy_3" y1="10" x2="26.19" y2="10" gradientUnits="userSpaceOnUse"><stop offset="0" stop-color="#72b9a5"/><stop offset="1" stop-color="#259fd5"/></linearGradient></defs><title>Asset 55</title><g id="Layer_2" data-name="Layer 2"><g id="Layer_1-2" data-name="Layer 1"><path class="cls-1" d="M16.94,9.23a4.54,4.54,0,0,0,4.63-4.62A4.53,4.53,0,0,0,16.94,0c-.46,0-.92.15-1.38.15a7.67,7.67,0,0,1,1.38,4.46,7.64,7.64,0,0,1-1.38,4.46c.47,0,.92.16,1.38.16Zm-7.7,0a4.54,4.54,0,0,0,4.63-4.62A4.53,4.53,0,0,0,9.24,0,4.53,4.53,0,0,0,4.62,4.61,4.53,4.53,0,0,0,9.24,9.23Zm10.17,3.38a5.89,5.89,0,0,1,2.16,4.31V20h4.62V16.93c0-2.3-3.69-3.85-6.78-4.31ZM9.24,12.31C6.16,12.31,0,13.85,0,16.93V20H18.48V16.93c0-3.08-6.16-4.62-9.25-4.62Zm0,0"/></g></g></svg>