<svg xmlns="http://www.w3.org/2000/svg" viewBox="0 0 34.67 20.13"><defs><style>.cls-1{fill:#bdbdbc;}</style></defs><title>Asset 60</title><g id="Layer_2" data-name="Layer 2"><g id="Layer_1-2" data-name="Layer 1"><path class="cls-1" d="M5.21,13.07l-3-3,3-3a.91.91,0,0,0,0-1.29L1.56,2.12A.91.91,0,0,0,.27,3.41l3,3-3,3a.91.91,0,0,0,0,1.29l3,3-3,3A.91.91,0,0,0,.27,18a.9.9,0,0,0,.64.27A.92.92,0,0,0,1.56,18l3.65-3.65A.91.91,0,0,0,5.21,13.07Z"/><path class="cls-1" d="M34.4,16.72l-3-3,3-3a.91.91,0,0,0,0-1.29l-3-3,3-3a.91.91,0,0,0-1.29-1.29L29.46,5.77a.91.91,0,0,0,0,1.29l3,3-3,3a.91.91,0,0,0,0,1.29L33.11,18a.9.9,0,0,0,.64.27.91.91,0,0,0,.65-1.56Z"/><g id="notifications-on"><path class="cls-1" d="M12.4,1.61,11,.2A10.61,10.61,0,0,0,6.77,8.05h2A8.32,8.32,0,0,1,12.4,1.61ZM25.89,8.05h2A10.51,10.51,0,0,0,23.77.2L22.36,1.61A8.51,8.51,0,0,1,25.89,8.05Zm-2,.5a6.48,6.48,0,0,0-5-6.34v-.7a1.51,1.51,0,1,0-3,0v.7a6.48,6.48,0,0,0-5,6.34v5.53l-2,2v1H25.89v-1l-2-2ZM17.33,20.13h.4a1.75,1.75,0,0,0,1.41-1.21,1.9,1.9,0,0,0,.2-.81h-4A2,2,0,0,0,17.33,20.13Z"/></g></g></g></svg>