<svg xmlns="http://www.w3.org/2000/svg" xmlns:xlink="http://www.w3.org/1999/xlink" viewBox="0 0 230 275.48"><defs><style>.cls-1{fill:none;clip-rule:evenodd;}.cls-2{fill:#bdbdbc;}.cls-2,.cls-4,.cls-42{fill-rule:evenodd;}.cls-3{clip-path:url(#clip-path);}.cls-4,.cls-5{fill:#b72e31;}.cls-6{fill:#b62e31;}.cls-7{fill:#b52d31;}.cls-8{fill:#b42d31;}.cls-9{fill:#b32d31;}.cls-10{fill:#b22c31;}.cls-11{fill:#b12c31;}.cls-12{fill:#b02c31;}.cls-13{fill:#af2b31;}.cls-14{fill:#ae2b31;}.cls-15{fill:#ad2b30;}.cls-16{fill:#ac2a30;}.cls-17{fill:#ab2a30;}.cls-18{fill:#aa2a30;}.cls-19{fill:#a92930;}.cls-20{fill:#a82930;}.cls-21{fill:#a72930;}.cls-22{fill:#a62830;}.cls-23{fill:#a52830;}.cls-24{fill:#a42830;}.cls-25{fill:#a32730;}.cls-26{fill:#a12730;}.cls-27{fill:#a02730;}.cls-28{fill:#9f2630;}.cls-29{fill:#9e2630;}.cls-30{fill:#9d2630;}.cls-31{fill:#9c2530;}.cls-32{fill:#9b2530;}.cls-33{fill:#9a252f;}.cls-34{fill:#99242f;}.cls-35{fill:#98242f;}.cls-36{fill:#97242f;}.cls-37{fill:#96232f;}.cls-38{fill:#95232f;}.cls-39{fill:#94232f;}.cls-40{fill:#93222f;}.cls-41,.cls-42{fill:#92222f;}.cls-43{fill:#fff;}</style><clipPath id="clip-path"><path class="cls-1" d="M225,45.11A40.17,40.17,0,1,1,184.89,5,40.17,40.17,0,0,1,225,45.11Z"/></clipPath></defs><title>Asset 4</title><g id="Layer_2" data-name="Layer 2"><g id="Layer_1-2" data-name="Layer 1"><path class="cls-2" d="M203.48,181.1H186.22V99.61a81.74,81.74,0,0,0-67.28-80.44,2.63,2.63,0,0,0,.27-1.39,14.82,14.82,0,0,0-29.63,0,5.47,5.47,0,0,1,0,1.39A81.74,81.74,0,0,0,22.35,99.61v81.5H5.49A5.45,5.45,0,0,0,0,186.54v29A5.47,5.47,0,0,0,5.49,221h198a5.45,5.45,0,0,0,5.42-5.44v-29a5.39,5.39,0,0,0-5.42-5.44ZM103.33,275.48c17.78,0,32.05-16.15,32.05-36.16H71.67c0,20,14.15,36.16,31.66,36.16Z"/><g class="cls-3"><path class="cls-4" d="M144.72,5V5Z"/><rect class="cls-5" x="144.72" y="4.95" width="2.17" height="80.34"/><rect class="cls-6" x="146.89" y="4.95" width="2.17" height="80.34"/><rect class="cls-7" x="149.06" y="4.95" width="2.17" height="80.34"/><rect class="cls-8" x="151.23" y="4.95" width="2.17" height="80.34"/><rect class="cls-9" x="153.4" y="4.95" width="2.17" height="80.34"/><rect class="cls-10" x="155.57" y="4.95" width="2.17" height="80.34"/><rect class="cls-11" x="157.74" y="4.95" width="2.17" height="80.34"/><rect class="cls-12" x="159.91" y="4.95" width="2.17" height="80.34"/><rect class="cls-13" x="162.09" y="4.95" width="2.17" height="80.34"/><rect class="cls-14" x="164.26" y="4.95" width="2.17" height="80.34"/><rect class="cls-15" x="166.43" y="4.95" width="2.17" height="80.34"/><rect class="cls-16" x="168.6" y="4.95" width="2.17" height="80.34"/><rect class="cls-17" x="170.77" y="4.95" width="2.17" height="80.34"/><rect class="cls-18" x="172.94" y="4.95" width="2.17" height="80.34"/><rect class="cls-19" x="175.11" y="4.95" width="2.17" height="80.34"/><rect class="cls-20" x="177.28" y="4.95" width="2.17" height="80.34"/><rect class="cls-21" x="179.45" y="4.95" width="2.17" height="80.34"/><rect class="cls-22" x="181.63" y="4.95" width="2.17" height="80.34"/><rect class="cls-23" x="183.8" y="4.95" width="2.17" height="80.34"/><rect class="cls-24" x="185.97" y="4.95" width="2.17" height="80.34"/><rect class="cls-25" x="188.14" y="4.95" width="2.17" height="80.34"/><rect class="cls-26" x="190.31" y="4.95" width="2.17" height="80.34"/><rect class="cls-27" x="192.48" y="4.95" width="2.17" height="80.34"/><rect class="cls-28" x="194.65" y="4.95" width="2.17" height="80.34"/><rect class="cls-29" x="196.82" y="4.95" width="2.17" height="80.34"/><rect class="cls-30" x="199" y="4.95" width="2.17" height="80.34"/><rect class="cls-31" x="201.17" y="4.95" width="2.17" height="80.34"/><rect class="cls-32" x="203.34" y="4.95" width="2.17" height="80.34"/><rect class="cls-33" x="205.51" y="4.95" width="2.17" height="80.34"/><rect class="cls-34" x="207.68" y="4.95" width="2.17" height="80.34"/><rect class="cls-35" x="209.85" y="4.95" width="2.17" height="80.34"/><rect class="cls-36" x="212.02" y="4.95" width="2.17" height="80.34"/><rect class="cls-37" x="214.19" y="4.95" width="2.17" height="80.34"/><rect class="cls-38" x="216.36" y="4.95" width="2.17" height="80.34"/><rect class="cls-39" x="218.54" y="4.95" width="2.17" height="80.34"/><rect class="cls-40" x="220.71" y="4.95" width="2.17" height="80.34"/><rect class="cls-41" x="222.88" y="4.95" width="2.17" height="80.34"/><path class="cls-42" d="M225,85.29v0Z"/></g><path class="cls-43" d="M184.89,90.24A45.12,45.12,0,1,1,230,45.11,45.18,45.18,0,0,1,184.89,90.24Zm0-80.34A35.22,35.22,0,1,0,220.1,45.11,35.26,35.26,0,0,0,184.89,9.9Z"/></g></g></svg>