<svg xmlns="http://www.w3.org/2000/svg" xmlns:xlink="http://www.w3.org/1999/xlink" viewBox="0 0 18 20"><defs><style>.cls-1{fill:url(#New_Gradient_Swatch_copy_3);}</style><linearGradient id="New_Gradient_Swatch_copy_3" y1="10" x2="18" y2="10" gradientUnits="userSpaceOnUse"><stop offset="0" stop-color="#72b9a5"/><stop offset="1" stop-color="#259fd5"/></linearGradient></defs><title>Asset 54</title><g id="Layer_2" data-name="Layer 2"><g id="Layer_1-2" data-name="Layer 1"><path class="cls-1" d="M16,2H11.82A3,3,0,0,0,6.18,2H2A2,2,0,0,0,0,4V18a2,2,0,0,0,2,2H16a2,2,0,0,0,2-2V4A2,2,0,0,0,16,2ZM9,2A1,1,0,1,1,8,3,1,1,0,0,1,9,2Zm2,14H4V14h7Zm3-4H4V10H14Zm0-4H4V6H14Z"/></g></g></svg>