<svg xmlns="http://www.w3.org/2000/svg" xmlns:xlink="http://www.w3.org/1999/xlink" viewBox="0 0 24.21 18"><defs><style>.cls-1{fill:url(#New_Gradient_Swatch_copy_3);}.cls-2{fill:url(#New_Gradient_Swatch_copy_3-2);}</style><linearGradient id="New_Gradient_Swatch_copy_3" y1="9" x2="17.6" y2="9" gradientUnits="userSpaceOnUse"><stop offset="0" stop-color="#72b9a5"/><stop offset="1" stop-color="#259fd5"/></linearGradient><linearGradient id="New_Gradient_Swatch_copy_3-2" x1="7.54" y1="9" x2="24.21" y2="9" xlink:href="#New_Gradient_Swatch_copy_3"/></defs><title>Asset 56</title><g id="Layer_2" data-name="Layer 2"><g id="Layer_1-2" data-name="Layer 1"><path class="cls-1" d="M3.76,10.1H16.5a1.1,1.1,0,0,0,0-2.2H3.76L5.18,6.48A1.1,1.1,0,1,0,3.62,4.92L.32,8.22.25,8.3l0,0,0,.07v0l0,.07v0l0,.08h0l0,.09H0l0,.09v.11A1,1,0,0,0,0,9a1,1,0,0,0,0,.11v.11l0,.09H0l0,.09h0l0,.08h0l0,.07v0l0,.07,0,0,.07.08,3.3,3.3a1.1,1.1,0,0,0,1.56-1.56Zm0,0"/><path class="cls-2" d="M15.21,0A9,9,0,0,0,7.73,4,1.1,1.1,0,1,0,9.56,5.21a6.8,6.8,0,1,1,0,7.59A1.1,1.1,0,1,0,7.74,14,9,9,0,1,0,15.21,0Zm0,0"/></g></g></svg>