<svg xmlns="http://www.w3.org/2000/svg" xmlns:xlink="http://www.w3.org/1999/xlink" viewBox="0 0 18 20"><defs><style>.cls-1{fill:url(#New_Gradient_Swatch_copy_3);}</style><linearGradient id="New_Gradient_Swatch_copy_3" y1="10" x2="18" y2="10" gradientUnits="userSpaceOnUse"><stop offset="0" stop-color="#72b9a5"/><stop offset="1" stop-color="#259fd5"/></linearGradient></defs><title>Asset 40</title><g id="Layer_2" data-name="Layer 2"><g id="Layer_1-2" data-name="Layer 1"><path class="cls-1" d="M6,9H4v2H6Zm4,0H8v2h2Zm4,0H12v2h2Zm2-7H15V0H13V2H5V0H3V2H2A2,2,0,0,0,0,4V18a2,2,0,0,0,2,2H16a2,2,0,0,0,2-2V4A2,2,0,0,0,16,2Zm0,16H2V7H16Z"/></g></g></svg>