<svg xmlns="http://www.w3.org/2000/svg" xmlns:xlink="http://www.w3.org/1999/xlink" viewBox="0 0 35.28 35.28"><defs><style>.cls-1{fill:url(#linear-gradient);}.cls-2{fill:url(#linear-gradient-3);}</style><linearGradient id="linear-gradient" x1="17.64" y1="249.17" x2="17.64" y2="214.27" gradientTransform="translate(0 -214)" gradientUnits="userSpaceOnUse"><stop offset="0" stop-color="#cd9946"/><stop offset="0.3" stop-color="#ad4d4e"/><stop offset="0.6" stop-color="#a51f72"/><stop offset="1" stop-color="#6229be"/></linearGradient><linearGradient id="linear-gradient-3" x1="26.78" y1="249.17" x2="26.78" y2="214.27" xlink:href="#linear-gradient"/></defs><title>Asset 80</title><g id="Layer_2" data-name="Layer 2"><g id="Layer_1-2" data-name="Layer 1"><path class="cls-1" d="M24.77,0H10.51A10.52,10.52,0,0,0,0,10.51V24.77A10.52,10.52,0,0,0,10.51,35.28H24.77A10.52,10.52,0,0,0,35.28,24.77V10.51A10.52,10.52,0,0,0,24.77,0Zm7,24.77a7,7,0,0,1-7,7H10.51a7,7,0,0,1-7-7V10.51a7,7,0,0,1,7-7H24.77a7,7,0,0,1,7,7V24.77Z"/><path class="cls-1" d="M17.64,8.51a9.12,9.12,0,1,0,9.12,9.12A9.13,9.13,0,0,0,17.64,8.51Zm0,14.7a5.57,5.57,0,1,1,5.57-5.57A5.57,5.57,0,0,1,17.64,23.21Z"/><circle class="cls-2" cx="26.78" cy="8.58" r="2.19"/></g></g></svg>