<svg xmlns="http://www.w3.org/2000/svg" xmlns:xlink="http://www.w3.org/1999/xlink" viewBox="0 0 22 21.79"><defs><style>.cls-1{fill:url(#New_Gradient_Swatch_copy_3);}.cls-2{fill:url(#New_Gradient_Swatch_copy_3-2);}.cls-3{fill:url(#New_Gradient_Swatch_copy_3-3);}.cls-4{fill:url(#New_Gradient_Swatch_copy_3-4);}.cls-5{fill:url(#New_Gradient_Swatch_copy_3-5);}.cls-6{fill:url(#New_Gradient_Swatch_copy_3-6);}.cls-7{fill:url(#New_Gradient_Swatch_copy_3-7);}</style><linearGradient id="New_Gradient_Swatch_copy_3" y1="10.9" x2="22" y2="10.9" gradientUnits="userSpaceOnUse"><stop offset="0" stop-color="#72b9a5"/><stop offset="1" stop-color="#259fd5"/></linearGradient><linearGradient id="New_Gradient_Swatch_copy_3-2" x1="11.92" y1="6.91" x2="17.27" y2="6.91" xlink:href="#New_Gradient_Swatch_copy_3"/><linearGradient id="New_Gradient_Swatch_copy_3-3" x1="10.44" y1="10.42" x2="15.77" y2="10.42" xlink:href="#New_Gradient_Swatch_copy_3"/><linearGradient id="New_Gradient_Swatch_copy_3-4" x1="9.06" y1="13.94" x2="14.39" y2="13.94" xlink:href="#New_Gradient_Swatch_copy_3"/><linearGradient id="New_Gradient_Swatch_copy_3-5" x1="9.1" y1="5.45" x2="10.97" y2="5.45" xlink:href="#New_Gradient_Swatch_copy_3"/><linearGradient id="New_Gradient_Swatch_copy_3-6" x1="7.77" y1="8.84" x2="9.64" y2="8.84" xlink:href="#New_Gradient_Swatch_copy_3"/><linearGradient id="New_Gradient_Swatch_copy_3-7" x1="6.36" y1="12.33" x2="8.23" y2="12.33" xlink:href="#New_Gradient_Swatch_copy_3"/></defs><title>Asset 51</title><g id="Layer_2" data-name="Layer 2"><g id="Layer_1-2" data-name="Layer 1"><path class="cls-1" d="M21.88,3.42a.85.85,0,0,0-.56-.4L8.86,0a.84.84,0,0,0-1,.54L3.15,12.62l1.59.58L9.24,1.73,20.07,4.49C19.39,6.59,17.78,11,16.24,15c-1.34,3.55-2.12,4.77-3.59,5h0c-3,.42-3-3.41-3-3.41L.09,12.76c-.68,4.32,2.64,5.36,2.64,5.36l7,3.19a5.45,5.45,0,0,0,2.29.47c3.22-.08,4.35-2.41,5.76-6.15,2-5.41,4.12-11.47,4.14-11.53A.83.83,0,0,0,21.88,3.42Z"/><path class="cls-2" d="M16.2,8.28a.84.84,0,1,0,.44-1.63L13,5.53a.84.84,0,1,0-.44,1.63Z"/><path class="cls-3" d="M10.49,9.5A.85.85,0,0,0,11,10.57l3.64,1.3a.84.84,0,0,0,.26,0,.84.84,0,0,0,.27-1.64L11.56,9A.85.85,0,0,0,10.49,9.5Z"/><path class="cls-4" d="M10.17,12.49a.84.84,0,1,0-.53,1.6l3.65,1.29a.81.81,0,0,0,.26,0,.84.84,0,0,0,.26-1.65Z"/><path class="cls-5" d="M10,4.54a.91.91,0,1,1-.94.91A.92.92,0,0,1,10,4.54Z"/><path class="cls-6" d="M8.71,7.93a.91.91,0,1,1-.94.91A.92.92,0,0,1,8.71,7.93Z"/><path class="cls-7" d="M7.3,11.42a.91.91,0,1,1-.94.91A.92.92,0,0,1,7.3,11.42Z"/></g></g></svg>