<svg xmlns="http://www.w3.org/2000/svg" xmlns:xlink="http://www.w3.org/1999/xlink" viewBox="0 0 16.6 20"><defs><style>.cls-1{fill:url(#New_Gradient_Swatch_copy_3);}.cls-2{fill:url(#New_Gradient_Swatch_copy_3-2);}.cls-3{fill:#fff;}</style><linearGradient id="New_Gradient_Swatch_copy_3" x1="0.24" y1="10.25" x2="16.85" y2="10.25" gradientUnits="userSpaceOnUse"><stop offset="0" stop-color="#72b9a5"/><stop offset="1" stop-color="#259fd5"/></linearGradient><linearGradient id="New_Gradient_Swatch_copy_3-2" x1="1.9" y1="10.17" x2="15.19" y2="10.17" xlink:href="#New_Gradient_Swatch_copy_3"/></defs><title>Asset 68</title><g id="Layer_2" data-name="Layer 2"><g id="Layer_1-2" data-name="Layer 1"><path class="cls-1" d="M16.85.25v16.3l-8.3,3.69L.24,16.56V.25ZM15.19,15.48V1.91H1.9V15.48l6.64,2.95Z" transform="translate(-0.24 -0.25)"/><path class="cls-2" d="M15.19,1.91V15.48L8.55,18.43,1.9,15.48V1.91ZM13.53,9.38V8.56H11.87v.82A3.32,3.32,0,1,1,8.55,6.06h.84V4.4H8.55a5,5,0,1,0,5,5ZM8.55,11,13,6.48,11.87,5.29,8.55,8.62,7.3,7.37,6.14,8.56Z" transform="translate(-0.24 -0.25)"/><path class="cls-3" d="M13.53,8.56v.82a5,5,0,1,1-5-5h.84V6.06H8.55a3.32,3.32,0,1,0,3.32,3.32V8.56Z" transform="translate(-0.24 -0.25)"/><polygon class="cls-3" points="12.8 6.22 8.3 10.71 5.89 8.3 7.06 7.12 8.3 8.36 11.62 5.04 12.8 6.22"/></g></g></svg>