<svg xmlns="http://www.w3.org/2000/svg" viewBox="0 0 32.22 32.22"><defs><style>.cls-1{fill:#73ac57;}.cls-2{fill:#f9f9f9;}</style></defs><title>Asset 78</title><g id="Layer_2" data-name="Layer 2"><g id="Layer_1-2" data-name="Layer 1"><path class="cls-1" d="M16.11,0h0a16.1,16.1,0,0,0-13,25.55l-2,6,6.19-2A16.11,16.11,0,1,0,16.11,0Z"/><path class="cls-2" d="M25.49,22.75A4.55,4.55,0,0,1,22.33,25c-.84.18-1.94.32-5.64-1.21-4.73-2-7.78-6.77-8-7.08a9.2,9.2,0,0,1-1.91-4.86A5.14,5.14,0,0,1,8.4,7.95,2.34,2.34,0,0,1,10,7.37l.54,0c.47,0,.71,0,1,.8.39.94,1.34,3.25,1.45,3.49a1,1,0,0,1,.07.87,2.78,2.78,0,0,1-.52.74c-.24.27-.46.48-.7.78s-.46.53-.19,1a14.3,14.3,0,0,0,2.61,3.25,11.84,11.84,0,0,0,3.78,2.33,1,1,0,0,0,1.14-.18,19.49,19.49,0,0,0,1.26-1.67.9.9,0,0,1,1.16-.35c.43.15,2.74,1.29,3.21,1.52s.79.35.9.55A4,4,0,0,1,25.49,22.75Z"/></g></g></svg>