<svg xmlns="http://www.w3.org/2000/svg" xmlns:xlink="http://www.w3.org/1999/xlink" viewBox="0 0 349.19 327.22"><defs><style>.cls-1,.cls-15,.cls-16,.cls-17,.cls-18,.cls-19,.cls-22,.cls-33,.cls-35,.cls-36,.cls-8,.cls-9{fill:none;}.cls-2{isolation:isolate;}.cls-3,.cls-54{fill:#2a1000;}.cls-3{opacity:0.05;}.cls-13,.cls-3{mix-blend-mode:multiply;}.cls-4,.cls-43{fill:#e9a67d;}.cls-5{fill:#44afac;}.cls-6{fill:#d15036;}.cls-7{fill:#fff;}.cls-22,.cls-8,.cls-9{stroke:#f0f0f1;stroke-linecap:round;stroke-linejoin:round;}.cls-8{stroke-width:5px;}.cls-36,.cls-9{stroke-width:3px;}.cls-10{fill:#363636;}.cls-11{fill:#4e4e4e;}.cls-12{fill:#7ab4f6;}.cls-13{fill:#e7ad47;}.cls-13,.cls-20{opacity:0.3;}.cls-14{fill:#f7f7f5;}.cls-15{stroke:#f7f7f5;stroke-width:0.77px;}.cls-15,.cls-16,.cls-17,.cls-18,.cls-19,.cls-33,.cls-35,.cls-36{stroke-miterlimit:10;}.cls-16,.cls-17,.cls-18,.cls-19{stroke:#fff;}.cls-17{stroke-dasharray:4.6 4.6;}.cls-18{stroke-dasharray:4.06 4.06;}.cls-19{stroke-dasharray:4.03 4.03;}.cls-20{fill:#bc663a;}.cls-21,.cls-37{fill:#f8f9fd;}.cls-22{stroke-width:2.5px;}.cls-23{fill:#909294;}.cls-24{clip-path:url(#clip-path);}.cls-25{fill:#edd7bb;}.cls-26{fill:#61aaea;}.cls-27{fill:#e1a299;}.cls-28{fill:#2e2f2f;}.cls-29,.cls-31{fill:#e2a283;}.cls-30,.cls-38{fill:#2c2c2e;}.cls-31,.cls-51{opacity:0.2;}.cls-32{fill:#f2f2f2;}.cls-32,.cls-44{opacity:0.1;}.cls-33{stroke:#2c2c2e;stroke-width:0.4px;}.cls-34{fill:#ced0d1;}.cls-35{stroke:#59595b;}.cls-36{stroke:#73bd72;}.cls-37{font-size:8.98px;font-family:Raleway-ExtraBold, Raleway;font-weight:700;letter-spacing:0.1em;}.cls-38{font-size:5.42px;font-family:Quicksand-Regular, Quicksand;letter-spacing:-0.01em;}.cls-39{fill:#616161;}.cls-40{clip-path:url(#clip-path-2);}.cls-41{fill:#edbc90;}.cls-42{fill:#e8cbb2;}.cls-43{opacity:0.4;}.cls-44,.cls-48{fill:#35393a;}.cls-45{fill:#e5a279;}.cls-46{fill:#cc7849;}.cls-47{fill:#eaa97c;}.cls-49{fill:#979797;}.cls-50{fill:#1a1a1a;}.cls-51{fill:#f0f0f0;}.cls-52{fill:#c7c6c6;}.cls-53{clip-path:url(#clip-path-3);}.cls-54{font-size:7px;font-family:Montserrat-Light, Montserrat;letter-spacing:0.12em;}.cls-55{letter-spacing:0.05em;}.cls-56{letter-spacing:0.12em;}</style><clipPath id="clip-path"><circle class="cls-1" cx="139.8" cy="98.26" r="18.3"/></clipPath><clipPath id="clip-path-2"><path class="cls-1" d="M270.32,261.67H60.23a7.43,7.43,0,0,1-7.6-7.24V128.1a7.43,7.43,0,0,1,7.6-7.24H270.32a7.43,7.43,0,0,1,7.6,7.24V254.43A7.43,7.43,0,0,1,270.32,261.67Z"/></clipPath><clipPath id="clip-path-3"><rect class="cls-1" x="187.83" y="223.68" width="7.65" height="14.81"/></clipPath></defs><title>Asset 21</title><g class="cls-2"><g id="Layer_2" data-name="Layer 2"><g id="Layer_1-2" data-name="Layer 1"><circle class="cls-3" cx="168.16" cy="165.19" r="160.49"/><path class="cls-4" d="M120.38,162.16c3.88-1.55,8.77-2.6,11.88.2,1.62,1.46,2.34,3.67,2.86,5.79a103.68,103.68,0,0,1,2.07,12.91c.73,6.36,1.38,12.8.56,19.15s-3.27,12.69-7.91,17.09a8.14,8.14,0,0,1-3.88,2.3,10,10,0,0,1-3.29-.09l-11.2-1.57a14.91,14.91,0,0,1-3.73-.85,12.24,12.24,0,0,1-4.31-3.44c-7.77-8.9-9.95-21.76-6.45-32.91C100.07,170.9,111.41,165.74,120.38,162.16Z"/><path class="cls-5" d="M316.73,85.65V186.82l-51.47,22.91L213.8,186.82V85.65Zm-10.29,94.5V95.94H224.09v84.2l41.17,18.27Z"/><path class="cls-6" d="M306.44,95.94v84.2l-41.17,18.27-41.17-18.27V95.94Zm-10.29,46.37v-5.19H285.85v5.19a20.59,20.59,0,1,1-20.59-20.59h5.19V111.43h-5.19a30.88,30.88,0,1,0,30.88,30.88Zm-30.88,9.83,27.91-27.82L285.85,117l-20.59,20.59-7.7-7.7-7.23,7.23Z"/><path class="cls-7" d="M296.15,137.11v5.19a30.88,30.88,0,1,1-30.88-30.88h5.19v10.29h-5.19a20.59,20.59,0,1,0,20.59,20.59v-5.19Z"/><polygon class="cls-7" points="293.18 124.31 265.27 152.13 250.34 137.11 257.57 129.88 265.27 137.58 285.85 116.99 293.18 124.31"/><line class="cls-8" x1="226.76" y1="324.72" x2="100.63" y2="324.72"/><circle class="cls-9" cx="236.08" cy="20.57" r="4.54"/><rect class="cls-10" x="46.55" y="101.73" width="244.73" height="122.83" rx="34.49" ry="34.49" transform="translate(332.06 -5.77) rotate(90)"/><rect class="cls-11" x="108.74" y="41.97" width="120.36" height="242.35" rx="31.94" ry="31.94"/><rect class="cls-12" x="114.55" y="59.76" width="108.74" height="199.23"/><rect class="cls-13" x="113.16" y="59.76" width="111.52" height="5.5"/><path class="cls-14" d="M121.42,64.76a1.44,1.44,0,1,1-1.19-1.15A1.41,1.41,0,0,1,121.42,64.76Z"/><path class="cls-14" d="M130.66,64.76a1.44,1.44,0,1,1-1.19-1.15A1.41,1.41,0,0,1,130.66,64.76Z"/><path class="cls-14" d="M126,64.76a1.44,1.44,0,1,1-1.19-1.15A1.41,1.41,0,0,1,126,64.76Z"/><path class="cls-15" d="M139.9,64.76a1.44,1.44,0,1,1-1.19-1.15A1.41,1.41,0,0,1,139.9,64.76Z"/><path class="cls-15" d="M135.28,64.76a1.44,1.44,0,1,1-1.19-1.15A1.41,1.41,0,0,1,135.28,64.76Z"/><path class="cls-14" d="M211.37,67.16a.48.48,0,0,1-.5-.44V63.24a.48.48,0,0,1,.5-.44h8.41a.48.48,0,0,1,.5.44V64h.65v2h-.65v.71a.48.48,0,0,1-.5.44Zm8.56-4.05h-8.71v3.74h8.71Zm-8.38,3.39v-3h6.34v3Z"/><line class="cls-16" x1="300.97" y1="171.28" x2="303.04" y2="171.28"/><line class="cls-17" x1="307.63" y1="171.28" x2="323.72" y2="171.28"/><polyline class="cls-16" points="326.02 171.28 328.08 171.28 328.08 169.22"/><line class="cls-18" x1="328.08" y1="165.15" x2="328.08" y2="4.6"/><polyline class="cls-16" points="328.08 2.56 328.08 0.5 326.02 0.5"/><line class="cls-19" x1="321.99" y1="0.5" x2="170.99" y2="0.5"/><line class="cls-16" x1="168.98" y1="0.5" x2="166.91" y2="0.5"/><circle class="cls-7" cx="300.21" cy="171.45" r="4.84"/><polyline class="cls-20" points="113.04 176.7 108.36 178.72 113.04 178.05 113.04 176.06"/><rect class="cls-21" x="114.98" y="59.63" width="107.76" height="200.19"/><line class="cls-8" x1="223.29" y1="37.92" x2="145.57" y2="37.92"/><circle class="cls-22" cx="42.49" cy="293.2" r="3.71"/><circle class="cls-23" cx="139.76" cy="97.98" r="18.58"/><g class="cls-24"><path class="cls-25" d="M142.33,107.15l1.5.33a7,7,0,0,1,5.44,6.79v2.22a.75.75,0,0,1-.75.75H131.22a.75.75,0,0,1-.75-.75v-2.22a7,7,0,0,1,5.44-6.79l1.25-.28h.06l1.67-.23h2.31l1.08.17Z"/><path class="cls-26" d="M145.21,107.79l-2.9-.65-.73-.11,0,1.81h0v-.14s0,.09,0,.14h0a1.7,1.7,0,0,1-3.39-.14h0v-1.62l-1,.13-2.66.59a5.17,5.17,0,0,0-1.83.8v8.64h14.41v-8.59A5.17,5.17,0,0,0,145.21,107.79Z"/><path class="cls-26" d="M132.7,113.81h-2.23a5.51,5.51,0,0,1,2.23-5.22Z"/><path class="cls-26" d="M147.14,113.81h2.23a5.51,5.51,0,0,0-2.23-5.22Z"/><path class="cls-25" d="M141.58,107l0,1.86v-.14a1.7,1.7,0,0,1-3.4,0h0V106l.42-.39h.28l1.66-.36.49.1.57.2"/><path class="cls-27" d="M140.52,105.25l-1.66.36h-.28l-.42.39v1.3a3.16,3.16,0,0,0,3.41,0v-1.79l-.57-.2Z"/><path class="cls-25" d="M139.88,106.6h0a6.79,6.79,0,0,1-6.79-6.79V92.26a6.79,6.79,0,0,1,6.79-6.79h0a6.79,6.79,0,0,1,6.79,6.79v7.56A6.79,6.79,0,0,1,139.88,106.6Z"/><circle class="cls-28" cx="142.95" cy="95.56" r="0.71"/><circle class="cls-28" cx="137" cy="95.56" r="0.71"/><path class="cls-29" d="M140,102.41a4.49,4.49,0,0,1-2.44-.71.15.15,0,0,1,0-.21.16.16,0,0,1,.22,0,4.26,4.26,0,0,0,4.56,0,.16.16,0,0,1,.22,0,.15.15,0,0,1,0,.21A4.49,4.49,0,0,1,140,102.41Z"/><path class="cls-29" d="M139.24,104.88a.15.15,0,0,1-.07-.29,1.67,1.67,0,0,1,.73-.16,1.7,1.7,0,0,1,.68.14.15.15,0,1,1-.12.28,1.39,1.39,0,0,0-.56-.11,1.37,1.37,0,0,0-.6.13Z"/><path class="cls-27" d="M146.67,95.4h0A1.31,1.31,0,0,1,148,96.71v.76a1.31,1.31,0,0,1-1.31,1.31h0"/><path class="cls-27" d="M133.09,95.4h0a1.31,1.31,0,0,0-1.31,1.31v.76a1.31,1.31,0,0,0,1.31,1.31h0"/><path class="cls-27" d="M139.8,95.89l-.53,2.17A.76.76,0,0,0,140,99h0a.76.76,0,0,0,.74-.94l-.53-2.17A.21.21,0,0,0,139.8,95.89Z"/><path class="cls-30" d="M138,93.74a.3.3,0,0,1-.19-.07c-1-.78-1.56-.07-1.58,0a.3.3,0,0,1-.47-.38,1.65,1.65,0,0,1,2.43,0,.3.3,0,0,1-.19.54Z"/><path class="cls-30" d="M141.9,93.74a.3.3,0,0,1-.19-.54,1.65,1.65,0,0,1,2.43,0,.3.3,0,0,1-.47.38c-.06-.08-.65-.71-1.58,0A.3.3,0,0,1,141.9,93.74Z"/><path class="cls-25" d="M143.07,104.66q0,.1,0,.19"/><rect class="cls-27" x="147.14" y="113.81" width="0.85" height="3.42"/><rect class="cls-27" x="131.85" y="113.81" width="0.85" height="3.42"/><path class="cls-31" d="M139.91,106.6h0a6.79,6.79,0,0,0,6.79-6.79V95l0,0s-.39,6.71-5.62,8.74a3.24,3.24,0,0,1-2.34,0c-5.23-2-5.62-8.74-5.62-8.74l0,0v4.83a6.79,6.79,0,0,0,6.79,6.79h0"/><path class="cls-30" d="M146.12,86.83c-1-2.27-3.25-4.2-8.42-3.33a3.74,3.74,0,0,0-2.15,1.57c-1.52.19-3.53,1.71-2.47,9.57,0,0,1.14-8.84,4.1-5.59h0c1,1.1,3.5,3.07,9.45,3.21.08,1.29,0,2.38,0,2.38C148.52,88.7,147,87.21,146.12,86.83Z"/><path class="cls-32" d="M140.35,89.89a5.27,5.27,0,0,1-2.14-1.83,2.32,2.32,0,0,0-2.24-1l0,.24a2,2,0,0,1,2,.89,5.51,5.51,0,0,0,2.24,1.91,19.43,19.43,0,0,0,7.17,1.44l0-.25A19.21,19.21,0,0,1,140.35,89.89Z"/><path class="cls-32" d="M147.51,89.19c-5.95-.12-7.24-1.44-7.52-2l0-.05a3.46,3.46,0,0,0-4-1.37L136,86a3.2,3.2,0,0,1,3.71,1.28v0c.63,1.33,3.37,2.09,7.77,2.17Q147.52,89.31,147.51,89.19Z"/></g><circle class="cls-33" cx="142.86" cy="95.68" r="1.73"/><line class="cls-33" x1="144.51" y1="95.15" x2="146.64" y2="95.15"/><circle class="cls-33" cx="136.84" cy="95.68" r="1.73"/><line class="cls-33" x1="135.19" y1="95.15" x2="133.09" y2="95.15"/><line class="cls-33" x1="138.49" y1="95.53" x2="141.22" y2="95.53"/><rect class="cls-34" x="166.91" y="85.89" width="46.88" height="5.67"/><rect class="cls-34" x="166.91" y="98.04" width="46.88" height="5.67"/><rect class="cls-34" x="166.91" y="110.19" width="46.88" height="5.67"/><rect class="cls-34" x="142.86" y="128.49" width="70.93" height="5.67"/><rect class="cls-34" x="142.86" y="146.8" width="70.93" height="5.67"/><rect class="cls-34" x="142.86" y="165.11" width="70.93" height="5.67"/><rect class="cls-34" x="142.86" y="183.42" width="70.93" height="5.67"/><rect class="cls-35" x="124.91" y="127.08" width="7.87" height="7.02"/><rect class="cls-35" x="124.91" y="146.13" width="7.87" height="7.02"/><rect class="cls-35" x="124.91" y="165.19" width="7.87" height="7.02"/><rect class="cls-35" x="124.91" y="184.24" width="7.87" height="7.02"/><polyline class="cls-36" points="123.66 123.92 128.84 130.59 141.22 121.5"/><polyline class="cls-36" points="123.66 143.05 128.84 149.72 141.22 140.63"/><polyline class="cls-36" points="123.66 162.18 128.84 168.85 141.22 159.76"/><polyline class="cls-36" points="123.66 181.31 128.84 187.98 141.22 178.89"/><polygon class="cls-6" points="302.35 233.88 349.19 251.04 336.66 265.19 302.35 233.88"/><polygon class="cls-6" points="285.81 244.25 297.1 266.21 285.81 267.79 285.81 244.25"/><polygon class="cls-21" points="36.71 246.9 7.93 272.74 0 262.75 36.71 246.9"/><polygon class="cls-21" points="34.33 240.95 6.51 247.73 5.16 235.66 34.33 240.95"/><path class="cls-6" d="M90.95,185.17h-53a14.38,14.38,0,0,1-14.38-14.38h0a14.38,14.38,0,0,1,14.38-14.38h53a14.38,14.38,0,0,1,14.38,14.38h0A14.38,14.38,0,0,1,90.95,185.17Z"/><text class="cls-37" transform="translate(51.53 173.59)">Book</text><text class="cls-38" transform="translate(156.51 66) scale(1.04 1)">12:05 PM</text><path class="cls-30" d="M119.23,63.65A1.48,1.48,0,1,1,118,62.47,1.45,1.45,0,0,1,119.23,63.65Z"/><path class="cls-30" d="M128.75,63.65a1.48,1.48,0,1,1-1.23-1.18A1.45,1.45,0,0,1,128.75,63.65Z"/><path class="cls-30" d="M124,63.65a1.48,1.48,0,1,1-1.23-1.18A1.45,1.45,0,0,1,124,63.65Z"/><path class="cls-30" d="M138.26,63.65A1.48,1.48,0,1,1,137,62.47,1.45,1.45,0,0,1,138.26,63.65Z"/><path class="cls-30" d="M133.51,63.65a1.48,1.48,0,1,1-1.23-1.18A1.45,1.45,0,0,1,133.51,63.65Z"/><path class="cls-30" d="M211.85,66.12a.49.49,0,0,1-.52-.46V62.08a.49.49,0,0,1,.52-.46h8.66a.49.49,0,0,1,.52.46v.74h.67v2.11H221v.73a.49.49,0,0,1-.52.46ZM220.66,62h-9V65.8h9ZM212,65.44V62.31h6.53v3.13Z"/><circle class="cls-39" cx="170.69" cy="272.74" r="6.96"/><g class="cls-40"><path class="cls-41" d="M113.44,211c-1.73-1.28-2.24-3.36-2.35-5.58-1.26,5.69-4.95,5.47-5.85,6l-.14.1a.52.52,0,0,1,.14-.1c5.45-3.76,5.92-10.36,6-11.28a35.15,35.15,0,0,0-5.89-19.69c-2.56-3.82-6.27-8-3.07-12.64A13.34,13.34,0,0,1,105.5,165a16.39,16.39,0,0,0,5.9-7.88c.5-1.51,1.67-9.86-1.5-9.3a3.52,3.52,0,0,0-1.39.72A101.42,101.42,0,0,1,98,155.17c-3.17,1.74-5.27,2.28-6.48,5.85-3.94,11.64-8.26,22.72-5.88,35.22,1.49,7.85-3,16.22-7.2,23a12.1,12.1,0,0,0-1.76,3.62c6,7.12,12.37,14.3,20,19.67,2.81-3.89,5.66-7.81,9.28-11,3.23-2.8,3.48-4.34,7.21-6.43V218.3Z"/><path class="cls-42" d="M101.48,158.5a.49.49,0,0,0,.22.22.51.51,0,0,0,.39-.08,35.44,35.44,0,0,0,3.67-2.15,6.49,6.49,0,0,0,1.45-1.22,5.25,5.25,0,0,0,1-2.46,9.81,9.81,0,0,0-.13-4q-3.89,2.77-8,5.17A9.73,9.73,0,0,0,101.48,158.5Z"/><path class="cls-4" d="M99.18,159.6c-.62-.48-.82-2.5-.91-3.23a10.41,10.41,0,0,1-.08-1.28l-.14.08-.61.33A5.07,5.07,0,0,0,99.18,159.6Z"/><path class="cls-4" d="M97.43,159.6c-.62-.48-.82-2.5-.91-3.23,0-.12,0-.25,0-.37l-.75.4A4.85,4.85,0,0,0,97.43,159.6Z"/><path class="cls-43" d="M92.11,200.19c-.15-7.38-4.24-14-5.6-21.11l-.2-1a44,44,0,0,0-.63,18.19c1.49,7.85-3,16.22-7.2,23a12.1,12.1,0,0,0-1.76,3.62q1.46,1.72,3,3.45c1.11-1.34,2.12-2.77,3.11-4.18C87.43,215.53,92.28,208.29,92.11,200.19Z"/><path class="cls-4" d="M97.56,168.5a23.29,23.29,0,0,0,4.92-1,6.65,6.65,0,0,1,.71-.74,9.54,9.54,0,0,0-.94.36A16.36,16.36,0,0,1,97,168.57Z"/><path class="cls-4" d="M97.75,241.14q.82-1.12,1.66-2.23a19.91,19.91,0,0,0-1.6-1.7c-4.34-4.07-9-8.11-12.53-12.93l9.61,13.08C95.82,238.64,96.76,239.91,97.75,241.14Z"/><path class="cls-21" d="M74.8,214.19s8.61,18.18,24.61,30.08c.25.7-2.83,5.25-2.83,5.25s-20.37-12.62-27.37-31C69.9,216.62,74.8,214.19,74.8,214.19Z"/><path class="cls-11" d="M67.8,214.19S71,233.65,104.21,251c-1.37-.93-35,45.27-35,45.27l-51.71-41Z"/><path class="cls-44" d="M88.47,241.14h-2.7L37.86,271.4,69.2,296.28s33.64-46.2,35-45.27a110.4,110.4,0,0,1-15.74-9.86Z"/><circle class="cls-6" cx="91.02" cy="253.18" r="3.67"/><rect class="cls-1" x="166.11" y="136.91" width="84.14" height="119.59"/><path class="cls-45" d="M223.59,164.55a18.54,18.54,0,0,1,2.17,4.05q1.75,4.08,3.28,8.24a40.08,40.08,0,0,1,2.46,9.11,45.44,45.44,0,0,1,.16,6.13l-.52,26.9a18.54,18.54,0,0,1-2.85-5.5,221.72,221.72,0,0,1-8.93-29.81,80.79,80.79,0,0,0-2.56-9.82c-.77-2.14-1.76-4.2-2.74-6.25-1.52-3.17-3-6.38-4.58-9.51,2.2-.81,4.67,1,6.73,1.74C219,160.86,221.73,162.13,223.59,164.55Z"/><path class="cls-46" d="M184.83,166.7a5.37,5.37,0,0,0,1.75,1c1.44.34,2.79-1,4.12-1.31a13.49,13.49,0,0,1,2.61-.3l6.19-.3a1.67,1.67,0,0,1,.82.1,1.75,1.75,0,0,1,.61.63,18.67,18.67,0,0,0,2.76,3.18,2.77,2.77,0,0,1,.87,1.11A3,3,0,0,1,204,173a9.73,9.73,0,0,0-.93,5.73,2.1,2.1,0,0,1,0,.94,2.13,2.13,0,0,1-.78.9,9.09,9.09,0,0,0-3.26,7.21,19,19,0,0,0,8.44-1.48,10.12,10.12,0,0,0,3.93-2.71,9.21,9.21,0,0,0,1.89-5,27.47,27.47,0,0,0-.22-5.46,14.61,14.61,0,0,0-1.13-4.94,9.68,9.68,0,0,0-3.35-3.63,17.91,17.91,0,0,0-6.29-2.56c-3.91-.84-8.19-1.34-11.92.27l-5.88,2.54a.92.92,0,0,0-.46.33C183.73,165.55,184.2,166.18,184.83,166.7Z"/><path class="cls-45" d="M205.71,179.38a10.61,10.61,0,0,1,.06-2.91,9.07,9.07,0,0,1,2-2.91,1.09,1.09,0,0,0,.29-.62,1.16,1.16,0,0,0-.19-.56c-2-3.6-1.93-7.19-6.39-8.51s-10.09-.49-14.82-.38c-1.54,0-3.36-.22-3.72-2.12a.62.62,0,0,1,0-.36.65.65,0,0,1,.27-.27,9.41,9.41,0,0,1,2.58-.84c2.4-.65,4.58-1.64,7-2.11l11.48-2.2a2.91,2.91,0,0,1,3.12.8l6.3,5.17c1.5,1.23,3.05,2.54,3.75,4.35a11.66,11.66,0,0,1,.37,4.87,164.08,164.08,0,0,0-.07,18.54c.09,1.78.17,4-1.08,5.45-2.35,2.71-9.14.41-11.7-1.07-3.47-2-4.64-5.44-2.14-8.76,1.15-1.52,2.61-3,2.84-4.87A5.33,5.33,0,0,0,205.71,179.38Z"/><path class="cls-41" d="M232.25,206.18c-.69-7.13-1.06-14-2.41-21,0-.12.19,1.66.22,1.54a10.51,10.51,0,0,0-1.35-6.81c-1.09-2.09-2.55-4-3.71-6-2.74-4.85-3.75-10.54-6.58-15.34a7.41,7.41,0,0,0-2.7-2.92,8.8,8.8,0,0,0-3.08-.77L202,153.5a39.25,39.25,0,0,0-7-.46c-3.65.2-7,1.2-10.51.3-.73-.19-1.44.56-1.48,1.32a3.15,3.15,0,0,0,.87,2,11.18,11.18,0,0,0,6.93,4c2,.3,4,.06,6,.38a20.51,20.51,0,0,1,5,1.72q4.34,1.94,8.6,4c.92.45,2,1.06,2.1,2.08a3.68,3.68,0,0,1-1,2.49,14.94,14.94,0,0,0-2.19,12.47c.62,2.24-2.1,3-4,3.34-2.07.35-3.31-1-4.4-2.74-1.94-3.14-2.7-6.84-3.81-10.35a5,5,0,0,0-.24-.72,30.53,30.53,0,0,0-2.48-5.21,21.8,21.8,0,0,0-1.81-2.63,5.09,5.09,0,0,0-5.68-1.57,5.27,5.27,0,0,0-2.77,2.67c-1.29,2.58-.53,5.08-.07,7.76q.4,2.37.79,4.73a34.84,34.84,0,0,0,2.73,9.56,85.83,85.83,0,0,1,5,14.54c1.47,5.26,4.87,10.38,7.79,14.92,6.13,9.52,13.44,18.36,18.19,28.71a90.43,90.43,0,0,1,5.67,17.48c.57,2.5,1.47,15,3.86,15.76,1.09.33,3.79-2,4.85-2.38a67.81,67.81,0,0,1,9.16-2.23c1.89-.42,17.1-4.56,17.93-3.33C247.17,253.07,234.5,229.42,232.25,206.18Z"/><path class="cls-42" d="M184.12,170.18s-.47-7,7.13-3.55a22.44,22.44,0,0,1,1.79,6.55c-.2-.39-3.1,2.56-7.09,2.87C185.84,176.21,184.12,170.18,184.12,170.18Z"/><path class="cls-42" d="M185.85,155a11.29,11.29,0,0,0,5.15.38l-.41-1.84a17.32,17.32,0,0,1-5.45,0,2.79,2.79,0,0,0,.4,1.34A.72.72,0,0,0,185.85,155Z"/><path class="cls-47" d="M192.69,156.06a16.17,16.17,0,0,1-.08-2.78l-.43.05A14.71,14.71,0,0,0,192.69,156.06Z"/><path class="cls-47" d="M194.07,155.07a7.62,7.62,0,0,1,.11-2l-.36,0c0,.08,0,.15,0,.23A12,12,0,0,0,194.07,155.07Z"/><path class="cls-47" d="M195.83,160.94l1.06-.74a8.23,8.23,0,0,0,1.66-1.41c-.76.92-2.55,1.6-3.67,2.09Z"/><path class="cls-47" d="M206,164.67a27.17,27.17,0,0,0,2.56-1,9.28,9.28,0,0,1-3.19.68Z"/><path class="cls-47" d="M214.16,159.16a12.08,12.08,0,0,1,.12-4.06l-.67-.12C213.31,156.49,213.94,157.72,214.16,159.16Z"/><path class="cls-45" d="M201.87,185.77a33.67,33.67,0,0,1,.53,8.55,43.43,43.43,0,0,0,.22-7.81A5.38,5.38,0,0,1,201.87,185.77Z"/><path class="cls-47" d="M218.68,169.77a30.2,30.2,0,0,1-6.6-1.82,1.86,1.86,0,0,1,.47,1,1.78,1.78,0,0,1,0,.63A13.9,13.9,0,0,0,218.68,169.77Z"/><path class="cls-47" d="M194.66,174.41a19.47,19.47,0,0,1-7.84,3.24,14.36,14.36,0,0,1,3.24-1.55A15.39,15.39,0,0,0,194.66,174.41Z"/><path class="cls-47" d="M187.47,178.85a8,8,0,0,0,3.95,0,6.23,6.23,0,0,0,3.26-2.11c-1,.55-2.07.81-3.08,1.27A12.54,12.54,0,0,1,187.47,178.85Z"/><path class="cls-21" d="M206.92,232.71v4.74s28.51-6.67,32.71-13.17c-.47.27-2.8-3.7-2.8-3.7S234,227.34,206.92,232.71Z"/><path class="cls-11" d="M245,219.42s-13.09,14-44.35,19.25c-.11.35,14.73,53.21,14.73,53.21s57.27-20.65,56.92-21.18S245,219.42,245,219.42Z"/><path class="cls-44" d="M244.79,281.19c-5.68-15.34-18.5-49.85-18.85-49.33-3.32,1.85-10.87,3.77-16.85,5.1-2.65.64-5.46,1.22-8.44,1.72-.11.35,14.73,53.21,14.73,53.21S230.25,286.51,244.79,281.19Z"/><path class="cls-48" d="M172.47,152.39s32.89,13.82,63.78,36.85c.2.53,1.2,3.19-3.41,4.43C232.64,193.85,182.3,162.67,172.47,152.39Z"/><path class="cls-49" d="M172.47,152.39s2.83,2.74,5.42,4.74c0,0,1.94.17,1.59-1.57Z"/><path class="cls-50" d="M172.47,152.39l2.34,2.16s.93,0,.83-.77C175.59,153.8,172.47,152.39,172.47,152.39Z"/><path class="cls-50" d="M219.81,177.88a10.53,10.53,0,0,1-3.84,5.34l.5.32a11.07,11.07,0,0,0,3.88-5.32Z"/><path class="cls-51" d="M182,157.54s26.57,13.46,35.7,20.73c0,.27-.9,1.24-.9,1.24Z"/><path class="cls-51" d="M220.34,181.59l14.1,10a1.49,1.49,0,0,0,1-1.86c.08-.07-14.74-9.43-14.74-9.43Z"/><circle class="cls-6" cx="213.14" cy="246.23" r="3.67"/></g><path class="cls-48" d="M245,219.42s-5,.26-7.44,2.35c-.13-.21,2.07,2.51,2.07,2.51Z"/><path class="cls-48" d="M200.65,238.67s1.26-3.43,6.27-4.24v3Z"/><path class="cls-48" d="M67.8,214.19a3.71,3.71,0,0,1,3.54,2.08,7,7,0,0,0-2.14,2.26A21.87,21.87,0,0,1,67.8,214.19Z"/><path class="cls-48" d="M99.16,245.18s5.21,3.28,5,5.83c0,0-5.19-2.84-6.41-3.58A22.33,22.33,0,0,0,99.16,245.18Z"/><polygon class="cls-6" points="131.37 224.04 133.66 228.68 138.79 229.43 135.08 233.04 135.96 238.15 131.37 235.74 126.78 238.15 127.66 233.04 123.95 229.43 129.08 228.68 131.37 224.04"/><polygon class="cls-6" points="147.4 224.04 149.69 228.68 154.82 229.43 151.11 233.04 151.99 238.15 147.4 235.74 142.81 238.15 143.69 233.04 139.98 229.43 145.11 228.68 147.4 224.04"/><polygon class="cls-6" points="163.43 224.04 165.72 228.68 170.85 229.43 167.14 233.04 168.01 238.15 163.43 235.74 158.84 238.15 159.72 233.04 156.01 229.43 161.14 228.68 163.43 224.04"/><polygon class="cls-6" points="179.46 224.04 181.75 228.68 186.88 229.43 183.17 233.04 184.04 238.15 179.46 235.74 174.87 238.15 175.75 233.04 172.04 229.43 177.17 228.68 179.46 224.04"/><polygon class="cls-52" points="195.49 224.03 197.78 228.67 202.9 229.42 199.2 233.04 200.07 238.14 195.49 235.73 190.9 238.14 191.78 233.04 188.07 229.42 193.2 228.67 195.49 224.03"/><g class="cls-53"><polygon class="cls-6" points="195.49 224.04 197.78 228.68 202.9 229.43 199.2 233.04 200.07 238.15 195.49 235.74 190.9 238.15 191.78 233.04 188.07 229.43 193.2 228.68 195.49 224.04"/></g><text class="cls-54" transform="translate(123.19 218.53)">R<tspan class="cls-55" x="5.9" y="0">A</tspan><tspan class="cls-56" x="11.31" y="0">TINGS (4265)</tspan></text></g></g></g></svg>