<svg xmlns="http://www.w3.org/2000/svg" viewBox="0 0 25.35 12.49"><defs><style>.cls-1{fill:#d15036;}.cls-2,.cls-3{fill:#fff;}.cls-3{font-size:7.08px;font-family:Montserrat-Light, Montserrat;}</style></defs><title>Asset 25</title><g id="Layer_2" data-name="Layer 2"><g id="Layer_1-2" data-name="Layer 1"><rect class="cls-1" width="25.35" height="12.49" rx="0.58" ry="0.58"/><path class="cls-2" d="M6.61,2.83,7.3,4.15a.56.56,0,0,0,.42.29l1.54.21a.52.52,0,0,1,.31.9l-1.11,1A.51.51,0,0,0,8.3,7l.26,1.45A.55.55,0,0,1,7.75,9L6.37,8.36a.59.59,0,0,0-.52,0L4.48,9a.55.55,0,0,1-.81-.56L3.93,7a.51.51,0,0,0-.16-.47l-1.11-1A.52.52,0,0,1,3,4.65l1.54-.21a.56.56,0,0,0,.42-.29l.69-1.32A.57.57,0,0,1,6.61,2.83Z"/><text class="cls-3" transform="translate(12.81 8.47) scale(1.06 1)">4.5</text></g></g></svg>