<svg xmlns="http://www.w3.org/2000/svg" viewBox="0 0 12.87 15.52"><defs><style>.cls-1{fill:#44afac;}.cls-2{fill:#d15036;}.cls-3{fill:#fff;}</style></defs><title>Asset 26</title><g id="Layer_2" data-name="Layer 2"><g id="Layer_1-2" data-name="Layer 1"><path class="cls-1" d="M13.13.25V12.9L6.69,15.77.26,12.9V.25ZM11.84,12.07V1.54H1.54V12.07l5.14,2.3Z" transform="translate(-0.26 -0.25)"/><path class="cls-2" d="M11.84,1.54V12.07l-5.15,2.3-5.14-2.3V1.54ZM10.55,7.33V6.69H9.26v.64A2.57,2.57,0,1,1,6.69,4.75h.65V3.47H6.69a3.87,3.87,0,1,0,3.87,3.87ZM6.69,8.57l3.49-3.49-.92-.91L6.69,6.75l-1-1-.91.92Z" transform="translate(-0.26 -0.25)"/><path class="cls-3" d="M10.55,6.69v.64A3.86,3.86,0,1,1,6.69,3.47h.65V4.75H6.69A2.58,2.58,0,1,0,9.26,7.33V6.69Z" transform="translate(-0.26 -0.25)"/><polygon class="cls-3" points="9.93 4.83 6.43 8.32 4.56 6.44 5.47 5.53 6.43 6.5 9.01 3.92 9.93 4.83"/></g></g></svg>