<svg xmlns="http://www.w3.org/2000/svg" viewBox="0 0 19.98 19.98"><defs><style>.cls-1{opacity:0.3;}.cls-2{fill:#72b9a5;}</style></defs><title>Asset 71</title><g id="Layer_2" data-name="Layer 2"><g id="Layer_1-2" data-name="Layer 1"><g class="cls-1"><g id="mood"><path class="cls-2" d="M10,0A10,10,0,1,0,20,10,10,10,0,0,0,10,0Zm3.5,6A1.54,1.54,0,0,1,15,7.49a1.5,1.5,0,1,1-3,0A1.54,1.54,0,0,1,13.48,6Zm-7,0A1.54,1.54,0,0,1,8,7.49,1.54,1.54,0,0,1,6.49,9,1.54,1.54,0,0,1,5,7.49,1.54,1.54,0,0,1,6.49,6ZM10,16a6,6,0,0,1-5.59-4H15.58A6,6,0,0,1,10,16Z"/></g></g></g></g></svg>