<svg xmlns="http://www.w3.org/2000/svg" viewBox="0 0 23.17 22.07"><defs><style>.cls-1{fill:#bdbdbc;}</style></defs><title>Asset 58</title><g id="Layer_2" data-name="Layer 2"><g id="Layer_1-2" data-name="Layer 1"><g id="notifications-on"><path class="cls-1" d="M6.18,1.77,4.63.22A11.64,11.64,0,0,0,0,8.83H2.21A9.12,9.12,0,0,1,6.18,1.77ZM21,8.83h2.21A11.53,11.53,0,0,0,18.65.22L17.1,1.77A9.33,9.33,0,0,1,21,8.83Zm-2.21.55a7.1,7.1,0,0,0-5.52-7V1.66a1.66,1.66,0,1,0-3.31,0v.77a7.1,7.1,0,0,0-5.52,7v6.07L2.21,17.66v1.1H21v-1.1l-2.21-2.21ZM11.59,22.07H12a1.92,1.92,0,0,0,1.54-1.32,2.08,2.08,0,0,0,.22-.88H9.38A2.21,2.21,0,0,0,11.59,22.07Z"/></g></g></g></svg>