<svg xmlns="http://www.w3.org/2000/svg" viewBox="0 0 334.22 338.03"><defs><style>.cls-1{isolation:isolate;}.cls-2{fill:#2a1000;opacity:0.05;}.cls-115,.cls-120,.cls-123,.cls-124,.cls-128,.cls-2,.cls-3{mix-blend-mode:multiply;}.cls-119,.cls-120,.cls-127,.cls-128,.cls-3{opacity:0.3;}.cls-121,.cls-127,.cls-129,.cls-133,.cls-4{fill:#fff;}.cls-5{fill:#fbfbfb;}.cls-6{fill:#f9f9f9;}.cls-7{fill:#f6f6f6;}.cls-8{fill:#f4f4f4;}.cls-9{fill:#f1f1f1;}.cls-10{fill:#efefef;}.cls-11{fill:#ebebeb;}.cls-12{fill:#e9e9e9;}.cls-13{fill:#e6e6e6;}.cls-14{fill:#e4e4e4;}.cls-15{fill:#e1e1e1;}.cls-16{fill:#dfdfdf;}.cls-17{fill:#dcdcdc;}.cls-18{fill:#dadada;}.cls-19{fill:#d7d7d7;}.cls-20{fill:#d5d5d5;}.cls-21{fill:#d2d2d2;}.cls-22{fill:#d0d0d0;}.cls-23{fill:#cdcdcd;}.cls-24{fill:#cbcbcb;}.cls-25{fill:#c8c8c8;}.cls-26{fill:#c5c5c5;}.cls-27{fill:#c3c3c3;}.cls-28{fill:silver;}.cls-29{fill:#bebebe;}.cls-30{fill:#bbb;}.cls-31{fill:#b9b9b9;}.cls-32{fill:#b6b6b6;}.cls-33{fill:#b4b4b4;}.cls-34{fill:#b0b0b0;}.cls-35{fill:#aeaeae;}.cls-36{fill:#ababab;}.cls-37{fill:#a9a9a9;}.cls-38{fill:#a6a6a6;}.cls-39{fill:#a4a4a4;}.cls-40{fill:#a2a2a2;}.cls-41{fill:#a0a0a0;}.cls-42{fill:#9d9d9d;}.cls-43{fill:#9b9b9b;}.cls-44{fill:#989898;}.cls-45{fill:#959595;}.cls-46{fill:#939393;}.cls-47{fill:#909090;}.cls-48{fill:#8e8e8e;}.cls-49{fill:#8b8b8b;}.cls-50{fill:#898989;}.cls-51{fill:#868686;}.cls-52{fill:#848484;}.cls-53{fill:#818181;}.cls-54{fill:gray;}.cls-55{fill:#7d7d7d;}.cls-56{fill:#7b7b7b;}.cls-57{fill:#787878;}.cls-58{fill:#767676;}.cls-59{fill:#737373;}.cls-60{fill:#717171;}.cls-61{fill:#6f6f6f;}.cls-62{fill:#6d6d6d;}.cls-63{fill:#6a6a6a;}.cls-64{fill:#686868;}.cls-65{fill:#656565;}.cls-66{fill:#626262;}.cls-67{fill:#606060;}.cls-68{fill:#5d5d5d;}.cls-69{fill:#5b5b5b;}.cls-70{fill:#595959;}.cls-71{fill:#575757;}.cls-72{fill:#545454;}.cls-73{fill:#525252;}.cls-74{fill:#4f4f4f;}.cls-75{fill:#4d4d4d;}.cls-76{fill:#4a4a4a;}.cls-77{fill:#494949;}.cls-78{fill:#464646;}.cls-79{fill:#444;}.cls-80{fill:#414141;}.cls-81{fill:#3f3f3f;}.cls-82{fill:#3d3d3d;}.cls-83{fill:#3b3b3b;}.cls-84{fill:#383838;}.cls-85{fill:#353535;}.cls-86{fill:#333;}.cls-87{fill:#313131;}.cls-88{fill:#2f2f2f;}.cls-89{fill:#2c2c2c;}.cls-90{fill:#2a2a2a;}.cls-91{fill:#282828;}.cls-92{fill:#262626;}.cls-93{fill:#232323;}.cls-94{fill:#222;}.cls-95{fill:#1f1f1f;}.cls-96{fill:#1d1d1d;}.cls-97{fill:#1b1b1b;}.cls-98{fill:#191919;}.cls-99{fill:#161616;}.cls-100{fill:#151515;}.cls-101{fill:#121212;}.cls-102{fill:#111;}.cls-103{fill:#0d0d0d;}.cls-104{fill:#0b0b0b;}.cls-105,.cls-106,.cls-107,.cls-108,.cls-109,.cls-110,.cls-111,.cls-122,.cls-135{fill:none;}.cls-105,.cls-106,.cls-107,.cls-108{stroke:#fff;}.cls-105,.cls-106,.cls-107,.cls-108,.cls-122,.cls-135{stroke-miterlimit:10;}.cls-106{stroke-dasharray:4.6 4.6;}.cls-107{stroke-dasharray:4.06 4.06;}.cls-108{stroke-dasharray:4.03 4.03;}.cls-109,.cls-110,.cls-111{stroke:#f0f0f1;stroke-linecap:round;stroke-linejoin:round;}.cls-109{stroke-width:5px;}.cls-110{stroke-width:2.5px;}.cls-111{stroke-width:3px;}.cls-112{fill:#d15036;}.cls-113{fill:#f8f9fd;}.cls-114,.cls-129{font-size:12.68px;font-family:OpenSans-Bold, Open Sans;font-weight:700;}.cls-114,.cls-115{fill:#202020;}.cls-115{opacity:0.1;}.cls-116{fill:#363636;}.cls-117{fill:#4e4e4e;}.cls-118{fill:#7ab4f6;}.cls-119,.cls-121,.cls-127{mix-blend-mode:screen;}.cls-120{fill:#e7ad47;}.cls-121{opacity:0.2;}.cls-122{stroke:#4e4e4e;stroke-width:2.56px;}.cls-123{fill:#da0100;}.cls-123,.cls-124{opacity:0.5;}.cls-124{fill:#a52b31;}.cls-125{fill:#9dc44d;}.cls-126,.cls-128{fill:#66a8de;}.cls-130{fill:#e4af88;}.cls-131{fill:#eecca6;}.cls-132{fill:#f5dcc1;}.cls-133{font-size:5.42px;font-family:Quicksand-Regular, Quicksand;letter-spacing:-0.01em;}.cls-134{fill:#f7f7f5;}.cls-135{stroke:#f7f7f5;stroke-width:0.77px;}</style></defs><title>Asset 22</title><g class="cls-1"><g id="Layer_2" data-name="Layer 2"><g id="Layer_1-2" data-name="Layer 1"><circle class="cls-2" cx="173.73" cy="171" r="160.49"/><g class="cls-3"><polygon class="cls-4" points="264.89 86.96 264.89 207.8 144.05 207.8 144.05 207.94 265.03 207.94 265.03 86.96 264.89 86.96"/><polygon class="cls-5" points="264.89 86.96 264.89 86.82 264.75 86.82 264.75 207.66 143.91 207.66 143.91 207.8 144.05 207.8 264.89 207.8 264.89 86.96"/><polygon class="cls-6" points="264.75 207.66 264.75 86.82 264.75 86.68 264.61 86.68 264.61 207.52 143.77 207.52 143.77 207.66 143.91 207.66 264.75 207.66"/><polygon class="cls-7" points="264.61 207.52 264.61 86.68 264.61 86.54 264.47 86.54 264.47 207.38 143.63 207.38 143.63 207.52 143.77 207.52 264.61 207.52"/><polygon class="cls-8" points="264.47 207.38 264.47 86.54 264.47 86.4 264.33 86.4 264.33 207.24 143.49 207.24 143.49 207.38 143.63 207.38 264.47 207.38"/><polygon class="cls-9" points="264.33 207.24 264.33 86.4 264.33 86.26 264.19 86.26 264.19 207.1 143.35 207.1 143.35 207.24 143.49 207.24 264.33 207.24"/><polygon class="cls-10" points="264.19 207.1 264.19 86.26 264.19 86.12 264.05 86.12 264.05 206.96 143.21 206.96 143.21 207.1 143.35 207.1 264.19 207.1"/><polygon class="cls-11" points="264.05 206.96 264.05 86.12 264.05 85.98 263.91 85.98 263.91 206.82 143.07 206.82 143.07 206.96 143.21 206.96 264.05 206.96"/><polygon class="cls-12" points="263.91 206.82 263.91 85.98 263.91 85.84 263.77 85.84 263.77 206.68 142.93 206.68 142.93 206.82 143.07 206.82 263.91 206.82"/><polygon class="cls-13" points="263.77 206.68 263.77 85.84 263.77 85.7 263.63 85.7 263.63 206.54 142.79 206.54 142.79 206.68 142.93 206.68 263.77 206.68"/><polygon class="cls-14" points="263.63 206.54 263.63 85.7 263.63 85.56 263.49 85.56 263.49 206.4 142.65 206.4 142.65 206.54 142.79 206.54 263.63 206.54"/><polygon class="cls-15" points="263.49 206.4 263.49 85.56 263.49 85.42 263.35 85.42 263.35 206.26 142.51 206.26 142.51 206.4 142.65 206.4 263.49 206.4"/><polygon class="cls-16" points="263.35 206.26 263.35 85.42 263.35 85.28 263.21 85.28 263.21 206.12 142.37 206.12 142.37 206.26 142.51 206.26 263.35 206.26"/><polygon class="cls-17" points="263.21 206.12 263.21 85.28 263.21 85.14 263.07 85.14 263.07 205.98 142.23 205.98 142.23 206.12 142.37 206.12 263.21 206.12"/><polygon class="cls-18" points="263.07 205.98 263.07 85.14 263.07 85 262.93 85 262.93 205.84 142.09 205.84 142.09 205.98 142.23 205.98 263.07 205.98"/><polygon class="cls-19" points="262.93 205.84 262.93 85 262.93 84.86 262.79 84.86 262.79 205.7 141.95 205.7 141.95 205.84 142.09 205.84 262.93 205.84"/><polygon class="cls-20" points="262.79 205.7 262.79 84.86 262.79 84.72 262.65 84.72 262.65 205.56 141.81 205.56 141.81 205.7 141.95 205.7 262.79 205.7"/><polygon class="cls-21" points="262.65 205.56 262.65 84.72 262.65 84.58 262.51 84.58 262.51 205.42 141.67 205.42 141.67 205.56 141.81 205.56 262.65 205.56"/><polygon class="cls-22" points="262.51 205.42 262.51 84.58 262.51 84.44 262.37 84.44 262.37 205.28 141.53 205.28 141.53 205.42 141.67 205.42 262.51 205.42"/><polygon class="cls-23" points="262.37 205.28 262.37 84.44 262.37 84.3 262.23 84.3 262.23 205.14 141.4 205.14 141.4 205.28 141.53 205.28 262.37 205.28"/><polygon class="cls-24" points="262.23 205.14 262.23 84.3 262.23 84.16 262.09 84.16 262.09 205 141.25 205 141.25 205.14 141.4 205.14 262.23 205.14"/><polygon class="cls-25" points="262.09 205 262.09 84.16 262.09 84.02 261.95 84.02 261.95 204.86 141.12 204.86 141.12 205 141.25 205 262.09 205"/><polygon class="cls-26" points="261.95 204.86 261.95 84.02 261.95 83.88 261.81 83.88 261.81 204.72 140.97 204.72 140.97 204.86 141.12 204.86 261.95 204.86"/><polygon class="cls-27" points="261.81 204.72 261.81 83.88 261.81 83.74 261.68 83.74 261.68 204.58 140.84 204.58 140.84 204.72 140.97 204.72 261.81 204.72"/><polygon class="cls-28" points="261.68 204.58 261.68 83.74 261.68 83.6 261.54 83.6 261.54 204.44 140.69 204.44 140.69 204.58 140.84 204.58 261.68 204.58"/><polygon class="cls-29" points="261.54 204.44 261.54 83.6 261.54 83.46 261.39 83.46 261.39 204.3 140.56 204.3 140.56 204.44 140.69 204.44 261.54 204.44"/><polygon class="cls-30" points="261.39 204.3 261.39 83.46 261.39 83.32 261.25 83.32 261.25 204.16 140.41 204.16 140.41 204.3 140.56 204.3 261.39 204.3"/><polygon class="cls-31" points="261.25 204.16 261.25 83.32 261.25 83.18 261.12 83.18 261.12 204.02 140.28 204.02 140.28 204.16 140.41 204.16 261.25 204.16"/><polygon class="cls-32" points="261.12 204.02 261.12 83.18 261.12 83.04 260.98 83.04 260.98 203.88 140.13 203.88 140.13 204.02 140.28 204.02 261.12 204.02"/><polygon class="cls-33" points="260.98 203.88 260.98 83.04 260.98 82.9 260.83 82.9 260.83 203.74 140 203.74 140 203.88 140.13 203.88 260.98 203.88"/><polygon class="cls-34" points="260.83 203.74 260.83 82.9 260.83 82.76 260.69 82.76 260.69 203.6 139.86 203.6 139.86 203.74 140 203.74 260.83 203.74"/><polygon class="cls-35" points="260.69 203.6 260.69 82.76 260.69 82.62 260.56 82.62 260.56 203.46 139.72 203.46 139.72 203.6 139.86 203.6 260.69 203.6"/><polygon class="cls-36" points="260.56 203.46 260.56 82.62 260.56 82.48 260.42 82.48 260.42 203.32 139.58 203.32 139.58 203.46 139.72 203.46 260.56 203.46"/><polygon class="cls-37" points="260.42 203.32 260.42 82.48 260.42 82.34 260.27 82.34 260.27 203.18 139.44 203.18 139.44 203.32 139.58 203.32 260.42 203.32"/><polygon class="cls-38" points="260.27 203.18 260.27 82.34 260.27 82.2 260.14 82.2 260.14 203.04 139.3 203.04 139.3 203.18 139.44 203.18 260.27 203.18"/><polygon class="cls-39" points="260.14 203.04 260.14 82.2 260.14 82.06 260 82.06 260 202.9 139.16 202.9 139.16 203.04 139.3 203.04 260.14 203.04"/><polygon class="cls-40" points="260 202.9 260 82.06 260 81.92 259.86 81.92 259.86 202.76 139.02 202.76 139.02 202.9 139.16 202.9 260 202.9"/><polygon class="cls-41" points="259.86 202.76 259.86 81.92 259.86 81.78 259.72 81.78 259.72 202.62 138.88 202.62 138.88 202.76 139.02 202.76 259.86 202.76"/><polygon class="cls-42" points="259.72 202.62 259.72 81.78 259.72 81.64 259.58 81.64 259.58 202.49 138.74 202.49 138.74 202.62 138.88 202.62 259.72 202.62"/><polygon class="cls-43" points="259.58 202.49 259.58 81.64 259.58 81.5 259.44 81.5 259.44 202.34 138.6 202.34 138.6 202.49 138.74 202.49 259.58 202.49"/><polygon class="cls-44" points="259.44 202.34 259.44 81.5 259.44 81.36 259.3 81.36 259.3 202.21 138.46 202.21 138.46 202.34 138.6 202.34 259.44 202.34"/><polygon class="cls-45" points="259.3 202.21 259.3 81.36 259.3 81.22 259.16 81.22 259.16 202.06 138.32 202.06 138.32 202.21 138.46 202.21 259.3 202.21"/><polygon class="cls-46" points="259.16 202.06 259.16 81.22 259.16 81.08 259.02 81.08 259.02 201.93 138.18 201.93 138.18 202.06 138.32 202.06 259.16 202.06"/><polygon class="cls-47" points="259.02 201.93 259.02 81.08 259.02 80.95 258.88 80.95 258.88 201.78 138.04 201.78 138.04 201.93 138.18 201.93 259.02 201.93"/><polygon class="cls-48" points="258.88 201.78 258.88 80.95 258.88 80.81 258.74 80.81 258.74 201.65 137.9 201.65 137.9 201.78 138.04 201.78 258.88 201.78"/><polygon class="cls-49" points="258.74 201.65 258.74 80.81 258.74 80.67 258.6 80.67 258.6 201.5 137.76 201.5 137.76 201.65 137.9 201.65 258.74 201.65"/><polygon class="cls-50" points="258.6 201.5 258.6 80.67 258.6 80.53 258.46 80.53 258.46 201.37 137.62 201.37 137.62 201.5 137.76 201.5 258.6 201.5"/><polygon class="cls-51" points="258.46 201.37 258.46 80.53 258.46 80.39 258.32 80.39 258.32 201.22 137.48 201.22 137.48 201.37 137.62 201.37 258.46 201.37"/><polygon class="cls-52" points="258.32 201.22 258.32 80.39 258.32 80.25 258.18 80.25 258.18 201.09 137.34 201.09 137.34 201.22 137.48 201.22 258.32 201.22"/><polygon class="cls-53" points="258.18 201.09 258.18 80.25 258.18 80.11 258.04 80.11 258.04 200.95 137.2 200.95 137.2 201.09 137.34 201.09 258.18 201.09"/><polygon class="cls-54" points="258.04 200.95 258.04 80.11 258.04 79.97 257.9 79.97 257.9 200.81 137.06 200.81 137.06 200.95 137.2 200.95 258.04 200.95"/><polygon class="cls-55" points="257.9 200.81 257.9 79.97 257.9 79.83 257.76 79.83 257.76 200.67 136.92 200.67 136.92 200.81 137.06 200.81 257.9 200.81"/><polygon class="cls-56" points="257.76 200.67 257.76 79.83 257.76 79.69 257.62 79.69 257.62 200.53 136.78 200.53 136.78 200.67 136.92 200.67 257.76 200.67"/><polygon class="cls-57" points="257.62 200.53 257.62 79.69 257.62 79.55 257.48 79.55 257.48 200.39 136.64 200.39 136.64 200.53 136.78 200.53 257.62 200.53"/><polygon class="cls-58" points="257.48 200.39 257.48 79.55 257.48 79.41 257.34 79.41 257.34 200.25 136.5 200.25 136.5 200.39 136.64 200.39 257.48 200.39"/><polygon class="cls-59" points="257.34 200.25 257.34 79.41 257.34 79.27 257.2 79.27 257.2 200.11 136.36 200.11 136.36 200.25 136.5 200.25 257.34 200.25"/><polygon class="cls-60" points="257.2 200.11 257.2 79.27 257.2 79.13 257.06 79.13 257.06 199.97 136.22 199.97 136.22 200.11 136.36 200.11 257.2 200.11"/><polygon class="cls-61" points="257.06 199.97 257.06 79.13 257.06 78.99 256.92 78.99 256.92 199.83 136.08 199.83 136.08 199.97 136.22 199.97 257.06 199.97"/><polygon class="cls-62" points="256.92 199.83 256.92 78.99 256.92 78.85 256.78 78.85 256.78 199.69 135.94 199.69 135.94 199.83 136.08 199.83 256.92 199.83"/><polygon class="cls-63" points="256.78 199.69 256.78 78.85 256.78 78.71 256.64 78.71 256.64 199.55 135.8 199.55 135.8 199.69 135.94 199.69 256.78 199.69"/><polygon class="cls-64" points="256.64 199.55 256.64 78.71 256.64 78.57 256.5 78.57 256.5 199.41 135.66 199.41 135.66 199.55 135.8 199.55 256.64 199.55"/><polygon class="cls-65" points="256.5 199.41 256.5 78.57 256.5 78.43 256.36 78.43 256.36 199.27 135.52 199.27 135.52 199.41 135.66 199.41 256.5 199.41"/><polygon class="cls-66" points="256.36 199.27 256.36 78.43 256.36 78.29 256.22 78.29 256.22 199.13 135.38 199.13 135.38 199.27 135.52 199.27 256.36 199.27"/><polygon class="cls-67" points="256.22 199.13 256.22 78.29 256.22 78.15 256.08 78.15 256.08 198.99 135.24 198.99 135.24 199.13 135.38 199.13 256.22 199.13"/><polygon class="cls-68" points="256.08 198.99 256.08 78.15 256.08 78.01 255.94 78.01 255.94 198.85 135.1 198.85 135.1 198.99 135.24 198.99 256.08 198.99"/><polygon class="cls-69" points="255.94 198.85 255.94 78.01 255.94 77.87 255.8 77.87 255.8 198.71 134.96 198.71 134.96 198.85 135.1 198.85 255.94 198.85"/><polygon class="cls-70" points="255.8 198.71 255.8 77.87 255.8 77.73 255.66 77.73 255.66 198.57 134.82 198.57 134.82 198.71 134.96 198.71 255.8 198.71"/><polygon class="cls-71" points="255.66 198.57 255.66 77.73 255.66 77.59 255.52 77.59 255.52 198.43 134.68 198.43 134.68 198.57 134.82 198.57 255.66 198.57"/><polygon class="cls-72" points="255.52 198.43 255.52 77.59 255.52 77.45 255.38 77.45 255.38 198.29 134.54 198.29 134.54 198.43 134.68 198.43 255.52 198.43"/><polygon class="cls-73" points="255.38 198.29 255.38 77.45 255.38 77.31 255.24 77.31 255.24 198.15 134.4 198.15 134.4 198.29 134.54 198.29 255.38 198.29"/><polygon class="cls-74" points="255.24 198.15 255.24 77.31 255.24 77.17 255.1 77.17 255.1 198.01 134.26 198.01 134.26 198.15 134.4 198.15 255.24 198.15"/><polygon class="cls-75" points="255.1 198.01 255.1 77.17 255.1 77.03 254.96 77.03 254.96 197.87 134.12 197.87 134.12 198.01 134.26 198.01 255.1 198.01"/><polygon class="cls-76" points="254.96 197.87 254.96 77.03 254.96 76.89 254.82 76.89 254.82 197.73 133.98 197.73 133.98 197.87 134.12 197.87 254.96 197.87"/><polygon class="cls-77" points="254.82 197.73 254.82 76.89 254.82 76.75 254.68 76.75 254.68 197.59 133.84 197.59 133.84 197.73 133.98 197.73 254.82 197.73"/><polygon class="cls-78" points="254.68 197.59 254.68 76.75 254.68 76.61 254.54 76.61 254.54 197.45 133.7 197.45 133.7 197.59 133.84 197.59 254.68 197.59"/><polygon class="cls-79" points="254.54 197.45 254.54 76.61 254.54 76.47 254.4 76.47 254.4 197.31 133.56 197.31 133.56 197.45 133.7 197.45 254.54 197.45"/><polygon class="cls-80" points="254.4 197.31 254.4 76.47 254.4 76.33 254.26 76.33 254.26 197.17 133.42 197.17 133.42 197.31 133.56 197.31 254.4 197.31"/><polygon class="cls-81" points="254.26 197.17 254.26 76.33 254.26 76.19 254.12 76.19 254.12 197.03 133.28 197.03 133.28 197.17 133.42 197.17 254.26 197.17"/><polygon class="cls-82" points="254.12 197.03 254.12 76.19 254.12 76.05 253.98 76.05 253.98 196.89 133.14 196.89 133.14 197.03 133.28 197.03 254.12 197.03"/><polygon class="cls-83" points="253.98 196.89 253.98 76.05 253.98 75.91 253.84 75.91 253.84 196.75 133 196.75 133 196.89 133.14 196.89 253.98 196.89"/><polygon class="cls-84" points="253.84 196.75 253.84 75.91 253.84 75.77 253.7 75.77 253.7 196.61 132.86 196.61 132.86 196.75 133 196.75 253.84 196.75"/><polygon class="cls-85" points="253.7 196.61 253.7 75.77 253.7 75.63 253.56 75.63 253.56 196.47 132.72 196.47 132.72 196.61 132.86 196.61 253.7 196.61"/><polygon class="cls-86" points="253.56 196.47 253.56 75.63 253.56 75.49 253.42 75.49 253.42 196.33 132.58 196.33 132.58 196.47 132.72 196.47 253.56 196.47"/><polygon class="cls-87" points="253.42 196.33 253.42 75.49 253.42 75.35 253.28 75.35 253.28 196.19 132.44 196.19 132.44 196.33 132.58 196.33 253.42 196.33"/><polygon class="cls-88" points="253.28 196.19 253.28 75.35 253.28 75.21 253.14 75.21 253.14 196.05 132.3 196.05 132.3 196.19 132.44 196.19 253.28 196.19"/><polygon class="cls-89" points="253.14 196.05 253.14 75.21 253.14 75.07 253 75.07 253 195.91 132.16 195.91 132.16 196.05 132.3 196.05 253.14 196.05"/><polygon class="cls-90" points="253 195.91 253 75.07 253 74.93 252.86 74.93 252.86 195.77 132.02 195.77 132.02 195.91 132.16 195.91 253 195.91"/><polygon class="cls-91" points="252.86 195.77 252.86 74.93 252.86 74.79 252.72 74.79 252.72 195.63 131.88 195.63 131.88 195.77 132.02 195.77 252.86 195.77"/><polygon class="cls-92" points="252.72 195.63 252.72 74.79 252.72 74.65 252.58 74.65 252.58 195.49 131.74 195.49 131.74 195.63 131.88 195.63 252.72 195.63"/><polygon class="cls-93" points="252.58 195.49 252.58 74.65 252.58 74.51 252.44 74.51 252.44 195.35 131.6 195.35 131.6 195.49 131.74 195.49 252.58 195.49"/><polygon class="cls-94" points="252.44 195.35 252.44 74.51 252.44 74.37 252.3 74.37 252.3 195.21 131.46 195.21 131.46 195.35 131.6 195.35 252.44 195.35"/><polygon class="cls-95" points="252.3 195.21 252.3 74.37 252.3 74.23 252.16 74.23 252.16 195.07 131.32 195.07 131.32 195.21 131.46 195.21 252.3 195.21"/><polygon class="cls-96" points="252.16 195.07 252.16 74.23 252.16 74.09 252.02 74.09 252.02 194.93 131.18 194.93 131.18 195.07 131.32 195.07 252.16 195.07"/><polygon class="cls-97" points="252.02 194.93 252.02 74.09 252.02 73.95 251.88 73.95 251.88 194.79 131.04 194.79 131.04 194.93 131.18 194.93 252.02 194.93"/><polygon class="cls-98" points="251.88 194.79 251.88 73.95 251.88 73.81 251.74 73.81 251.74 194.65 130.9 194.65 130.9 194.79 131.04 194.79 251.88 194.79"/><polygon class="cls-99" points="251.74 194.65 251.74 73.81 251.74 73.67 251.6 73.67 251.6 194.51 130.76 194.51 130.76 194.65 130.9 194.65 251.74 194.65"/><polygon class="cls-100" points="251.6 194.51 251.6 73.67 251.6 73.53 251.46 73.53 251.46 194.37 130.62 194.37 130.62 194.51 130.76 194.51 251.6 194.51"/><polygon class="cls-101" points="251.46 194.37 251.46 73.53 251.46 73.39 251.32 73.39 251.32 194.23 130.48 194.23 130.48 194.37 130.62 194.37 251.46 194.37"/><polygon class="cls-102" points="251.32 194.23 251.32 73.39 251.32 73.25 251.18 73.25 251.18 194.09 130.34 194.09 130.34 194.23 130.48 194.23 251.32 194.23"/><polygon class="cls-103" points="251.18 194.09 251.18 73.25 251.18 73.11 251.04 73.11 251.04 193.95 130.2 193.95 130.2 194.09 130.34 194.09 251.18 194.09"/><polygon class="cls-104" points="251.04 193.95 251.04 73.11 251.04 72.97 250.9 72.97 250.9 193.81 130.06 193.81 130.06 193.95 130.2 193.95 251.04 193.95"/><polygon points="250.9 193.81 250.9 72.97 250.9 72.83 129.92 72.83 129.92 193.81 130.06 193.81 250.9 193.81"/></g><rect class="cls-4" x="129.92" y="72.83" width="120.98" height="120.98"/><rect x="148.86" y="91.42" width="14.59" height="14.59"/><path d="M173.23,81.83h-34v34h34Zm-4.71,29.26H144V86.54h24.55Z"/><rect x="148.86" y="159.75" width="14.59" height="14.59"/><path d="M139.26,184.13h34v-34h-34ZM144,154.86h24.55v24.55H144Z"/><rect x="217.19" y="91.42" width="14.59" height="14.59"/><path d="M207.59,81.83v34h34v-34Zm29.26,29.26H212.3V86.54h24.55Z"/><rect x="178.03" y="110.81" width="5.27" height="4.99"/><rect x="207.59" y="149.92" width="5.27" height="4.99"/><polygon points="183.3 125.92 187.83 125.92 187.83 120.93 183.3 120.93 178.5 120.93 178.03 120.93 158.87 120.93 158.87 125.83 153.61 125.83 153.61 130.82 158.88 130.82 158.88 125.92 168.9 125.92 168.9 130.82 178.5 130.82 178.5 125.92 183.3 125.92"/><rect x="163.45" y="130.82" width="5.27" height="4.99"/><rect x="167.97" y="140.45" width="5.27" height="4.99"/><rect x="139.26" y="120.93" width="10.33" height="9.79"/><polygon points="149.59 140.64 158.9 140.64 158.9 135.65 149.59 135.65 139.26 135.65 139.26 140.64 139.26 145.44 149.59 145.44 149.59 140.64"/><polygon points="187.68 115.8 192.95 115.8 192.95 106.01 197.61 106.01 197.61 106.11 202.6 106.11 202.6 96.7 202.6 91.71 202.6 81.83 197.61 81.83 197.61 91.71 192.81 91.71 192.81 86.72 192.81 81.83 187.82 81.83 187.82 86.72 183.02 86.72 183.02 81.83 178.03 81.83 178.03 86.72 178.03 91.71 178.03 96.61 183.02 96.61 183.02 91.71 187.82 91.71 187.82 96.61 187.82 96.7 197.61 96.7 197.61 101.02 178.03 101.02 178.03 106.01 187.68 106.01 187.68 115.8"/><rect x="197.33" y="110.81" width="5.27" height="4.99"/><polygon points="178.28 174.78 178.28 179.77 178.28 184.56 188.61 184.56 188.61 179.77 197.91 179.77 197.91 174.78 188.61 174.78 178.28 174.78"/><path d="M237,120.93h-5.27v5h4.52v4.89h-4.56v-5h-4.62v-4.89H207.59v5.64h-5v4.25h-5.19v9.88H193v-4.9h4.37v-5h0v-4.89h5.27v-5h-5.27v4.89h-5.27v5H178.5V145.6h4.89V140.7h4.71v5h9.31V150H178.5v5H188v5.06h-9.69v9.79h10.33v-5.05h4.53V155h4.28v.1h5.19v-9.66h14.92v14.62H197.88V165h-5.25v5h5.27V165h10v4.89h-5.46v10H207v4.89h5.27v-5h-4.52v-4.89h4.56v5h4.62v4.89h19.52v-5.64h5V160.31H221.58l0-5.4h14.83v-5H221.62l0-4.48h10.11v-5h-9.3v-4.64h19.12v-10H237Zm-24.93,19.52h-4.52v-4.74h4.52Zm19.8,24.85h4.52V170h-4.52Zm-14.4,0h4.06v4.64h-4.06Zm4.56,4.8h9.36v4.83h-9.36Zm-.43,4.84v.1h-.07v4.8h-4v-4.89Zm.29-39.28h-9.36v-4.83h9.36Zm4.52-4.84h-4.09v-.1h.07v-4.8h4Z"/><line class="cls-105" x1="300.97" y1="182.1" x2="303.04" y2="182.1"/><line class="cls-106" x1="307.63" y1="182.1" x2="323.72" y2="182.1"/><polyline class="cls-105" points="326.02 182.1 328.08 182.1 328.08 180.03"/><line class="cls-107" x1="328.08" y1="175.97" x2="328.08" y2="15.41"/><polyline class="cls-105" points="328.08 13.38 328.08 11.31 326.02 11.31"/><line class="cls-108" x1="321.99" y1="11.31" x2="170.99" y2="11.31"/><line class="cls-105" x1="168.98" y1="11.31" x2="166.91" y2="11.31"/><circle class="cls-4" cx="300.21" cy="182.26" r="4.84"/><circle class="cls-4" cx="162.07" cy="11.31" r="4.84"/><line class="cls-109" x1="228.34" y1="335.53" x2="102.21" y2="335.53"/><line class="cls-109" x1="223.29" y1="48.73" x2="145.57" y2="48.73"/><circle class="cls-110" cx="42.49" cy="304.02" r="3.71"/><circle class="cls-111" cx="227.28" cy="31.39" r="4.54"/><polygon class="cls-112" points="249.4 208.62 296.23 225.77 283.71 239.93 249.4 208.62"/><polygon class="cls-112" points="241.85 209.12 253.15 231.09 241.85 232.66 241.85 209.12"/><polygon class="cls-113" points="36.71 257.71 7.93 283.55 0 273.56 36.71 257.71"/><polygon class="cls-113" points="34.33 251.77 6.51 258.54 5.16 246.47 34.33 251.77"/><text class="cls-114" transform="translate(130.07 256.18) scale(1.04 1)">SCAN</text><path class="cls-115" d="M113,315.23h40.69l4.43,11.67H250.9V285a10.59,10.59,0,0,0-10.75-10.36h0a10.9,10.9,0,0,0-8.28,3.77l-.47-.31v-4.18a11.51,11.51,0,0,0-11.69-11.26,11.78,11.78,0,0,0-10.35,6.06v-.59a10.9,10.9,0,0,0-2.12-6.45V112.27c0-7.87-6.65-14.28-14.82-14.28H113c-8.17,0-14.82,6.41-14.82,14.28V301C98.21,308.82,104.86,315.23,113,315.23Z"/><rect class="cls-116" x="-25.32" y="62.75" width="251.96" height="126.46" rx="34.49" ry="34.49" transform="translate(226.65 25.32) rotate(90)"/><rect class="cls-117" x="38.71" y="1.23" width="123.92" height="249.51" rx="31.94" ry="31.94"/><rect class="cls-118" x="42.67" y="19.54" width="116" height="205.12"/><g class="cls-119"><polygon class="cls-14" points="44.98 19.54 44.27 19.54 42.67 21.15 42.67 21.86 44.98 19.54"/><polygon class="cls-14" points="49.2 19.54 48.49 19.54 42.67 25.39 42.67 26.11 49.2 19.54"/><polygon class="cls-14" points="53.42 19.54 52.71 19.54 42.67 29.64 42.67 30.35 53.42 19.54"/><polygon class="cls-14" points="57.64 19.54 56.93 19.54 42.67 33.88 42.67 34.59 57.64 19.54"/><polygon class="cls-14" points="61.86 19.54 61.15 19.54 42.67 38.12 42.67 38.83 61.86 19.54"/><polygon class="cls-14" points="66.08 19.54 65.37 19.54 42.67 42.37 42.67 43.08 66.08 19.54"/><polygon class="cls-14" points="70.3 19.54 69.59 19.54 42.67 46.61 42.67 47.32 70.3 19.54"/><polygon class="cls-14" points="74.52 19.54 73.82 19.54 42.67 50.85 42.67 51.56 74.52 19.54"/><polygon class="cls-14" points="78.74 19.54 78.04 19.54 42.67 55.09 42.67 55.8 78.74 19.54"/><polygon class="cls-14" points="82.96 19.54 82.26 19.54 42.67 59.34 42.67 60.05 82.96 19.54"/><polygon class="cls-14" points="87.19 19.54 86.48 19.54 42.67 63.58 42.67 64.29 87.19 19.54"/><polygon class="cls-14" points="91.41 19.54 90.7 19.54 42.67 67.82 42.67 68.53 91.41 19.54"/><polygon class="cls-14" points="95.63 19.54 94.92 19.54 42.67 72.07 42.67 72.78 95.63 19.54"/><polygon class="cls-14" points="99.85 19.54 99.14 19.54 42.67 76.31 42.67 77.02 99.85 19.54"/><polygon class="cls-14" points="104.07 19.54 103.36 19.54 42.67 80.55 42.67 81.26 104.07 19.54"/><polygon class="cls-14" points="108.29 19.54 107.58 19.54 42.67 84.8 42.67 85.5 108.29 19.54"/><polygon class="cls-14" points="112.51 19.54 111.8 19.54 42.67 89.04 42.67 89.75 112.51 19.54"/><polygon class="cls-14" points="116.73 19.54 116.03 19.54 42.67 93.28 42.67 93.99 116.73 19.54"/><polygon class="cls-14" points="120.95 19.54 120.25 19.54 42.67 97.52 42.67 98.23 120.95 19.54"/><polygon class="cls-14" points="125.17 19.54 124.47 19.54 42.67 101.77 42.67 102.48 125.17 19.54"/><polygon class="cls-14" points="129.39 19.54 128.69 19.54 42.67 106.01 42.67 106.72 129.39 19.54"/><polygon class="cls-14" points="133.62 19.54 132.91 19.54 42.67 110.25 42.67 110.96 133.62 19.54"/><polygon class="cls-14" points="137.84 19.54 137.13 19.54 42.67 114.5 42.67 115.2 137.84 19.54"/><polygon class="cls-14" points="142.06 19.54 141.35 19.54 42.67 118.74 42.67 119.45 142.06 19.54"/><polygon class="cls-14" points="146.28 19.54 145.57 19.54 42.67 122.98 42.67 123.69 146.28 19.54"/><polygon class="cls-14" points="150.5 19.54 149.79 19.54 42.67 127.22 42.67 127.93 150.5 19.54"/><polygon class="cls-14" points="154.72 19.54 154.01 19.54 42.67 131.47 42.67 132.18 154.72 19.54"/><polygon class="cls-14" points="158.67 19.81 158.67 19.54 158.23 19.54 42.67 135.71 42.67 136.42 158.67 19.81"/><polygon class="cls-14" points="158.67 24.06 158.67 23.35 42.67 139.95 42.67 140.66 158.67 24.06"/><polygon class="cls-14" points="158.67 28.3 158.67 27.59 42.67 144.2 42.67 144.91 158.67 28.3"/><polygon class="cls-14" points="158.67 32.54 158.67 31.83 42.67 148.44 42.67 149.15 158.67 32.54"/><polygon class="cls-14" points="158.67 36.78 158.67 36.08 42.67 152.68 42.67 153.39 158.67 36.78"/><polygon class="cls-14" points="158.67 41.03 158.67 40.32 42.67 156.92 42.67 157.63 158.67 41.03"/><polygon class="cls-14" points="158.67 45.27 158.67 44.56 42.67 161.17 42.67 161.88 158.67 45.27"/><polygon class="cls-14" points="158.67 49.51 158.67 48.8 42.67 165.41 42.67 166.12 158.67 49.51"/><polygon class="cls-14" points="158.67 53.76 158.67 53.05 42.67 169.65 42.67 170.36 158.67 53.76"/><polygon class="cls-14" points="158.67 58 158.67 57.29 42.67 173.9 42.67 174.6 158.67 58"/><polygon class="cls-14" points="158.67 62.24 158.67 61.53 42.67 178.14 42.67 178.85 158.67 62.24"/><polygon class="cls-14" points="158.67 66.48 158.67 65.78 42.67 182.38 42.67 183.09 158.67 66.48"/><polygon class="cls-14" points="158.67 70.73 158.67 70.02 42.67 186.62 42.67 187.33 158.67 70.73"/><polygon class="cls-14" points="158.67 74.97 158.67 74.26 42.67 190.87 42.67 191.58 158.67 74.97"/><polygon class="cls-14" points="42.67 195.11 42.67 195.82 158.67 79.21 158.67 78.5 42.67 195.11"/><polygon class="cls-14" points="42.67 199.35 42.67 200.06 158.67 83.46 158.67 82.75 42.67 199.35"/><polygon class="cls-14" points="42.67 203.6 42.67 204.31 158.67 87.7 158.67 86.99 42.67 203.6"/><polygon class="cls-14" points="42.67 207.84 42.67 208.55 158.67 91.94 158.67 91.23 42.67 207.84"/><polygon class="cls-14" points="42.67 212.08 42.67 212.79 158.67 96.19 158.67 95.48 42.67 212.08"/><polygon class="cls-14" points="42.67 216.32 42.67 217.03 158.67 100.43 158.67 99.72 42.67 216.32"/><polygon class="cls-14" points="42.67 220.57 42.67 221.28 158.67 104.67 158.67 103.96 42.67 220.57"/><polygon class="cls-14" points="42.82 224.66 43.53 224.66 158.67 108.92 158.67 108.2 42.82 224.66"/><polygon class="cls-14" points="47.04 224.66 47.75 224.66 158.67 113.16 158.67 112.45 47.04 224.66"/><polygon class="cls-14" points="51.26 224.66 51.97 224.66 158.67 117.4 158.67 116.69 51.26 224.66"/><polygon class="cls-14" points="55.48 224.66 56.19 224.66 158.67 121.64 158.67 120.93 55.48 224.66"/><polygon class="cls-14" points="59.7 224.66 60.41 224.66 158.67 125.89 158.67 125.18 59.7 224.66"/><polygon class="cls-14" points="63.92 224.66 64.63 224.66 158.67 130.13 158.67 129.42 63.92 224.66"/><polygon class="cls-14" points="68.15 224.66 68.85 224.66 158.67 134.37 158.67 133.66 68.15 224.66"/><polygon class="cls-14" points="72.37 224.66 73.07 224.66 158.67 138.62 158.67 137.91 72.37 224.66"/><polygon class="cls-14" points="76.59 224.66 77.29 224.66 158.67 142.86 158.67 142.15 76.59 224.66"/><polygon class="cls-14" points="80.81 224.66 81.52 224.66 158.67 147.1 158.67 146.39 80.81 224.66"/><polygon class="cls-14" points="85.03 224.66 85.73 224.66 158.67 151.34 158.67 150.63 85.03 224.66"/><polygon class="cls-14" points="89.25 224.66 89.96 224.66 158.67 155.59 158.67 154.88 89.25 224.66"/><polygon class="cls-14" points="93.47 224.66 94.18 224.66 158.67 159.83 158.67 159.12 93.47 224.66"/><polygon class="cls-14" points="97.69 224.66 98.4 224.66 158.67 164.07 158.67 163.36 97.69 224.66"/><polygon class="cls-14" points="101.91 224.66 102.62 224.66 158.67 168.31 158.67 167.6 101.91 224.66"/><polygon class="cls-14" points="106.13 224.66 106.84 224.66 158.67 172.56 158.67 171.85 106.13 224.66"/><polygon class="cls-14" points="110.35 224.66 111.06 224.66 158.67 176.8 158.67 176.09 110.35 224.66"/><polygon class="cls-14" points="114.58 224.66 115.28 224.66 158.67 181.04 158.67 180.33 114.58 224.66"/><polygon class="cls-14" points="118.8 224.66 119.5 224.66 158.67 185.29 158.67 184.58 118.8 224.66"/><polygon class="cls-14" points="123.02 224.66 123.72 224.66 158.67 189.53 158.67 188.82 123.02 224.66"/><polygon class="cls-14" points="127.24 224.66 127.94 224.66 158.67 193.77 158.67 193.06 127.24 224.66"/><polygon class="cls-14" points="131.46 224.66 132.16 224.66 158.67 198.02 158.67 197.31 131.46 224.66"/><polygon class="cls-14" points="135.68 224.66 136.39 224.66 158.67 202.26 158.67 201.55 135.68 224.66"/><polygon class="cls-14" points="139.9 224.66 140.61 224.66 158.67 206.5 158.67 205.79 139.9 224.66"/><polygon class="cls-14" points="144.12 224.66 144.83 224.66 158.67 210.74 158.67 210.03 144.12 224.66"/><polygon class="cls-14" points="148.34 224.66 149.05 224.66 158.67 214.99 158.67 214.28 148.34 224.66"/><polygon class="cls-14" points="152.56 224.66 153.27 224.66 158.67 219.23 158.67 218.52 152.56 224.66"/><polygon class="cls-14" points="156.78 224.66 157.49 224.66 158.67 223.47 158.67 222.76 156.78 224.66"/></g><rect class="cls-120" x="42.67" y="19.54" width="116" height="5.66"/><path class="cls-116" d="M113.93,13.05H87.4a1.56,1.56,0,0,1-1.58-1.53h0A1.56,1.56,0,0,1,87.4,10h26.53a1.56,1.56,0,0,1,1.58,1.53h0A1.56,1.56,0,0,1,113.93,13.05Z"/><path class="cls-116" d="M79.62,13.05h0A1.56,1.56,0,0,1,78,11.53h0A1.56,1.56,0,0,1,79.62,10h0a1.56,1.56,0,0,1,1.58,1.53h0A1.56,1.56,0,0,1,79.62,13.05Z"/><ellipse class="cls-116" cx="100.67" cy="236.81" rx="8.92" ry="8.59"/><rect class="cls-121" x="47.84" y="19.54" width="21.64" height="205.12"/><rect class="cls-4" x="64.48" y="85.2" width="72.37" height="69.74"/><rect x="75.81" y="95.91" width="8.73" height="8.41"/><path d="M90.39,90.38H70.07V110H90.39Zm-2.82,16.87H72.89V93.1H87.57Z"/><rect x="75.81" y="135.3" width="8.73" height="8.41"/><path d="M70.07,149.35H90.39V129.77H70.07Zm2.82-16.87H87.57v14.15H72.89Z"/><rect x="116.68" y="95.91" width="8.73" height="8.41"/><path d="M110.94,90.38V110h20.32V90.38Zm17.5,16.87H113.76V93.1h14.69Z"/><rect x="93.26" y="107.09" width="3.15" height="2.88"/><rect x="110.94" y="129.63" width="3.15" height="2.88"/><polygon points="96.41 115.8 99.12 115.8 99.12 112.92 96.41 112.92 93.54 112.92 93.26 112.92 81.8 112.92 81.8 115.75 78.65 115.75 78.65 118.62 81.81 118.62 81.81 115.8 87.8 115.8 87.8 118.62 93.54 118.62 93.54 115.8 96.41 115.8"/><rect x="84.54" y="118.62" width="3.15" height="2.88"/><rect x="87.24" y="124.17" width="3.15" height="2.88"/><rect x="70.07" y="112.93" width="6.18" height="5.64"/><polygon points="76.25 124.29 81.81 124.29 81.81 121.41 76.25 121.41 70.07 121.41 70.07 124.29 70.07 127.05 76.25 127.05 76.25 124.29"/><polygon points="99.03 109.96 102.19 109.96 102.19 104.32 104.97 104.32 104.97 104.38 107.96 104.38 107.96 98.95 107.96 96.08 107.96 90.38 104.97 90.38 104.97 96.08 102.1 96.08 102.1 93.2 102.1 90.38 99.12 90.38 99.12 93.2 96.25 93.2 96.25 90.38 93.26 90.38 93.26 93.2 93.26 96.08 93.26 98.9 96.25 98.9 96.25 96.08 99.12 96.08 99.12 98.9 99.12 98.95 104.97 98.95 104.97 101.44 93.26 101.44 93.26 104.32 99.03 104.32 99.03 109.96"/><rect x="104.81" y="107.09" width="3.15" height="2.88"/><polygon points="93.41 143.96 93.41 146.84 93.41 149.6 99.59 149.6 99.59 146.84 105.15 146.84 105.15 143.96 99.59 143.96 93.41 143.96"/><path d="M128.56,112.93h-3.15v2.88h2.7v2.82h-2.73v-2.88h-2.76v-2.82H110.94v3.25h-3v2.45h-3.1v5.7h-2.64V121.5h2.62v-2.88h0V115.8H108v-2.88h-3.15v2.82h-3.15v2.88H93.54v8.52h2.93v-2.82h2.82v2.88h5.57v2.49H93.54v2.88H99.2v2.91h-5.8v5.64h6.18v-2.91h2.71v-5.64h2.56v.06H108v-5.57h8.92v8.43H105.14v2.82H102v2.88h3.15v-2.82h6v2.82h-3.27v5.75h2.7v2.82h3.15v-2.88H111v-2.82h2.73v2.88h2.76v2.82H128.2V146.5h3V135.62H119.31v-3.11h8.87v-2.88h-8.86v-2.58h6v-2.88h-5.56V121.5h11.44v-5.75h-2.7Zm-14.91,11.25h-2.7v-2.73h2.7Zm11.85,14.33h2.7v2.73h-2.7Zm-8.61,0h2.43v2.68h-2.43Zm2.73,2.76h5.6v2.79h-5.6Zm-.26,2.79v.06h0v2.76h-2.41v-2.82Zm.17-22.64h-5.6v-2.79h5.6Zm2.7-2.79h-2.45v-.06h0V115.8h2.41Z"/><polyline class="cls-122" points="80.29 78.21 57.23 78.21 57.23 161.92 80.29 161.92"/><polyline class="cls-122" points="121.05 161.92 144.1 161.92 144.1 78.21 121.05 78.21"/><rect class="cls-123" x="42.67" y="109.96" width="116" height="4.25"/><rect class="cls-124" x="42.67" y="111.32" width="116" height="1.55"/><rect class="cls-4" x="57.23" y="168.71" width="86.87" height="10.98" rx="4.62" ry="4.62"/><path class="cls-125" d="M114.33,169.94H62.93a4.27,4.27,0,1,0,0,8.53h51.4Z"/><rect class="cls-126" x="74.39" y="187.77" width="52.55" height="16.17" rx="6.8" ry="6.8"/><path class="cls-127" d="M82.78,189.88h35.77a7.29,7.29,0,0,1,7.34,6.37,6.9,6.9,0,0,0,0-.73,7.25,7.25,0,0,0-7.37-7.11H82.78a7.25,7.25,0,0,0-7.37,7.11,6.9,6.9,0,0,0,0,.73A7.29,7.29,0,0,1,82.78,189.88Z"/><path class="cls-128" d="M118.55,202.18H82.78A8.31,8.31,0,0,1,74.44,195a7.78,7.78,0,0,0-.05.88h0a8.27,8.27,0,0,0,8.39,8.09h35.77a8.27,8.27,0,0,0,8.39-8.09h0a7.78,7.78,0,0,0-.05-.88A8.31,8.31,0,0,1,118.55,202.18Z"/><text class="cls-129" transform="translate(82.96 200.42) scale(1.04 1)">SCAN</text><path class="cls-130" d="M136.62,285l-2.59.91a11.15,11.15,0,0,1-14.11-6.31l-20-52.61a10.53,10.53,0,0,1,6.55-13.6l2.59-.91a11.15,11.15,0,0,1,14.11,6.31l20,52.61A10.53,10.53,0,0,1,136.62,285Z"/><path class="cls-131" d="M136.56,303.61h55.51a44.56,44.56,0,0,0,19-36.19V216.53a11.22,11.22,0,0,0-11.39-11h0a11.55,11.55,0,0,0-8.77,4l-.5-.33v-4.43A12.19,12.19,0,0,0,178,192.86a12.47,12.47,0,0,0-11,6.41v-.62a12.19,12.19,0,0,0-12.38-11.93h0a12.19,12.19,0,0,0-12.38,11.93V148.19c0-6.56-5.57-10.56-12.38-10.56h0c-6.81,0-12.38,4-12.38,10.56V267.42A44.56,44.56,0,0,0,136.56,303.61Z"/><path class="cls-132" d="M120.89,142.08c0,5.1,0,5.13,0,5.17v2.84a9.08,9.08,0,0,0,9.22,8.89h0a9.08,9.08,0,0,0,9.22-8.89v-2.84s0-.07,0-5.17Z"/><path class="cls-9" d="M139.32,145.14c0-.73,0-1.72,0-3.06H120.89c0,1.34,0,2.33,0,3.06Z"/><rect class="cls-126" x="126.17" y="297.04" width="76.7" height="29.87"/><text class="cls-133" transform="translate(89.04 27.04) scale(1.04 1)">12:05 PM</text><path class="cls-134" d="M51.76,24.68a1.48,1.48,0,1,1-1.23-1.18A1.45,1.45,0,0,1,51.76,24.68Z"/><path class="cls-134" d="M61.28,24.68a1.48,1.48,0,1,1-1.23-1.18A1.45,1.45,0,0,1,61.28,24.68Z"/><path class="cls-134" d="M56.52,24.68A1.48,1.48,0,1,1,55.3,23.5,1.45,1.45,0,0,1,56.52,24.68Z"/><path class="cls-135" d="M70.79,24.68a1.48,1.48,0,1,1-1.23-1.18A1.45,1.45,0,0,1,70.79,24.68Z"/><path class="cls-135" d="M66,24.68a1.48,1.48,0,1,1-1.23-1.18A1.45,1.45,0,0,1,66,24.68Z"/><path class="cls-134" d="M144.38,27.16a.49.49,0,0,1-.52-.46V23.12a.49.49,0,0,1,.52-.46H153a.49.49,0,0,1,.52.46v.74h.67V26h-.67v.73a.49.49,0,0,1-.52.46ZM153.19,23h-9v3.85h9Zm-8.62,3.49V23.34h6.53v3.13Z"/></g></g></g></svg>