<svg xmlns="http://www.w3.org/2000/svg" viewBox="0 0 24.37 22.01"><defs><style>.cls-1{fill:#72b9a5;}.cls-2{fill:none;}</style></defs><title>Asset 29</title><g id="Layer_2" data-name="Layer 2"><g id="Layer_1-2" data-name="Layer 1"><path class="cls-1" d="M22,0H2.36a2.36,2.36,0,1,0,0,4.72H22A2.36,2.36,0,0,0,22,0Zm0,0"/><path class="cls-1" d="M22,8.65H2.36a2.36,2.36,0,1,0,0,4.72H22a2.36,2.36,0,0,0,0-4.72Zm0,0"/><path class="cls-1" d="M22,17.29H2.36a2.36,2.36,0,1,0,0,4.72H22a2.36,2.36,0,0,0,0-4.72Zm0,0"/><line class="cls-2" x1="9.18" y1="4.72" x2="12.18" y2="4.72"/></g></g></svg>