<svg xmlns="http://www.w3.org/2000/svg" viewBox="0 0 27.19 22.61"><defs><style>.cls-1{fill:#85a6e6;}</style></defs><title>Asset 81</title><g id="Layer_2" data-name="Layer 2"><g id="Layer_1-2" data-name="Layer 1"><path class="cls-1" d="M26.75,2.63a10.77,10.77,0,0,1-1.87.63A5.84,5.84,0,0,0,26.42.81h0A.31.31,0,0,0,26,.45h0a10.82,10.82,0,0,1-2.87,1.18l-.18,0a.76.76,0,0,1-.5-.19A5.86,5.86,0,0,0,18.55,0a6.27,6.27,0,0,0-1.86.29,5.68,5.68,0,0,0-3.83,4.09,6.25,6.25,0,0,0-.14,2.16.21.21,0,0,1-.05.16.22.22,0,0,1-.16.07h0A15.37,15.37,0,0,1,1.93,1.13h0a.31.31,0,0,0-.5,0h0a5.87,5.87,0,0,0,1,7.12A5.25,5.25,0,0,1,1,7.78H1A.31.31,0,0,0,.59,8h0A5.87,5.87,0,0,0,4,13.45H3.89a5.27,5.27,0,0,1-1-.09h0a.31.31,0,0,0-.35.39h0a5.87,5.87,0,0,0,4.64,4,10.82,10.82,0,0,1-6.06,1.84H.45a.45.45,0,0,0-.44.34.46.46,0,0,0,.22.51,16.09,16.09,0,0,0,8.08,2.18,16.31,16.31,0,0,0,6.91-1.47,15.25,15.25,0,0,0,5.05-3.79,16.61,16.61,0,0,0,3.09-5.18A16.37,16.37,0,0,0,24.43,6.5V6.42a1,1,0,0,1,.37-.78,11.58,11.58,0,0,0,2.33-2.56h0a.31.31,0,0,0-.38-.45Z"/></g></g></svg>