<svg xmlns="http://www.w3.org/2000/svg" xmlns:xlink="http://www.w3.org/1999/xlink" viewBox="0 0 19.07 20"><defs><style>.cls-1{fill:url(#New_Gradient_Swatch_copy_3);}</style><linearGradient id="New_Gradient_Swatch_copy_3" y1="10" x2="19.07" y2="10" gradientUnits="userSpaceOnUse"><stop offset="0" stop-color="#72b9a5"/><stop offset="1" stop-color="#259fd5"/></linearGradient></defs><title>Asset 38</title><g id="Layer_2" data-name="Layer 2"><g id="Layer_1-2" data-name="Layer 1"><path class="cls-1" d="M18.61,12.28a8.59,8.59,0,0,1-17.1,0H.67a.67.67,0,0,1-.58-1L2,8A.67.67,0,0,1,3.14,8L5,11.3a.67.67,0,0,1-.58,1H3.71A6.41,6.41,0,1,0,6.52,6.06,1.13,1.13,0,0,1,5,5.85a1.09,1.09,0,0,1,.25-1.57A8.54,8.54,0,0,1,9,2.88V1.64H8.12a.55.55,0,0,1-.55-.55V.55A.55.55,0,0,1,8.12,0h4.06a.55.55,0,0,1,.55.55v.55a.55.55,0,0,1-.55.55h-1V2.89a8.6,8.6,0,0,1,7.4,9.39ZM18.89,4,17.25,2.51a.55.55,0,0,0-.77,0L16,3a.55.55,0,0,0,0,.77L17.72,5.3a.55.55,0,0,0,.77,0l.43-.47a.55.55,0,0,0,0-.77ZM10,6.12v5.33h5.28A5.18,5.18,0,0,0,10,6.12Zm0,0"/></g></g></svg>