<svg xmlns="http://www.w3.org/2000/svg" xmlns:xlink="http://www.w3.org/1999/xlink" viewBox="0 0 904.31 623.22"><defs><style>.cls-1{fill:none;}.cls-2{isolation:isolate;}.cls-3{opacity:0.15;}.cls-20,.cls-25,.cls-3{mix-blend-mode:multiply;}.cls-4{clip-path:url(#clip-path);}.cls-5{fill:url(#radial-gradient);}.cls-6{fill:#891a00;}.cls-7{fill:#dd2f27;}.cls-8{fill:#de412f;}.cls-9{fill:#f1fdff;}.cls-10{fill:#e27150;}.cls-11{fill:#fff;}.cls-12{fill:#651300;}.cls-13{fill:#ab2100;}.cls-14{fill:#c52600;}.cls-15,.cls-20{fill:#c5defd;}.cls-16{fill:#c62600;}.cls-17,.cls-25{fill:#9cc1f1;}.cls-18{fill:#def2ff;}.cls-19{fill:#d9eafd;}.cls-21{fill:#460d00;}.cls-22{fill:#dc5646;}.cls-23{fill:#d33100;}.cls-24{fill:#fffdff;}</style><clipPath id="clip-path"><rect class="cls-1" x="209.29" y="205.75" width="485.72" height="485.72"/></clipPath><radialGradient id="radial-gradient" cx="460.9" cy="549.12" r="249.74" gradientTransform="translate(0 -404.08) scale(1 1.74)" gradientUnits="userSpaceOnUse"><stop offset="0" stop-color="#00bfa7"/><stop offset="0.13" stop-color="#00bfa7" stop-opacity="0.98"/><stop offset="0.28" stop-color="#00bfa7" stop-opacity="0.91"/><stop offset="0.43" stop-color="#00bfa8" stop-opacity="0.79"/><stop offset="0.58" stop-color="#00bfa9" stop-opacity="0.63"/><stop offset="0.74" stop-color="#00bfaa" stop-opacity="0.43"/><stop offset="0.9" stop-color="#00bfab" stop-opacity="0.18"/><stop offset="1" stop-color="#00bfac" stop-opacity="0"/></radialGradient></defs><title>Asset 74</title><g class="cls-2"><g id="Layer_2" data-name="Layer 2"><g id="Layer_1-2" data-name="Layer 1"><g class="cls-3"><g class="cls-4"><path class="cls-5" d="M0,606.18l451.9,17L4,539.42Zm900.74-63.94-448.18,81,451.75-19ZM872.06,390.76,452.46,623.13a.15.15,0,0,0,0-.05L850.41,326.92l-33.4-73L452.46,623v0L784.56,199.49l-45.49-59.22L452.42,622.94s0-.06,0-.06L697.83,98.7,643.1,56.95,452.38,622.83l0,0L595.67,30.85,535.16,9.19l-82.87,613.6s0,0,0,0L484.52.2,422,0,452.2,622.77l0,0L371.33,8.67,310.72,30l141.4,592.84s0,0,0,0L263.21,55.75,208.35,97.18,452,622.88s0,0,0,.06L167,138.47,121.3,197.42,452,623s0,0,0,0L88.65,251.64,55,324.42,452,623.08a.14.14,0,0,0,0,0l-418.83-235L13.69,470.2,452,623.2s0,0,0,0h.41v0L891.27,472.95Z"/></g></g><polygon class="cls-6" points="463.24 536.91 407.09 567.11 390.88 497.48 445.79 461.94 463.24 536.91"/><polygon class="cls-7" points="472.94 578.61 407.09 567.11 390.88 497.48 456.74 508.98 472.94 578.61"/><polygon class="cls-8" points="391.58 500.45 470.07 566.27 471.64 573.04 393.15 507.22 391.58 500.45"/><polygon class="cls-8" points="458.56 516.8 460.13 523.57 439.05 505.89 447.25 507.32 458.56 516.8"/><polygon class="cls-8" points="463.97 540.06 419.06 502.4 427.26 503.83 462.39 533.29 463.97 540.06"/><polygon class="cls-8" points="407.27 500.34 466.23 549.78 467.8 556.55 399.07 498.91 407.27 500.34"/><polygon class="cls-8" points="467.9 577.73 459.7 576.3 396.99 523.71 395.41 516.95 467.9 577.73"/><polygon class="cls-8" points="447.91 574.24 439.71 572.81 400.82 540.2 399.25 533.44 447.91 574.24"/><polygon class="cls-8" points="403.09 549.93 427.92 570.75 419.72 569.32 404.66 556.69 403.09 549.93"/><polygon class="cls-9" points="427.24 570.63 448.67 574.37 432.46 504.74 411.04 501 427.24 570.63"/><polygon class="cls-10" points="390.88 497.48 391.05 498.2 456.9 509.69 456.74 508.98 390.88 497.48"/><polygon class="cls-11" points="411.21 501.71 432.63 505.45 432.46 504.74 419.32 502.45 411.04 501 411.21 501.71"/><polygon class="cls-12" points="463.24 536.91 526.95 539.22 510.75 469.59 445.79 461.94 463.24 536.91"/><polygon class="cls-13" points="472.94 578.61 526.95 539.22 510.75 469.59 456.74 508.98 472.94 578.61"/><polygon class="cls-14" points="511.44 472.56 470.07 566.27 471.64 573.04 513.01 479.33 511.44 472.56"/><polygon class="cls-14" points="458.56 516.8 460.13 523.57 471.24 498.4 464.51 503.3 458.56 516.8"/><polygon class="cls-14" points="463.97 540.06 487.64 486.44 480.91 491.35 462.39 533.29 463.97 540.06"/><polygon class="cls-14" points="497.31 479.39 466.23 549.78 467.8 556.55 504.04 474.49 497.31 479.39"/><polygon class="cls-14" points="477.07 575.6 483.8 570.69 516.85 495.82 515.28 489.06 477.07 575.6"/><polygon class="cls-14" points="493.46 563.64 500.19 558.73 520.69 512.31 519.11 505.55 493.46 563.64"/><polygon class="cls-14" points="522.95 522.04 509.86 551.68 516.59 546.78 524.52 528.8 522.95 522.04"/><polygon class="cls-15" points="493.2 563.83 510.77 551.02 494.57 481.39 477 494.2 493.2 563.83"/><polygon class="cls-16" points="456.74 508.98 456.87 509.54 510.88 470.16 510.75 469.59 456.74 508.98"/><polygon class="cls-9" points="477.13 494.76 494.7 481.95 494.57 481.39 477 494.2 477.13 494.76"/><path class="cls-17" d="M506.77,389.85s-4.37,14.35-26.9,19.27c-11-8.87-14.56-4.24-14.56-4.24l4.3-9,8-6.66L483,388"/><path class="cls-18" d="M471.11,403.47a65.27,65.27,0,0,1,35.66-13.63l-22.64-5.39s-11.49-2.6-20.15,12.63Z"/><path class="cls-17" d="M430.07,369.86s-2.48,14.79,15.49,29.24c13.8-3,14.92,2.69,14.92,2.69l.15-10-4.23-9.55-4.26-3.51"/><path class="cls-18" d="M455.92,397.95a65.27,65.27,0,0,0-25.85-28.09l22.67,5.27s11.44,2.79,12.41,20.28Z"/><circle class="cls-9" cx="463.11" cy="398.48" r="10.99" transform="translate(-22.94 28.33) rotate(-3.42)"/><path class="cls-11" d="M462.45,387.52a11,11,0,0,0-10.32,10.86,11,11,0,0,1,21.94-.14c0,.26,0,.51,0,.76a11.1,11.1,0,0,0,0-1.17A11,11,0,0,0,462.45,387.52Z"/><circle class="cls-19" cx="473.84" cy="402.43" r="7.46" transform="translate(-23.16 28.97) rotate(-3.42)"/><path class="cls-15" d="M484.53,403.16s21.72-7.08,44,3.72l-1.62,16.89s-16.16-9.76-29-.9"/><path class="cls-20" d="M512.91,419.28a35.59,35.59,0,0,1,9.87,2.49c.47-.07.74-.13.74-.13l2.51-3.26,1.08-2.23,1.44-9.27S524.72,414.29,512.91,419.28Z"/><path class="cls-15" d="M449.75,394.47s-20.14-22.59-53.4-14.26l-11.46,13.07s14-3.93,22.52,5.31l14.45-.86"/><circle class="cls-19" cx="450.51" cy="396.6" r="7.46" transform="translate(-22.85 27.57) rotate(-3.42)"/><path class="cls-20" d="M390.33,387.07l-1.56,4.27.3,1.23a28,28,0,0,1,8,.36,18.43,18.43,0,0,1-.68-12.73Z"/><polygon class="cls-12" points="400.38 417.07 486.8 438.47 503.93 427.48 455.97 406.75 415.06 400.89 400.38 417.07"/><polygon class="cls-21" points="488.53 419.9 486.8 438.47 503.93 427.48 487.38 420.33 488.53 419.9"/><polygon class="cls-7" points="420.3 385.28 416.94 404.46 400.38 417.07 403.78 398.3 420.3 385.28"/><polygon class="cls-22" points="403.81 398.75 420.2 385.84 420.3 385.28 403.78 398.3 400.38 417.07 400.5 416.97 403.81 398.75"/><polygon class="cls-13" points="420.3 385.28 416.94 404.46 503.93 427.48 506.62 409.31 420.3 385.28"/><polygon class="cls-14" points="483.49 422.07 506.59 409.48 506.62 409.31 500.83 407.69 477.41 420.46 483.49 422.07"/><polygon class="cls-14" points="491.49 424.19 497.52 425.79 504.77 421.8 505.56 416.45 491.49 424.19"/><polygon class="cls-14" points="447.75 412.61 453.84 414.22 477.65 401.24 471.67 399.58 447.75 412.61"/><polygon class="cls-14" points="468.66 418.15 492.24 405.3 486.25 403.64 462.58 416.54 468.66 418.15"/><polygon class="cls-14" points="419.08 392.23 418.13 397.67 433.91 389.07 427.93 387.4 419.08 392.23"/><polygon class="cls-14" points="432.93 408.69 439.01 410.3 463.07 397.19 457.09 395.52 432.93 408.69"/><polygon class="cls-14" points="418.1 404.76 424.19 406.38 448.49 393.13 442.51 391.46 418.1 404.76"/><polygon class="cls-9" points="444.6 411.78 474.93 419.81 478.84 401.57 448.67 393.18 444.6 411.78"/><polygon class="cls-23" points="506.54 409.82 506.65 409.2 420.33 385.18 420.21 385.8 506.54 409.82"/><polygon class="cls-24" points="448.54 393.76 478.71 402.15 478.86 401.46 448.69 393.07 448.54 393.76"/><path class="cls-18" d="M528.55,406.88s-1.7,8.8-19.76,18l8.89,13.43S527.06,436.22,531,427Z"/><path class="cls-17" d="M508.79,424.85s6.35,8.12,21.36,8.84,19.58,2.67,19.58,2.67l-6.61,7.88,3.23,10.12a55.32,55.32,0,0,0-15.81-2.29,25.41,25.41,0,0,1-15.63-5.94Z"/><path class="cls-17" d="M388.16,425.34s-10.5,2.57-19.76-12.24l9.46-1,2.26-7.6s4.95,7.54,11.29,7.21c2.93,3.27,2.4,5.73,2.4,5.73Z"/><path class="cls-25" d="M393.81,417.46s.53-2.46-2.4-5.73c-6.34.33-11.29-7.21-11.29-7.21l-.57,1.93c12.75,11.63,8.62,18.89,8.62,18.89Z"/><path class="cls-18" d="M396.35,380.21s-5.65,9.6-1.67,17.55,6.91,13.28,3,19.47l-9.49,8.11s3.79-6.8-1-13.36c-4.63-6.31-6.3-13.4-2.25-18.7Z"/><rect class="cls-11" x="326.15" y="418.75" width="13.55" height="13.55" transform="translate(398.4 -110.78) rotate(45)"/><rect class="cls-11" x="369.67" y="448.84" width="6.77" height="6.77" transform="translate(429.04 -131.34) rotate(45)"/><rect class="cls-11" x="375.1" y="467.7" width="3.56" height="3.56" transform="translate(442.37 -128.98) rotate(45)"/><rect class="cls-11" x="372.51" y="435.1" width="3.56" height="3.56" transform="translate(418.56 -136.7) rotate(45)"/><rect class="cls-11" x="415.97" y="478.56" width="3.56" height="3.56" transform="translate(462.01 -154.7) rotate(45)"/><rect class="cls-11" x="435.67" y="493.1" width="0.78" height="0.78" transform="translate(476.67 -163.8) rotate(45)"/><rect class="cls-11" x="446.78" y="496.5" width="0.78" height="0.78" transform="translate(482.32 -170.66) rotate(45)"/><rect class="cls-11" x="459.04" y="498.74" width="0.78" height="0.78" transform="translate(487.43 -178.68) rotate(44.99)"/><rect class="cls-11" x="456.88" y="494.42" width="0.78" height="0.78" transform="translate(483.81 -178.41) rotate(45)"/><rect class="cls-11" x="458.4" y="495.95" width="0.78" height="0.78" transform="translate(485.34 -179.04) rotate(45)"/><rect class="cls-11" x="468.57" y="490.58" width="0.78" height="0.78" transform="translate(484.52 -187.81) rotate(45)"/><rect class="cls-11" x="463.25" y="491.58" width="0.78" height="0.78" transform="translate(483.67 -183.75) rotate(45)"/><rect class="cls-11" x="473.37" y="480.98" width="0.78" height="0.78" transform="translate(479.14 -194.01) rotate(45)"/><rect class="cls-11" x="467.07" y="475.46" width="0.78" height="0.78" transform="translate(473.39 -191.17) rotate(45)"/><rect class="cls-11" x="437.65" y="484.58" width="0.78" height="0.78" transform="translate(471.22 -167.7) rotate(45)"/><rect class="cls-11" x="421.55" y="488.59" width="0.78" height="0.78" transform="translate(469.35 -155.14) rotate(45)"/><rect class="cls-11" x="435.04" y="480.6" width="2.03" height="2.03" transform="translate(468.27 -167.28) rotate(45)"/><rect class="cls-11" x="432.54" y="488.76" width="2.03" height="2.03" transform="translate(473.33 -163.12) rotate(45)"/><rect class="cls-11" x="445.7" y="487.96" width="2.03" height="2.03" transform="translate(476.61 -172.66) rotate(45)"/><rect class="cls-11" x="426.81" y="472.36" width="2.03" height="2.03" transform="translate(460.06 -163.87) rotate(45)"/><rect class="cls-11" x="459.23" y="476.45" width="2.03" height="2.03" transform="translate(472.42 -185.59) rotate(45)"/><rect class="cls-11" x="409.35" y="468.47" width="3.56" height="3.56" transform="translate(452.93 -152.98) rotate(45)"/><path class="cls-11" d="M321.82,465.53c-3.8-.5-8.07-1.47-11.78-.23a26.52,26.52,0,0,0-8.08-6.57,1,1,0,0,0-1,1.71,23.93,23.93,0,0,1,7.11,5.77c-.24.15-.48.31-.72.49-2.77,2.09-4.38,7.33-.95,9.68,3.72,2.55,6.57-2.88,6-6A10.56,10.56,0,0,0,311.2,467l.52-.13c3.18-.69,6.45.12,9.61.54C322.56,467.59,323.07,465.69,321.82,465.53Zm-11.22,6.28a4,4,0,0,1-1,2.46c-1.1,1.14-2.7.29-3.05-1.06-.62-2.36.81-4.25,2.71-5.37A6.81,6.81,0,0,1,310.6,471.81Z"/><polygon class="cls-15" points="309.3 467.84 308.1 466.21 307.14 466.89 309.3 467.84"/><polygon class="cls-15" points="311.2 467.02 310.05 465.3 311.03 465.02 311.2 467.02"/><path class="cls-11" d="M312.33,372.76a31.75,31.75,0,0,0-10.59,11c-4.92-1.68-11-.35-15.49,2.78-4.13-2.14-9.25-1.6-13.3.64-1.68.93-.18,3.52,1.51,2.58a11.72,11.72,0,0,1,9.24-1.1,15.79,15.79,0,0,0-1.19,1.35c-2.79,3.57-3.86,9.28-.85,13.08s8.13,1.63,9.92-2.33c1.88-4.15.51-9.26-2.7-12.36a17.3,17.3,0,0,1,8.66-2.47,9.5,9.5,0,0,1,3,.47,16.62,16.62,0,0,0,.26,13.28c1.45,3.19,5.72,6.78,8.58,2.78,2.53-3.54.87-9.66-1-13.12a11.73,11.73,0,0,0-4-4.33,28.22,28.22,0,0,1,9.48-9.62C315.46,374.31,314,371.72,312.33,372.76Zm-25.89,17.4c2.76,2.31,4.05,6.91,2,10.09-1,1.58-3.94,2.07-4.9.29a7.08,7.08,0,0,1-.72-3.6,9.65,9.65,0,0,1,3-6.21c.2-.2.4-.39.61-.58Zm20.44,3.51c.42,1.48,1.16,4.15.53,5.68-1.74,4.23-4.33-1.62-4.7-3.14a14.58,14.58,0,0,1,.41-8.46A11.27,11.27,0,0,1,306.88,393.67Z"/><polygon class="cls-15" points="286.43 390.15 288.88 388.36 290.04 389.67 286.43 390.15"/><polygon class="cls-15" points="283.7 388.62 286.25 386.49 284.98 385.93 283.7 388.62"/><polygon class="cls-15" points="300.5 386.37 301.75 383.71 300.5 383.36 300.5 386.37"/><polygon class="cls-15" points="304.37 384.97 303.03 388.02 305.47 385.78 304.37 384.97"/><path class="cls-11" d="M418.36,452.58a12.33,12.33,0,0,0-5.89.59,7,7,0,0,0-5.29-3.07,5.56,5.56,0,0,0-4.1-3.15.58.58,0,0,0-.2,1.14,4.55,4.55,0,0,1,3,2,6.12,6.12,0,0,0-.69.1c-1.72.36-3.47,1.78-3.53,3.66s2,2.52,3.52,1.8a4.37,4.37,0,0,0,2.3-4.34,6.72,6.72,0,0,1,3.19,1.44,3.69,3.69,0,0,1,.76.88,6.45,6.45,0,0,0-3.26,4c-.37,1.31,0,3.44,1.84,3,1.64-.41,2.69-2.64,3-4.14a4.56,4.56,0,0,0-.09-2.28,11,11,0,0,1,5.22-.47C418.9,453.83,419.1,452.68,418.36,452.58Zm-12-1.34a3.18,3.18,0,0,1-1.93,3.5c-.69.22-1.69-.37-1.53-1.14a2.75,2.75,0,0,1,.69-1.25,3.75,3.75,0,0,1,2.43-1.1l.33,0Zm5.17,6.17a4.08,4.08,0,0,1-1.27,1.82c-1.58.82-.87-1.57-.61-2.11a5.66,5.66,0,0,1,2.25-2.41A4.38,4.38,0,0,1,411.49,457.41Z"/><polygon class="cls-15" points="406.32 451.23 407.49 451.32 407.51 452 406.32 451.23"/><polygon class="cls-15" points="405.89 450.1 407.18 450.1 406.95 449.62 405.89 450.1"/><polygon class="cls-15" points="411.44 453.64 412.47 453.17 412.19 452.75 411.44 453.64"/><polygon class="cls-15" points="412.93 454.2 411.77 454.77 413.06 454.72 412.93 454.2"/><polygon class="cls-11" points="427.82 458.89 429.08 461.76 432.19 461.42 430.35 463.94 432.19 466.46 429.08 466.13 427.82 468.99 426.56 466.13 423.45 466.46 425.3 463.94 423.45 461.42 426.56 461.76 427.82 458.89"/><polygon class="cls-11" points="396.01 454.26 397.1 456.73 399.77 456.43 398.18 458.6 399.77 460.77 397.1 460.48 396.01 462.94 394.93 460.48 392.25 460.77 393.84 458.6 392.25 456.43 394.93 456.73 396.01 454.26"/><polygon class="cls-11" points="404.15 474.48 405.03 476.46 407.18 476.23 405.9 477.98 407.18 479.73 405.03 479.49 404.15 481.48 403.28 479.49 401.12 479.73 402.4 477.98 401.12 476.23 403.28 476.46 404.15 474.48"/><polygon class="cls-11" points="325.23 333.16 326.32 335.62 328.99 335.33 327.4 337.5 328.99 339.67 326.32 339.38 325.23 341.84 324.15 339.38 321.47 339.67 323.06 337.5 321.47 335.33 324.15 335.62 325.23 333.16"/><polygon class="cls-11" points="349.94 452.23 352.19 457.33 357.74 456.73 354.44 461.24 357.74 465.74 352.19 465.14 349.94 470.25 347.68 465.14 342.13 465.74 345.43 461.24 342.13 456.73 347.68 457.33 349.94 452.23"/><polygon class="cls-11" points="304.4 351.25 305.01 352.63 306.51 352.47 305.62 353.69 306.51 354.91 305.01 354.75 304.4 356.13 303.79 354.75 302.28 354.91 303.18 353.69 302.28 352.47 303.79 352.63 304.4 351.25"/><polygon class="cls-11" points="323.34 284.51 323.95 285.89 325.45 285.73 324.56 286.95 325.45 288.17 323.95 288 323.34 289.39 322.73 288 321.23 288.17 322.12 286.95 321.23 285.73 322.73 285.89 323.34 284.51"/><polygon class="cls-11" points="359.02 344.7 359.63 346.09 361.13 345.92 360.24 347.14 361.13 348.36 359.63 348.2 359.02 349.58 358.41 348.2 356.91 348.36 357.8 347.14 356.91 345.92 358.41 346.09 359.02 344.7"/><rect class="cls-11" x="565.43" y="418.75" width="13.55" height="13.55" transform="translate(1277.7 321.8) rotate(135)"/><rect class="cls-11" x="525.36" y="450.88" width="6.77" height="6.77" transform="translate(1223.83 401.6) rotate(135)"/><rect class="cls-11" x="537.29" y="467.7" width="3.56" height="3.56" transform="translate(1252.23 420.27) rotate(135)"/><rect class="cls-11" x="551.23" y="446.45" width="3.56" height="3.56" transform="matrix(-0.99, 0.17, -0.17, -0.99, 1173.07, 797.89)"/><rect class="cls-11" x="486.93" y="476.99" width="3.56" height="3.56" transform="translate(1172.82 471.76) rotate(135)"/><circle class="cls-11" cx="481.91" cy="475.29" r="0.01"/><path class="cls-11" d="M594.63,467.43c3.16-.42,6.43-1.22,9.61-.54l.52.13a10.56,10.56,0,0,0-1.26,3.38c-.54,3.1,2.3,8.53,6,6,3.43-2.35,1.83-7.59-.95-9.68-.24-.18-.48-.34-.72-.49a23.94,23.94,0,0,1,7.11-5.77,1,1,0,0,0-1-1.71,26.52,26.52,0,0,0-8.08,6.57c-3.7-1.25-8-.27-11.78.23C592.88,465.69,593.4,467.59,594.63,467.43Zm12,.41c1.9,1.12,3.33,3,2.71,5.37-.35,1.35-2,2.2-3.05,1.06a4,4,0,0,1-1-2.46A6.81,6.81,0,0,1,606.65,467.84Z"/><polygon class="cls-15" points="606.65 467.84 607.85 466.21 608.81 466.89 606.65 467.84"/><polygon class="cls-15" points="604.76 467.02 605.91 465.3 604.92 465.02 604.76 467.02"/><path class="cls-11" d="M605.12,391.91a28.22,28.22,0,0,1-1.49,13.43,11.73,11.73,0,0,0-5.87-.35c-3.87.72-9.66,3.3-10.81,7.5-1.3,4.75,4.17,5.79,7.57,4.9A16.62,16.62,0,0,0,605,409.21a9.5,9.5,0,0,1,2.24,2,17.3,17.3,0,0,1,3.55,8.28c-4.43-.54-9.25,1.63-11.29,5.7-1.94,3.89-.58,9.23,4.45,9.17,4.85-.06,8.6-4.49,9.61-8.91a15.8,15.8,0,0,0,.3-1.78,11.72,11.72,0,0,1,5,7.86c.34,1.9,3.3,1.44,3-.46-.81-4.56-3.63-8.87-7.89-10.72-.42-5.47-3.21-11-7.62-13.77a31.75,31.75,0,0,0,1.82-15.12C607.86,389.53,604.9,390,605.12,391.91Zm5.81,30.61c0,.28,0,.56-.06.84a9.65,9.65,0,0,1-2.95,6.21,7.08,7.08,0,0,1-3.25,1.72c-2,.37-3.46-2.22-2.87-4,1.2-3.57,5.58-5.47,9.11-4.79Zm-8.67-14.45a14.58,14.58,0,0,1-6.31,5.66c-1.41.66-7.58,2.35-5.4-1.67.79-1.46,3.33-2.57,4.74-3.18A11.26,11.26,0,0,1,602.26,408.06Z"/><polygon class="cls-15" points="610.93 422.51 610.77 419.49 609.02 419.41 610.93 422.51"/><polygon class="cls-15" points="613.84 423.66 613.88 420.35 615.12 420.98 613.84 423.66"/><polygon class="cls-15" points="604.99 409.21 606.26 406.57 607.32 407.31 604.99 409.21"/><polygon class="cls-15" points="603.63 405.33 602.11 408.29 602.3 404.99 603.63 405.33"/><path class="cls-11" d="M548.36,574a28.22,28.22,0,0,1-13.17-3,11.73,11.73,0,0,0,1-5.79c-.28-3.92-2.19-10-6.24-11.59-4.57-1.82-6.22,3.5-5.72,7a16.62,16.62,0,0,0,7,11.32,9.5,9.5,0,0,1-2.24,2,17.3,17.3,0,0,1-8.62,2.59c1-4.34-.58-9.38-4.4-11.86-3.65-2.37-9.11-1.62-9.61,3.39-.48,4.82,3.5,9,7.78,10.55a15.8,15.8,0,0,0,1.73.5,11.72,11.72,0,0,1-8.37,4.07c-1.93.12-1.8,3.11.12,3,4.62-.3,9.22-2.61,11.54-6.64,5.49.2,11.3-2,14.54-6a31.75,31.75,0,0,0,14.82,3.5C550.42,577,550.28,574,548.36,574Zm-31.07,2.34-.83-.16a9.65,9.65,0,0,1-5.84-3.63,7.08,7.08,0,0,1-1.34-3.42c-.15-2,2.59-3.19,4.28-2.4,3.42,1.59,4.81,6.16,3.73,9.59Zm15.34-7a14.58,14.58,0,0,1-4.91-6.9c-.5-1.48-1.48-7.8,2.27-5.18,1.36,1,2.18,3.6,2.62,5.07A11.27,11.27,0,0,1,532.63,569.39Z"/><polygon class="cls-15" points="517.29 576.38 520.32 576.56 520.59 574.84 517.29 576.38"/><polygon class="cls-15" points="515.83 579.14 519.12 579.56 518.35 580.72 515.83 579.14"/><polygon class="cls-15" points="531.18 571.97 533.66 573.53 532.8 574.5 531.18 571.97"/><polygon class="cls-15" points="535.19 571.06 532.42 569.22 535.68 569.78 535.19 571.06"/><path class="cls-11" d="M502.71,451.88a14.27,14.27,0,0,1,6.8.62,5.94,5.94,0,0,0-.12,3c.41,1.95,1.77,4.85,3.9,5.39,2.41.61,2.89-2.17,2.4-3.88a8.41,8.41,0,0,0-4.24-5.21,4.81,4.81,0,0,1,1-1.15,8.75,8.75,0,0,1,4.15-1.88,5.69,5.69,0,0,0,3,5.65c2,.94,4.67.2,4.59-2.34s-2.36-4.3-4.6-4.77a8,8,0,0,0-.9-.13,5.93,5.93,0,0,1,3.93-2.6.76.76,0,0,0-.26-1.49,7.24,7.24,0,0,0-5.34,4.1,9.15,9.15,0,0,0-6.89,4,16.06,16.06,0,0,0-7.67-.77C501.48,450.52,501.74,452,502.71,451.88Zm15.42-3.25.43,0a4.88,4.88,0,0,1,3.17,1.43,3.58,3.58,0,0,1,.9,1.62c.21,1-1.09,1.77-2,1.49a4.14,4.14,0,0,1-2.51-4.56Zm-7.22,4.53a7.38,7.38,0,0,1,2.93,3.13c.35.71,1.26,3.81-.79,2.75a5.32,5.32,0,0,1-1.65-2.37A5.7,5.7,0,0,1,510.91,453.16Z"/><polygon class="cls-15" points="518.13 448.63 516.6 448.75 516.58 449.63 518.13 448.63"/><polygon class="cls-15" points="518.68 447.15 517 447.16 517.31 446.53 518.68 447.15"/><polygon class="cls-15" points="511.46 451.77 510.11 451.16 510.48 450.61 511.46 451.77"/><polygon class="cls-15" points="509.51 452.5 511.02 453.24 509.35 453.17 509.51 452.5"/><polygon class="cls-11" points="477.16 459.35 474.99 464.27 469.64 463.69 472.82 468.03 469.64 472.37 474.99 471.79 477.16 476.71 479.33 471.79 484.67 472.37 481.5 468.03 484.67 463.69 479.33 464.27 477.16 459.35"/><polygon class="cls-11" points="505.64 458.6 504.56 461.06 501.88 460.77 503.47 462.94 501.88 465.12 504.56 464.82 505.64 467.29 506.73 464.82 509.4 465.12 507.81 462.94 509.4 460.77 506.73 461.06 505.64 458.6"/><polygon class="cls-11" points="466.83 481.37 466.22 482.77 464.71 482.6 465.61 483.83 464.71 485.06 466.22 484.89 466.83 486.29 467.45 484.89 468.96 485.06 468.06 483.83 468.96 482.6 467.45 482.77 466.83 481.37"/><polygon class="cls-11" points="599.93 345.24 598.85 347.7 596.17 347.41 597.76 349.58 596.17 351.75 598.85 351.46 599.93 353.92 601.02 351.46 603.69 351.75 602.1 349.58 603.69 347.41 601.02 347.7 599.93 345.24"/><polygon class="cls-11" points="554.82 468.03 552.57 473.14 547.01 472.54 550.31 477.04 547.01 481.55 552.57 480.94 554.82 486.05 557.07 480.94 562.62 481.55 559.32 477.04 562.62 472.54 557.07 473.14 554.82 468.03"/><polygon class="cls-11" points="594.73 391.87 594.12 393.25 592.61 393.09 593.51 394.31 592.61 395.53 594.12 395.37 594.73 396.75 595.34 395.37 596.84 395.53 595.95 394.31 596.84 393.09 595.34 393.25 594.73 391.87"/><polygon class="cls-11" points="592.61 284.51 592 285.89 590.5 285.73 591.39 286.95 590.5 288.17 592 288 592.61 289.39 593.22 288 594.73 288.17 593.83 286.95 594.73 285.73 593.22 285.89 592.61 284.51"/><polygon class="cls-11" points="559.04 363.77 558.43 365.16 556.93 364.99 557.82 366.21 556.93 367.43 558.43 367.27 559.04 368.65 559.65 367.27 561.16 367.43 560.26 366.21 561.16 364.99 559.65 365.16 559.04 363.77"/></g></g></g></svg>