<svg xmlns="http://www.w3.org/2000/svg" viewBox="0 0 16.53 22.18"><defs><style>.cls-1{fill:#72b9a5;}</style></defs><title>Asset 70</title><g id="Layer_2" data-name="Layer 2"><g id="Layer_1-2" data-name="Layer 1"><path class="cls-1" d="M1.94,21.11a1.12,1.12,0,0,0,1.12,1.07H13.48a1.12,1.12,0,0,0,1.12-1.07L15.34,5.4H1.2ZM10.62,9.3a.45.45,0,0,1,.45-.45h.73a.45.45,0,0,1,.45.45v9a.45.45,0,0,1-.45.45h-.73a.45.45,0,0,1-.45-.45Zm-3.17,0a.45.45,0,0,1,.45-.45h.73a.45.45,0,0,1,.45.45v9a.45.45,0,0,1-.45.45H7.9a.45.45,0,0,1-.45-.45v-9Zm-3.17,0a.45.45,0,0,1,.45-.45h.73a.45.45,0,0,1,.45.45v9a.45.45,0,0,1-.45.45H4.73a.45.45,0,0,1-.45-.45Z"/><path class="cls-1" d="M15.83,1.14H11V.23A.23.23,0,0,0,10.79,0h-5a.23.23,0,0,0-.23.23v.91H.7a.7.7,0,0,0-.7.7V4H16.53V1.84A.7.7,0,0,0,15.83,1.14Z"/></g></g></svg>