<svg xmlns="http://www.w3.org/2000/svg" xmlns:xlink="http://www.w3.org/1999/xlink" viewBox="0 0 27 26.55"><defs><style>.cls-1{fill:url(#New_Gradient_Swatch_copy_3);}.cls-2{fill:url(#New_Gradient_Swatch_copy_3-2);}.cls-3{fill:url(#New_Gradient_Swatch_copy_3-3);}.cls-4{fill:#fff;}.cls-5{fill:url(#New_Gradient_Swatch_copy_3-4);}.cls-6{fill:url(#New_Gradient_Swatch_copy_3-5);}.cls-7{fill:url(#New_Gradient_Swatch_copy_3-6);}.cls-8{fill:url(#New_Gradient_Swatch_copy_3-7);}.cls-9{fill:url(#New_Gradient_Swatch_copy_3-8);}.cls-10{fill:url(#New_Gradient_Swatch_copy_3-9);}.cls-11{fill:url(#New_Gradient_Swatch_copy_3-10);}.cls-12{fill:url(#New_Gradient_Swatch_copy_3-11);}</style><linearGradient id="New_Gradient_Swatch_copy_3" y1="5.85" x2="19.8" y2="5.85" gradientUnits="userSpaceOnUse"><stop offset="0" stop-color="#72b9a5"/><stop offset="1" stop-color="#259fd5"/></linearGradient><linearGradient id="New_Gradient_Swatch_copy_3-2" x1="1.35" y1="14.18" x2="18.45" y2="14.18" xlink:href="#New_Gradient_Swatch_copy_3"/><linearGradient id="New_Gradient_Swatch_copy_3-3" x1="7.2" y1="5.85" x2="12.6" y2="5.85" xlink:href="#New_Gradient_Swatch_copy_3"/><linearGradient id="New_Gradient_Swatch_copy_3-4" x1="3.15" y1="1.35" x2="8.55" y2="1.35" xlink:href="#New_Gradient_Swatch_copy_3"/><linearGradient id="New_Gradient_Swatch_copy_3-5" x1="11.25" y1="1.35" x2="16.65" y2="1.35" xlink:href="#New_Gradient_Swatch_copy_3"/><linearGradient id="New_Gradient_Swatch_copy_3-6" x1="13.95" y1="21.6" x2="22.95" y2="21.6" xlink:href="#New_Gradient_Swatch_copy_3"/><linearGradient id="New_Gradient_Swatch_copy_3-7" x1="11.7" y1="24.75" x2="12.6" y2="24.75" xlink:href="#New_Gradient_Swatch_copy_3"/><linearGradient id="New_Gradient_Swatch_copy_3-8" x1="9.9" y1="21.6" x2="13.95" y2="21.6" xlink:href="#New_Gradient_Swatch_copy_3"/><linearGradient id="New_Gradient_Swatch_copy_3-9" x1="25.65" y1="21.6" x2="27" y2="21.6" xlink:href="#New_Gradient_Swatch_copy_3"/><linearGradient id="New_Gradient_Swatch_copy_3-10" x1="24.67" y1="19.53" x2="26.26" y2="19.53" xlink:href="#New_Gradient_Swatch_copy_3"/><linearGradient id="New_Gradient_Swatch_copy_3-11" x1="24.67" y1="23.67" x2="26.26" y2="23.67" xlink:href="#New_Gradient_Swatch_copy_3"/></defs><title>Asset 52</title><g id="Layer_2" data-name="Layer 2"><g id="Layer_1-2" data-name="Layer 1"><path class="cls-1" d="M.9,4.5h18a.9.9,0,0,1,.9.9v.9a.9.9,0,0,1-.9.9H.9A.9.9,0,0,1,0,6.3V5.4A.9.9,0,0,1,.9,4.5Z"/><path class="cls-2" d="M18.45,7.2H1.35V20.25a.9.9,0,0,0,.9.9h15.3a.9.9,0,0,0,.9-.9Z"/><path class="cls-3" d="M7.2,4.5h5.4V7.2H7.2Z"/><path class="cls-4" d="M8.1,7.2h3.6v14H8.1Z"/><path class="cls-4" d="M8.55,2.25h2.7V4.5H8.55Z"/><path class="cls-5" d="M3.6,0H6.75a1.8,1.8,0,0,1,1.8,1.8v.9H5A1.8,1.8,0,0,1,3.15.9V.45A.45.45,0,0,1,3.6,0Z"/><path class="cls-6" d="M14.85,2.7h-3.6V1.8A1.8,1.8,0,0,1,13.05,0H16.2a.45.45,0,0,1,.45.45V.9A1.8,1.8,0,0,1,14.85,2.7Z"/><path class="cls-7" d="M21.15,17.1,14.3,18.71a.45.45,0,0,0-.35.44v4.7a.45.45,0,0,0,.33.44l6.87,1.82H22.5a.45.45,0,0,0,.45-.45v-8.1a.45.45,0,0,0-.45-.45Z"/><path class="cls-8" d="M11.7,23h.9v3.6h-.9Z"/><path class="cls-9" d="M14,23h-2.7A1.35,1.35,0,0,1,9.9,21.6h0a1.35,1.35,0,0,1,1.35-1.35H14Z"/><path class="cls-10" d="M25.65,21.15H27v.9H25.65Z"/><path class="cls-11" d="M24.67,19.69l1-1,.64.64-1,1Z"/><path class="cls-12" d="M24.67,23.51l.64-.64,1,1-.64.64Z"/></g></g></svg>