<svg xmlns="http://www.w3.org/2000/svg" viewBox="0 0 28.52 19.67"><defs><style>.cls-1{fill:#bdbdbc;}</style></defs><title>Asset 59</title><g id="Layer_2" data-name="Layer 2"><g id="Layer_1-2" data-name="Layer 1"><path class="cls-1" d="M5.09,12.77,2.15,9.83,5.09,6.9a.89.89,0,0,0,0-1.26L1.52,2.07A.89.89,0,0,0,.26,3.33L3.2,6.27.26,9.2a.89.89,0,0,0,0,1.26L3.2,13.4.26,16.33a.89.89,0,0,0,0,1.26.88.88,0,0,0,.63.26.9.9,0,0,0,.63-.26L5.09,14A.89.89,0,0,0,5.09,12.77Z"/><path class="cls-1" d="M28.26,16.33,25.33,13.4l2.93-2.93a.89.89,0,0,0,0-1.26L25.33,6.27l2.93-2.93A.89.89,0,1,0,27,2.07L23.43,5.64a.89.89,0,0,0,0,1.26l2.94,2.93-2.93,2.93a.89.89,0,0,0,0,1.26L27,17.59a.88.88,0,0,0,.63.26.89.89,0,0,0,.63-1.52Z"/><g id="notifications-on"><path class="cls-1" d="M20.65,8.36a6.33,6.33,0,0,0-4.92-6.19V1.47a1.47,1.47,0,0,0-2.95,0v.69A6.33,6.33,0,0,0,7.87,8.36v5.41l-2,2v1H22.62v-1l-2-2ZM14.26,19.67h.39A1.71,1.71,0,0,0,16,18.49a1.85,1.85,0,0,0,.2-.79H12.29A2,2,0,0,0,14.26,19.67Z"/></g></g></g></svg>