<svg xmlns="http://www.w3.org/2000/svg" viewBox="0 0 13.62 13.62"><defs><style>.cls-1{fill:#6fb09c;}.cls-2{fill:#649f8d;}.cls-3{fill:#f0f0ee;}.cls-4{fill:#e4e3e1;}</style></defs><title>Asset 37</title><g id="Layer_2" data-name="Layer 2"><g id="Layer_1-2" data-name="Layer 1"><circle class="cls-1" cx="6.81" cy="6.81" r="6.81"/><path class="cls-2" d="M12.51,3.1l-6,6.23V10h.28L13.3,4.74A6.92,6.92,0,0,0,12.51,3.1Z"/><path class="cls-3" d="M13.49,2.8l-1.2-1.19a.43.43,0,0,0-.6,0L6.55,6.92,4.33,4.72a.43.43,0,0,0-.6,0L2.67,5.78a.42.42,0,0,0,0,.59L6.22,9.88a.43.43,0,0,0,.35.12.43.43,0,0,0,.35-.12l6.56-6.49A.43.43,0,0,0,13.49,2.8Z"/><path class="cls-4" d="M6.93,9.88l6.56-6.49a.42.42,0,0,0,0-.59l-.19-.18L6.56,9.24,2.84,5.62l-.16.16a.42.42,0,0,0,0,.59L6.23,9.88a.43.43,0,0,0,.35.12A.42.42,0,0,0,6.93,9.88Z"/></g></g></svg>