<svg xmlns="http://www.w3.org/2000/svg" viewBox="0 0 12.78 11.83"><defs><style>.cls-1{fill:#72b9a5;}</style></defs><title>Asset 28</title><g id="Layer_2" data-name="Layer 2"><g id="Layer_1-2" data-name="Layer 1"><path class="cls-1" d="M4.55,11.83a.61.61,0,0,0,.6-.6V.61a.6.6,0,0,0-1-.48l-3.94,3a.6.6,0,0,0-.12.84A.6.6,0,0,0,1,4l3-2.23v9.41a.61.61,0,0,0,.6.6Zm0,0"/><path class="cls-1" d="M8.24,0a.6.6,0,0,0-.6.6V11.12a.62.62,0,0,0,.33.54.66.66,0,0,0,.27.06.6.6,0,0,0,.36-.12L12.54,8.7a.6.6,0,0,0-.71-1l-3,2.2V.6a.6.6,0,0,0-.6-.6Zm0,0"/></g></g></svg>