<svg xmlns="http://www.w3.org/2000/svg" xmlns:xlink="http://www.w3.org/1999/xlink" viewBox="0 0 20 20"><defs><style>.cls-1{fill:url(#New_Gradient_Swatch_copy_3);}</style><linearGradient id="New_Gradient_Swatch_copy_3" y1="10" x2="20" y2="10" gradientUnits="userSpaceOnUse"><stop offset="0" stop-color="#72b9a5"/><stop offset="1" stop-color="#259fd5"/></linearGradient></defs><title>Asset 66</title><g id="Layer_2" data-name="Layer 2"><g id="Layer_1-2" data-name="Layer 1"><path class="cls-1" d="M10,0A10,10,0,1,0,20,10,10,10,0,0,0,10,0Zm6.93,6H14a15.65,15.65,0,0,0-1.38-3.56A8,8,0,0,1,16.92,6ZM10,2a14.09,14.09,0,0,1,1.91,4H8.09A14.09,14.09,0,0,1,10,2ZM2.26,12A8.24,8.24,0,0,1,2,10a8.24,8.24,0,0,1,.26-2H5.64a16.52,16.52,0,0,0-.14,2,16.52,16.52,0,0,0,.14,2Zm.82,2H6a15.65,15.65,0,0,0,1.38,3.56A8,8,0,0,1,3.08,14ZM6,6h-3A8,8,0,0,1,7.41,2.44,15.65,15.65,0,0,0,6,6Zm4,12a14.09,14.09,0,0,1-1.91-4h3.82A14.09,14.09,0,0,1,10,18Zm2.34-6H7.66a14.71,14.71,0,0,1-.16-2,14.58,14.58,0,0,1,.16-2h4.68a14.58,14.58,0,0,1,.16,2A14.71,14.71,0,0,1,12.34,12Zm.25,5.56A15.65,15.65,0,0,0,14,14h2.95A8,8,0,0,1,12.59,17.56ZM14.36,12a16.52,16.52,0,0,0,.14-2,16.52,16.52,0,0,0-.14-2h3.38A8.24,8.24,0,0,1,18,10a8.24,8.24,0,0,1-.26,2Z"/></g></g></svg>