<svg xmlns="http://www.w3.org/2000/svg" viewBox="0 0 29.2 29.2"><defs><style>.cls-1{fill:#4e598f;}</style></defs><title>Asset 79</title><g id="Layer_2" data-name="Layer 2"><g id="Layer_1-2" data-name="Layer 1"><path class="cls-1" d="M25.26,0H3.93A3.93,3.93,0,0,0,0,3.93V25.26A3.93,3.93,0,0,0,3.93,29.2H14.45l0-10.43H11.76a.64.64,0,0,1-.64-.64V14.76a.64.64,0,0,1,.64-.64h2.71V10.87C14.45,7.1,16.76,5,20.12,5h2.76a.64.64,0,0,1,.64.64V8.52a.64.64,0,0,1-.64.64H21.19C19.36,9.16,19,10,19,11.31v2.81h4a.64.64,0,0,1,.64.71l-.4,3.36a.64.64,0,0,1-.64.56H19L19,29.2h6.26a3.93,3.93,0,0,0,3.93-3.93V3.93A3.93,3.93,0,0,0,25.26,0Z"/></g></g></svg>