<?xml version="1.0" encoding="iso-8859-1"?>
<!-- Generator: Adobe Illustrator 19.0.0, SVG Export Plug-In . SVG Version: 6.00 Build 0)  -->
<svg version="1.1" id="Capa_1" xmlns="http://www.w3.org/2000/svg" xmlns:xlink="http://www.w3.org/1999/xlink" x="0px" y="0px"
	 viewBox="0 0 512 512" style="enable-background:new 0 0 512 512;" xml:space="preserve">
<path style="fill:#9E7325;" d="M407.3,67.2c12.063-8.058,28.324-0.035,29.271,14.441l3.789,57.948l3.789,57.948
	c0.946,14.476-14.132,24.547-27.141,18.129l-52.079-25.692L312.85,164.28c-13.009-6.418-14.193-24.512-2.13-32.57l48.29-32.256
	L407.3,67.2z"/>
<g>
	<circle style="fill:#BB9430;" cx="362.954" cy="144.171" r="8"/>
	<circle style="fill:#BB9430;" cx="382.155" cy="113.771" r="8"/>
	<circle style="fill:#BB9430;" cx="412.021" cy="98.837" r="8"/>
</g>
<path style="fill:#9E7325;" d="M153.096,91.479c-3.755-14.012,9.068-26.834,23.079-23.079l56.093,15.03l56.093,15.03
	c14.012,3.755,18.705,21.269,8.448,31.527l-41.063,41.063l-41.063,41.063c-10.258,10.258-27.773,5.565-31.527-8.448l-15.03-56.093
	L153.096,91.479z"/>
<g>
	<circle style="fill:#BB9430;" cx="174.155" cy="91.371" r="8"/>
	<circle style="fill:#BB9430;" cx="242.421" cy="116.971" r="8"/>
	<path style="fill:#BB9430;" d="M338.112,121.236c-0.964-14.475-17.235-22.478-29.289-14.405l-48.252,32.314l-48.252,32.314
		c-12.053,8.071-10.848,26.165,2.169,32.567l52.11,25.631l52.11,25.631c13.018,6.402,28.084-3.687,27.12-18.162l-3.858-57.943
		L338.112,121.236z"/>
</g>
<g>
	<circle style="fill:#9E7325;" cx="279.754" cy="173.504" r="8"/>
	<circle style="fill:#9E7325;" cx="311.754" cy="162.837" r="8"/>
	<circle style="fill:#9E7325;" cx="288.288" cy="148.971" r="8"/>
</g>
<path style="fill:#BB9430;" d="M63.622,91.365c0.915-14.478,17.159-22.535,29.241-14.503l48.359,32.151l48.359,32.151
	c12.08,8.032,10.937,26.128-2.06,32.575l-52.023,25.805l-52.023,25.805c-12.995,6.446-28.096-3.594-27.181-18.07l3.664-57.956
	L63.622,91.365z"/>
<g>
	<circle style="fill:#9E7325;" cx="120.874" cy="154.325" r="8"/>
	<circle style="fill:#9E7325;" cx="88.832" cy="142.699" r="8"/>
	<circle style="fill:#9E7325;" cx="88.704" cy="113.899" r="8"/>
	<circle style="fill:#9E7325;" cx="120.757" cy="129.792" r="8"/>
</g>
<path style="fill:#E2C35A;" d="M26.163,180.013c-3.755-14.012,9.068-26.834,23.079-23.079l56.093,15.03l56.093,15.03
	c14.012,3.755,18.705,21.269,8.448,31.527l-41.063,41.063l-41.063,41.063c-10.258,10.258-27.773,5.565-31.527-8.448l-15.03-56.093
	L26.163,180.013z"/>
<g>
	<circle style="fill:#D9B43A;" cx="106.954" cy="209.771" r="8"/>
	<circle style="fill:#D9B43A;" cx="85.621" cy="188.437" r="8"/>
	<path style="fill:#D9B43A;" d="M393.264,140.29c7.253-12.563,25.387-12.563,32.64,0l29.036,50.292l29.036,50.292
		c7.253,12.563-1.813,28.267-16.32,28.267h-58.071h-58.071c-14.507,0-23.573-15.703-16.32-28.267l29.036-50.292L393.264,140.29z"/>
</g>
<g>
	<circle style="fill:#BB9430;" cx="432.288" cy="203.371" r="8"/>
	<circle style="fill:#BB9430;" cx="407.755" cy="220.437" r="8"/>
	<circle style="fill:#BB9430;" cx="412.021" cy="177.771" r="8"/>
</g>
<path style="fill:#E2C35A;" d="M251.105,230.896c-10.178-10.337-5.349-27.815,8.691-31.461l56.208-14.596l56.208-14.596
	c14.041-3.646,26.764,9.275,22.9,23.258l-15.463,55.975l-15.463,55.975c-3.862,13.983-21.413,18.541-31.591,8.204l-40.745-41.379
	L251.105,230.896z"/>
<circle style="fill:#D9B43A;" cx="304.288" cy="214.037" r="8"/>
<circle style="fill:#BB9430;" cx="357.621" cy="220.437" r="8"/>
<g>
	<circle style="fill:#D9B43A;" cx="357.621" cy="220.437" r="8"/>
	<circle style="fill:#D9B43A;" cx="336.288" cy="202.304" r="8"/>
	<path style="fill:#D9B43A;" d="M181.652,117.307c7.253-12.563,25.387-12.563,32.64,0l29.036,50.292l29.036,50.292
		c7.253,12.563-1.813,28.267-16.32,28.267h-58.071h-58.071c-14.507,0-23.573-15.703-16.32-28.267l29.036-50.292L181.652,117.307z"/>
</g>
<g>
	<circle style="fill:#BB9430;" cx="170.955" cy="192.704" r="8"/>
	<circle style="fill:#BB9430;" cx="196.555" cy="152.171" r="8"/>
	<circle style="fill:#BB9430;" cx="202.955" cy="214.037" r="8"/>
	<circle style="fill:#BB9430;" cx="213.621" cy="182.037" r="8"/>
	<circle style="fill:#BB9430;" cx="234.955" cy="214.037" r="8"/>
</g>
<path style="fill:#5B5751;" d="M480.543,234.667H256.015L108.8,395.534h0.022c0,0.669,0.012,1.335,0.035,2
	C109.867,425.859,133.464,448,161.443,448h94.572h94.572c27.979,0,51.577-22.141,52.586-50.466c0.023-0.665,0.035-1.331,0.035-2
	h0.022c54.082-27.802,93.442-70.495,107.527-120.183C516.531,254.978,501.465,234.667,480.543,234.667z"/>
<path style="fill:#706B63;" d="M318.247,347.219L318.247,347.219c34.779-46.074,2.35-112.553-54.905-112.553H31.487
	c-20.845,0-35.994,20.197-30.266,40.501c14.042,49.772,53.447,92.531,107.604,120.366h112.523c37.679,0,73.404-17.478,96.428-47.693
	C317.933,347.634,318.091,347.427,318.247,347.219z"/>
<g>
</g>
<g>
</g>
<g>
</g>
<g>
</g>
<g>
</g>
<g>
</g>
<g>
</g>
<g>
</g>
<g>
</g>
<g>
</g>
<g>
</g>
<g>
</g>
<g>
</g>
<g>
</g>
<g>
</g>
</svg>
